<?xml version="1.0" encoding="utf-8" standalone="no"?>
<!DOCTYPE svg PUBLIC "-//W3C//DTD SVG 1.1//EN"
  "http://www.w3.org/Graphics/SVG/1.1/DTD/svg11.dtd">
<!-- Created with matplotlib (https://matplotlib.org/) -->
<svg height="275.794687pt" version="1.1" viewBox="0 0 618.528125 275.794687" width="618.528125pt" xmlns="http://www.w3.org/2000/svg" xmlns:xlink="http://www.w3.org/1999/xlink">
 <defs>
  <style type="text/css">
*{stroke-linecap:butt;stroke-linejoin:round;}
  </style>
 </defs>
 <g id="figure_1">
  <g id="patch_1">
   <path d="M 0 275.794687 
L 618.528125 275.794687 
L 618.528125 0 
L 0 0 
z
" style="fill:#ffffff;"/>
  </g>
  <g id="axes_1">
   <g id="patch_2">
    <path d="M 53.328125 238.238437 
L 306.964489 238.238437 
L 306.964489 20.798437 
L 53.328125 20.798437 
z
" style="fill:#ffffff;"/>
   </g>
   <g id="matplotlib.axis_1">
    <g id="xtick_1">
     <g id="line2d_1">
      <defs>
       <path d="M 0 0 
L 0 3.5 
" id="mcc5437f633" style="stroke:#000000;stroke-width:0.8;"/>
      </defs>
      <g>
       <use style="stroke:#000000;stroke-width:0.8;" x="64.626241" xlink:href="#mcc5437f633" y="238.238437"/>
      </g>
     </g>
     <g id="text_1">
      <!-- 0 -->
      <defs>
       <path d="M 31.78125 66.40625 
Q 24.171875 66.40625 20.328125 58.90625 
Q 16.5 51.421875 16.5 36.375 
Q 16.5 21.390625 20.328125 13.890625 
Q 24.171875 6.390625 31.78125 6.390625 
Q 39.453125 6.390625 43.28125 13.890625 
Q 47.125 21.390625 47.125 36.375 
Q 47.125 51.421875 43.28125 58.90625 
Q 39.453125 66.40625 31.78125 66.40625 
z
M 31.78125 74.21875 
Q 44.046875 74.21875 50.515625 64.515625 
Q 56.984375 54.828125 56.984375 36.375 
Q 56.984375 17.96875 50.515625 8.265625 
Q 44.046875 -1.421875 31.78125 -1.421875 
Q 19.53125 -1.421875 13.0625 8.265625 
Q 6.59375 17.96875 6.59375 36.375 
Q 6.59375 54.828125 13.0625 64.515625 
Q 19.53125 74.21875 31.78125 74.21875 
z
" id="DejaVuSans-48"/>
      </defs>
      <g transform="translate(61.444991 252.836875)scale(0.1 -0.1)">
       <use xlink:href="#DejaVuSans-48"/>
      </g>
     </g>
    </g>
    <g id="xtick_2">
     <g id="line2d_2">
      <g>
       <use style="stroke:#000000;stroke-width:0.8;" x="110.788106" xlink:href="#mcc5437f633" y="238.238437"/>
      </g>
     </g>
     <g id="text_2">
      <!-- 200 -->
      <defs>
       <path d="M 19.1875 8.296875 
L 53.609375 8.296875 
L 53.609375 0 
L 7.328125 0 
L 7.328125 8.296875 
Q 12.9375 14.109375 22.625 23.890625 
Q 32.328125 33.6875 34.8125 36.53125 
Q 39.546875 41.84375 41.421875 45.53125 
Q 43.3125 49.21875 43.3125 52.78125 
Q 43.3125 58.59375 39.234375 62.25 
Q 35.15625 65.921875 28.609375 65.921875 
Q 23.96875 65.921875 18.8125 64.3125 
Q 13.671875 62.703125 7.8125 59.421875 
L 7.8125 69.390625 
Q 13.765625 71.78125 18.9375 73 
Q 24.125 74.21875 28.421875 74.21875 
Q 39.75 74.21875 46.484375 68.546875 
Q 53.21875 62.890625 53.21875 53.421875 
Q 53.21875 48.921875 51.53125 44.890625 
Q 49.859375 40.875 45.40625 35.40625 
Q 44.1875 33.984375 37.640625 27.21875 
Q 31.109375 20.453125 19.1875 8.296875 
z
" id="DejaVuSans-50"/>
      </defs>
      <g transform="translate(101.244356 252.836875)scale(0.1 -0.1)">
       <use xlink:href="#DejaVuSans-50"/>
       <use x="63.623047" xlink:href="#DejaVuSans-48"/>
       <use x="127.246094" xlink:href="#DejaVuSans-48"/>
      </g>
     </g>
    </g>
    <g id="xtick_3">
     <g id="line2d_3">
      <g>
       <use style="stroke:#000000;stroke-width:0.8;" x="156.94997" xlink:href="#mcc5437f633" y="238.238437"/>
      </g>
     </g>
     <g id="text_3">
      <!-- 400 -->
      <defs>
       <path d="M 37.796875 64.3125 
L 12.890625 25.390625 
L 37.796875 25.390625 
z
M 35.203125 72.90625 
L 47.609375 72.90625 
L 47.609375 25.390625 
L 58.015625 25.390625 
L 58.015625 17.1875 
L 47.609375 17.1875 
L 47.609375 0 
L 37.796875 0 
L 37.796875 17.1875 
L 4.890625 17.1875 
L 4.890625 26.703125 
z
" id="DejaVuSans-52"/>
      </defs>
      <g transform="translate(147.40622 252.836875)scale(0.1 -0.1)">
       <use xlink:href="#DejaVuSans-52"/>
       <use x="63.623047" xlink:href="#DejaVuSans-48"/>
       <use x="127.246094" xlink:href="#DejaVuSans-48"/>
      </g>
     </g>
    </g>
    <g id="xtick_4">
     <g id="line2d_4">
      <g>
       <use style="stroke:#000000;stroke-width:0.8;" x="203.111834" xlink:href="#mcc5437f633" y="238.238437"/>
      </g>
     </g>
     <g id="text_4">
      <!-- 600 -->
      <defs>
       <path d="M 33.015625 40.375 
Q 26.375 40.375 22.484375 35.828125 
Q 18.609375 31.296875 18.609375 23.390625 
Q 18.609375 15.53125 22.484375 10.953125 
Q 26.375 6.390625 33.015625 6.390625 
Q 39.65625 6.390625 43.53125 10.953125 
Q 47.40625 15.53125 47.40625 23.390625 
Q 47.40625 31.296875 43.53125 35.828125 
Q 39.65625 40.375 33.015625 40.375 
z
M 52.59375 71.296875 
L 52.59375 62.3125 
Q 48.875 64.0625 45.09375 64.984375 
Q 41.3125 65.921875 37.59375 65.921875 
Q 27.828125 65.921875 22.671875 59.328125 
Q 17.53125 52.734375 16.796875 39.40625 
Q 19.671875 43.65625 24.015625 45.921875 
Q 28.375 48.1875 33.59375 48.1875 
Q 44.578125 48.1875 50.953125 41.515625 
Q 57.328125 34.859375 57.328125 23.390625 
Q 57.328125 12.15625 50.6875 5.359375 
Q 44.046875 -1.421875 33.015625 -1.421875 
Q 20.359375 -1.421875 13.671875 8.265625 
Q 6.984375 17.96875 6.984375 36.375 
Q 6.984375 53.65625 15.1875 63.9375 
Q 23.390625 74.21875 37.203125 74.21875 
Q 40.921875 74.21875 44.703125 73.484375 
Q 48.484375 72.75 52.59375 71.296875 
z
" id="DejaVuSans-54"/>
      </defs>
      <g transform="translate(193.568084 252.836875)scale(0.1 -0.1)">
       <use xlink:href="#DejaVuSans-54"/>
       <use x="63.623047" xlink:href="#DejaVuSans-48"/>
       <use x="127.246094" xlink:href="#DejaVuSans-48"/>
      </g>
     </g>
    </g>
    <g id="xtick_5">
     <g id="line2d_5">
      <g>
       <use style="stroke:#000000;stroke-width:0.8;" x="249.273699" xlink:href="#mcc5437f633" y="238.238437"/>
      </g>
     </g>
     <g id="text_5">
      <!-- 800 -->
      <defs>
       <path d="M 31.78125 34.625 
Q 24.75 34.625 20.71875 30.859375 
Q 16.703125 27.09375 16.703125 20.515625 
Q 16.703125 13.921875 20.71875 10.15625 
Q 24.75 6.390625 31.78125 6.390625 
Q 38.8125 6.390625 42.859375 10.171875 
Q 46.921875 13.96875 46.921875 20.515625 
Q 46.921875 27.09375 42.890625 30.859375 
Q 38.875 34.625 31.78125 34.625 
z
M 21.921875 38.8125 
Q 15.578125 40.375 12.03125 44.71875 
Q 8.5 49.078125 8.5 55.328125 
Q 8.5 64.0625 14.71875 69.140625 
Q 20.953125 74.21875 31.78125 74.21875 
Q 42.671875 74.21875 48.875 69.140625 
Q 55.078125 64.0625 55.078125 55.328125 
Q 55.078125 49.078125 51.53125 44.71875 
Q 48 40.375 41.703125 38.8125 
Q 48.828125 37.15625 52.796875 32.3125 
Q 56.78125 27.484375 56.78125 20.515625 
Q 56.78125 9.90625 50.3125 4.234375 
Q 43.84375 -1.421875 31.78125 -1.421875 
Q 19.734375 -1.421875 13.25 4.234375 
Q 6.78125 9.90625 6.78125 20.515625 
Q 6.78125 27.484375 10.78125 32.3125 
Q 14.796875 37.15625 21.921875 38.8125 
z
M 18.3125 54.390625 
Q 18.3125 48.734375 21.84375 45.5625 
Q 25.390625 42.390625 31.78125 42.390625 
Q 38.140625 42.390625 41.71875 45.5625 
Q 45.3125 48.734375 45.3125 54.390625 
Q 45.3125 60.0625 41.71875 63.234375 
Q 38.140625 66.40625 31.78125 66.40625 
Q 25.390625 66.40625 21.84375 63.234375 
Q 18.3125 60.0625 18.3125 54.390625 
z
" id="DejaVuSans-56"/>
      </defs>
      <g transform="translate(239.729949 252.836875)scale(0.1 -0.1)">
       <use xlink:href="#DejaVuSans-56"/>
       <use x="63.623047" xlink:href="#DejaVuSans-48"/>
       <use x="127.246094" xlink:href="#DejaVuSans-48"/>
      </g>
     </g>
    </g>
    <g id="xtick_6">
     <g id="line2d_6">
      <g>
       <use style="stroke:#000000;stroke-width:0.8;" x="295.435563" xlink:href="#mcc5437f633" y="238.238437"/>
      </g>
     </g>
     <g id="text_6">
      <!-- 1000 -->
      <defs>
       <path d="M 12.40625 8.296875 
L 28.515625 8.296875 
L 28.515625 63.921875 
L 10.984375 60.40625 
L 10.984375 69.390625 
L 28.421875 72.90625 
L 38.28125 72.90625 
L 38.28125 8.296875 
L 54.390625 8.296875 
L 54.390625 0 
L 12.40625 0 
z
" id="DejaVuSans-49"/>
      </defs>
      <g transform="translate(282.710563 252.836875)scale(0.1 -0.1)">
       <use xlink:href="#DejaVuSans-49"/>
       <use x="63.623047" xlink:href="#DejaVuSans-48"/>
       <use x="127.246094" xlink:href="#DejaVuSans-48"/>
       <use x="190.869141" xlink:href="#DejaVuSans-48"/>
      </g>
     </g>
    </g>
    <g id="text_7">
     <!-- noun rank -->
     <defs>
      <path d="M 54.890625 33.015625 
L 54.890625 0 
L 45.90625 0 
L 45.90625 32.71875 
Q 45.90625 40.484375 42.875 44.328125 
Q 39.84375 48.1875 33.796875 48.1875 
Q 26.515625 48.1875 22.3125 43.546875 
Q 18.109375 38.921875 18.109375 30.90625 
L 18.109375 0 
L 9.078125 0 
L 9.078125 54.6875 
L 18.109375 54.6875 
L 18.109375 46.1875 
Q 21.34375 51.125 25.703125 53.5625 
Q 30.078125 56 35.796875 56 
Q 45.21875 56 50.046875 50.171875 
Q 54.890625 44.34375 54.890625 33.015625 
z
" id="DejaVuSans-110"/>
      <path d="M 30.609375 48.390625 
Q 23.390625 48.390625 19.1875 42.75 
Q 14.984375 37.109375 14.984375 27.296875 
Q 14.984375 17.484375 19.15625 11.84375 
Q 23.34375 6.203125 30.609375 6.203125 
Q 37.796875 6.203125 41.984375 11.859375 
Q 46.1875 17.53125 46.1875 27.296875 
Q 46.1875 37.015625 41.984375 42.703125 
Q 37.796875 48.390625 30.609375 48.390625 
z
M 30.609375 56 
Q 42.328125 56 49.015625 48.375 
Q 55.71875 40.765625 55.71875 27.296875 
Q 55.71875 13.875 49.015625 6.21875 
Q 42.328125 -1.421875 30.609375 -1.421875 
Q 18.84375 -1.421875 12.171875 6.21875 
Q 5.515625 13.875 5.515625 27.296875 
Q 5.515625 40.765625 12.171875 48.375 
Q 18.84375 56 30.609375 56 
z
" id="DejaVuSans-111"/>
      <path d="M 8.5 21.578125 
L 8.5 54.6875 
L 17.484375 54.6875 
L 17.484375 21.921875 
Q 17.484375 14.15625 20.5 10.265625 
Q 23.53125 6.390625 29.59375 6.390625 
Q 36.859375 6.390625 41.078125 11.03125 
Q 45.3125 15.671875 45.3125 23.6875 
L 45.3125 54.6875 
L 54.296875 54.6875 
L 54.296875 0 
L 45.3125 0 
L 45.3125 8.40625 
Q 42.046875 3.421875 37.71875 1 
Q 33.40625 -1.421875 27.6875 -1.421875 
Q 18.265625 -1.421875 13.375 4.4375 
Q 8.5 10.296875 8.5 21.578125 
z
M 31.109375 56 
z
" id="DejaVuSans-117"/>
      <path id="DejaVuSans-32"/>
      <path d="M 41.109375 46.296875 
Q 39.59375 47.171875 37.8125 47.578125 
Q 36.03125 48 33.890625 48 
Q 26.265625 48 22.1875 43.046875 
Q 18.109375 38.09375 18.109375 28.8125 
L 18.109375 0 
L 9.078125 0 
L 9.078125 54.6875 
L 18.109375 54.6875 
L 18.109375 46.1875 
Q 20.953125 51.171875 25.484375 53.578125 
Q 30.03125 56 36.53125 56 
Q 37.453125 56 38.578125 55.875 
Q 39.703125 55.765625 41.0625 55.515625 
z
" id="DejaVuSans-114"/>
      <path d="M 34.28125 27.484375 
Q 23.390625 27.484375 19.1875 25 
Q 14.984375 22.515625 14.984375 16.5 
Q 14.984375 11.71875 18.140625 8.90625 
Q 21.296875 6.109375 26.703125 6.109375 
Q 34.1875 6.109375 38.703125 11.40625 
Q 43.21875 16.703125 43.21875 25.484375 
L 43.21875 27.484375 
z
M 52.203125 31.203125 
L 52.203125 0 
L 43.21875 0 
L 43.21875 8.296875 
Q 40.140625 3.328125 35.546875 0.953125 
Q 30.953125 -1.421875 24.3125 -1.421875 
Q 15.921875 -1.421875 10.953125 3.296875 
Q 6 8.015625 6 15.921875 
Q 6 25.140625 12.171875 29.828125 
Q 18.359375 34.515625 30.609375 34.515625 
L 43.21875 34.515625 
L 43.21875 35.40625 
Q 43.21875 41.609375 39.140625 45 
Q 35.0625 48.390625 27.6875 48.390625 
Q 23 48.390625 18.546875 47.265625 
Q 14.109375 46.140625 10.015625 43.890625 
L 10.015625 52.203125 
Q 14.9375 54.109375 19.578125 55.046875 
Q 24.21875 56 28.609375 56 
Q 40.484375 56 46.34375 49.84375 
Q 52.203125 43.703125 52.203125 31.203125 
z
" id="DejaVuSans-97"/>
      <path d="M 9.078125 75.984375 
L 18.109375 75.984375 
L 18.109375 31.109375 
L 44.921875 54.6875 
L 56.390625 54.6875 
L 27.390625 29.109375 
L 57.625 0 
L 45.90625 0 
L 18.109375 26.703125 
L 18.109375 0 
L 9.078125 0 
z
" id="DejaVuSans-107"/>
     </defs>
     <g transform="translate(154.808026 266.515)scale(0.1 -0.1)">
      <use xlink:href="#DejaVuSans-110"/>
      <use x="63.378906" xlink:href="#DejaVuSans-111"/>
      <use x="124.560547" xlink:href="#DejaVuSans-117"/>
      <use x="187.939453" xlink:href="#DejaVuSans-110"/>
      <use x="251.318359" xlink:href="#DejaVuSans-32"/>
      <use x="283.105469" xlink:href="#DejaVuSans-114"/>
      <use x="324.21875" xlink:href="#DejaVuSans-97"/>
      <use x="385.498047" xlink:href="#DejaVuSans-110"/>
      <use x="448.876953" xlink:href="#DejaVuSans-107"/>
     </g>
    </g>
   </g>
   <g id="matplotlib.axis_2">
    <g id="ytick_1">
     <g id="line2d_7">
      <defs>
       <path d="M 0 0 
L -3.5 0 
" id="m3eb8598092" style="stroke:#000000;stroke-width:0.8;"/>
      </defs>
      <g>
       <use style="stroke:#000000;stroke-width:0.8;" x="53.328125" xlink:href="#m3eb8598092" y="228.756004"/>
      </g>
     </g>
     <g id="text_8">
      <!-- 0 -->
      <g transform="translate(39.965625 232.555223)scale(0.1 -0.1)">
       <use xlink:href="#DejaVuSans-48"/>
      </g>
     </g>
    </g>
    <g id="ytick_2">
     <g id="line2d_8">
      <g>
       <use style="stroke:#000000;stroke-width:0.8;" x="53.328125" xlink:href="#m3eb8598092" y="188.635702"/>
      </g>
     </g>
     <g id="text_9">
      <!-- 1000 -->
      <g transform="translate(20.878125 192.434921)scale(0.1 -0.1)">
       <use xlink:href="#DejaVuSans-49"/>
       <use x="63.623047" xlink:href="#DejaVuSans-48"/>
       <use x="127.246094" xlink:href="#DejaVuSans-48"/>
       <use x="190.869141" xlink:href="#DejaVuSans-48"/>
      </g>
     </g>
    </g>
    <g id="ytick_3">
     <g id="line2d_9">
      <g>
       <use style="stroke:#000000;stroke-width:0.8;" x="53.328125" xlink:href="#m3eb8598092" y="148.5154"/>
      </g>
     </g>
     <g id="text_10">
      <!-- 2000 -->
      <g transform="translate(20.878125 152.314619)scale(0.1 -0.1)">
       <use xlink:href="#DejaVuSans-50"/>
       <use x="63.623047" xlink:href="#DejaVuSans-48"/>
       <use x="127.246094" xlink:href="#DejaVuSans-48"/>
       <use x="190.869141" xlink:href="#DejaVuSans-48"/>
      </g>
     </g>
    </g>
    <g id="ytick_4">
     <g id="line2d_10">
      <g>
       <use style="stroke:#000000;stroke-width:0.8;" x="53.328125" xlink:href="#m3eb8598092" y="108.395099"/>
      </g>
     </g>
     <g id="text_11">
      <!-- 3000 -->
      <defs>
       <path d="M 40.578125 39.3125 
Q 47.65625 37.796875 51.625 33 
Q 55.609375 28.21875 55.609375 21.1875 
Q 55.609375 10.40625 48.1875 4.484375 
Q 40.765625 -1.421875 27.09375 -1.421875 
Q 22.515625 -1.421875 17.65625 -0.515625 
Q 12.796875 0.390625 7.625 2.203125 
L 7.625 11.71875 
Q 11.71875 9.328125 16.59375 8.109375 
Q 21.484375 6.890625 26.8125 6.890625 
Q 36.078125 6.890625 40.9375 10.546875 
Q 45.796875 14.203125 45.796875 21.1875 
Q 45.796875 27.640625 41.28125 31.265625 
Q 36.765625 34.90625 28.71875 34.90625 
L 20.21875 34.90625 
L 20.21875 43.015625 
L 29.109375 43.015625 
Q 36.375 43.015625 40.234375 45.921875 
Q 44.09375 48.828125 44.09375 54.296875 
Q 44.09375 59.90625 40.109375 62.90625 
Q 36.140625 65.921875 28.71875 65.921875 
Q 24.65625 65.921875 20.015625 65.03125 
Q 15.375 64.15625 9.8125 62.3125 
L 9.8125 71.09375 
Q 15.4375 72.65625 20.34375 73.4375 
Q 25.25 74.21875 29.59375 74.21875 
Q 40.828125 74.21875 47.359375 69.109375 
Q 53.90625 64.015625 53.90625 55.328125 
Q 53.90625 49.265625 50.4375 45.09375 
Q 46.96875 40.921875 40.578125 39.3125 
z
" id="DejaVuSans-51"/>
      </defs>
      <g transform="translate(20.878125 112.194317)scale(0.1 -0.1)">
       <use xlink:href="#DejaVuSans-51"/>
       <use x="63.623047" xlink:href="#DejaVuSans-48"/>
       <use x="127.246094" xlink:href="#DejaVuSans-48"/>
       <use x="190.869141" xlink:href="#DejaVuSans-48"/>
      </g>
     </g>
    </g>
    <g id="ytick_5">
     <g id="line2d_11">
      <g>
       <use style="stroke:#000000;stroke-width:0.8;" x="53.328125" xlink:href="#m3eb8598092" y="68.274797"/>
      </g>
     </g>
     <g id="text_12">
      <!-- 4000 -->
      <g transform="translate(20.878125 72.074015)scale(0.1 -0.1)">
       <use xlink:href="#DejaVuSans-52"/>
       <use x="63.623047" xlink:href="#DejaVuSans-48"/>
       <use x="127.246094" xlink:href="#DejaVuSans-48"/>
       <use x="190.869141" xlink:href="#DejaVuSans-48"/>
      </g>
     </g>
    </g>
    <g id="ytick_6">
     <g id="line2d_12">
      <g>
       <use style="stroke:#000000;stroke-width:0.8;" x="53.328125" xlink:href="#m3eb8598092" y="28.154495"/>
      </g>
     </g>
     <g id="text_13">
      <!-- 5000 -->
      <defs>
       <path d="M 10.796875 72.90625 
L 49.515625 72.90625 
L 49.515625 64.59375 
L 19.828125 64.59375 
L 19.828125 46.734375 
Q 21.96875 47.46875 24.109375 47.828125 
Q 26.265625 48.1875 28.421875 48.1875 
Q 40.625 48.1875 47.75 41.5 
Q 54.890625 34.8125 54.890625 23.390625 
Q 54.890625 11.625 47.5625 5.09375 
Q 40.234375 -1.421875 26.90625 -1.421875 
Q 22.3125 -1.421875 17.546875 -0.640625 
Q 12.796875 0.140625 7.71875 1.703125 
L 7.71875 11.625 
Q 12.109375 9.234375 16.796875 8.0625 
Q 21.484375 6.890625 26.703125 6.890625 
Q 35.15625 6.890625 40.078125 11.328125 
Q 45.015625 15.765625 45.015625 23.390625 
Q 45.015625 31 40.078125 35.4375 
Q 35.15625 39.890625 26.703125 39.890625 
Q 22.75 39.890625 18.8125 39.015625 
Q 14.890625 38.140625 10.796875 36.28125 
z
" id="DejaVuSans-53"/>
      </defs>
      <g transform="translate(20.878125 31.953714)scale(0.1 -0.1)">
       <use xlink:href="#DejaVuSans-53"/>
       <use x="63.623047" xlink:href="#DejaVuSans-48"/>
       <use x="127.246094" xlink:href="#DejaVuSans-48"/>
       <use x="190.869141" xlink:href="#DejaVuSans-48"/>
      </g>
     </g>
    </g>
    <g id="text_14">
     <!-- noun freq. -->
     <defs>
      <path d="M 37.109375 75.984375 
L 37.109375 68.5 
L 28.515625 68.5 
Q 23.6875 68.5 21.796875 66.546875 
Q 19.921875 64.59375 19.921875 59.515625 
L 19.921875 54.6875 
L 34.71875 54.6875 
L 34.71875 47.703125 
L 19.921875 47.703125 
L 19.921875 0 
L 10.890625 0 
L 10.890625 47.703125 
L 2.296875 47.703125 
L 2.296875 54.6875 
L 10.890625 54.6875 
L 10.890625 58.5 
Q 10.890625 67.625 15.140625 71.796875 
Q 19.390625 75.984375 28.609375 75.984375 
z
" id="DejaVuSans-102"/>
      <path d="M 56.203125 29.59375 
L 56.203125 25.203125 
L 14.890625 25.203125 
Q 15.484375 15.921875 20.484375 11.0625 
Q 25.484375 6.203125 34.421875 6.203125 
Q 39.59375 6.203125 44.453125 7.46875 
Q 49.3125 8.734375 54.109375 11.28125 
L 54.109375 2.78125 
Q 49.265625 0.734375 44.1875 -0.34375 
Q 39.109375 -1.421875 33.890625 -1.421875 
Q 20.796875 -1.421875 13.15625 6.1875 
Q 5.515625 13.8125 5.515625 26.8125 
Q 5.515625 40.234375 12.765625 48.109375 
Q 20.015625 56 32.328125 56 
Q 43.359375 56 49.78125 48.890625 
Q 56.203125 41.796875 56.203125 29.59375 
z
M 47.21875 32.234375 
Q 47.125 39.59375 43.09375 43.984375 
Q 39.0625 48.390625 32.421875 48.390625 
Q 24.90625 48.390625 20.390625 44.140625 
Q 15.875 39.890625 15.1875 32.171875 
z
" id="DejaVuSans-101"/>
      <path d="M 14.796875 27.296875 
Q 14.796875 17.390625 18.875 11.75 
Q 22.953125 6.109375 30.078125 6.109375 
Q 37.203125 6.109375 41.296875 11.75 
Q 45.40625 17.390625 45.40625 27.296875 
Q 45.40625 37.203125 41.296875 42.84375 
Q 37.203125 48.484375 30.078125 48.484375 
Q 22.953125 48.484375 18.875 42.84375 
Q 14.796875 37.203125 14.796875 27.296875 
z
M 45.40625 8.203125 
Q 42.578125 3.328125 38.25 0.953125 
Q 33.9375 -1.421875 27.875 -1.421875 
Q 17.96875 -1.421875 11.734375 6.484375 
Q 5.515625 14.40625 5.515625 27.296875 
Q 5.515625 40.1875 11.734375 48.09375 
Q 17.96875 56 27.875 56 
Q 33.9375 56 38.25 53.625 
Q 42.578125 51.265625 45.40625 46.390625 
L 45.40625 54.6875 
L 54.390625 54.6875 
L 54.390625 -20.796875 
L 45.40625 -20.796875 
z
" id="DejaVuSans-113"/>
      <path d="M 10.6875 12.40625 
L 21 12.40625 
L 21 0 
L 10.6875 0 
z
" id="DejaVuSans-46"/>
     </defs>
     <g transform="translate(14.798438 155.327031)rotate(-90)scale(0.1 -0.1)">
      <use xlink:href="#DejaVuSans-110"/>
      <use x="63.378906" xlink:href="#DejaVuSans-111"/>
      <use x="124.560547" xlink:href="#DejaVuSans-117"/>
      <use x="187.939453" xlink:href="#DejaVuSans-110"/>
      <use x="251.318359" xlink:href="#DejaVuSans-32"/>
      <use x="283.105469" xlink:href="#DejaVuSans-102"/>
      <use x="318.310547" xlink:href="#DejaVuSans-114"/>
      <use x="359.392578" xlink:href="#DejaVuSans-101"/>
      <use x="420.916016" xlink:href="#DejaVuSans-113"/>
      <use x="484.392578" xlink:href="#DejaVuSans-46"/>
     </g>
    </g>
   </g>
   <g id="line2d_13">
    <path clip-path="url(#pab4cd28374)" d="M 64.857051 30.682074 
L 65.08786 124.403099 
L 65.318669 127.532483 
L 65.549479 128.294768 
L 66.011097 141.053024 
L 66.472716 145.987821 
L 67.857572 193.169296 
L 68.31919 194.092063 
L 68.55 196.659763 
L 69.242428 198.665778 
L 69.473237 200.431071 
L 69.704046 203.520334 
L 69.934856 204.643703 
L 70.165665 204.723943 
L 70.627284 205.405988 
L 70.858093 206.368876 
L 71.319712 206.569477 
L 71.550521 208.495252 
L 72.242949 209.257537 
L 72.473758 209.939583 
L 72.935377 211.825237 
L 73.627805 211.985718 
L 74.320233 212.667763 
L 74.551042 212.667763 
L 75.012661 213.149207 
L 75.24347 213.59053 
L 75.705089 213.670771 
L 75.935898 213.751011 
L 76.628326 215.275583 
L 76.859135 215.315703 
L 78.70561 216.800154 
L 78.936419 216.840275 
L 80.321275 217.763041 
L 80.782894 217.803162 
L 81.244512 217.923523 
L 81.475322 218.645688 
L 81.706131 218.645688 
L 81.93694 218.84629 
L 82.398559 218.92653 
L 82.629368 218.966651 
L 82.860178 219.127132 
L 83.090987 219.127132 
L 83.552606 219.327733 
L 83.783415 219.327733 
L 84.245034 219.568455 
L 84.937462 219.728936 
L 86.091508 219.929538 
L 86.322318 220.130139 
L 87.245555 220.29062 
L 87.476364 220.651703 
L 87.707173 220.731944 
L 87.937983 221.052906 
L 88.86122 221.133147 
L 89.322839 221.253508 
L 89.784457 221.333748 
L 90.246076 221.49423 
L 90.476885 221.694831 
L 90.707695 222.096034 
L 91.169313 222.176275 
L 91.861741 222.256515 
L 92.554169 222.457117 
L 92.784979 222.657718 
L 93.015788 222.657718 
L 93.477407 222.778079 
L 93.939025 222.93856 
L 94.400644 223.139162 
L 95.093072 223.179282 
L 95.55469 223.219402 
L 96.247118 223.379884 
L 96.939546 223.420004 
L 97.631974 223.660726 
L 98.324402 223.821207 
L 98.786021 223.861327 
L 99.24764 223.981688 
L 100.401686 224.061929 
L 100.863305 224.142169 
L 106.633538 225.064936 
L 108.249203 225.145177 
L 109.634059 225.305658 
L 110.326487 225.385899 
L 111.942152 225.5865 
L 113.788627 225.666741 
L 114.481055 225.706861 
L 116.558339 225.787102 
L 117.250767 225.827222 
L 119.097241 225.907463 
L 120.020479 225.987703 
L 121.174525 226.067944 
L 121.866953 226.108064 
L 123.021 226.148185 
L 123.482618 226.228425 
L 124.405856 226.308666 
L 126.944758 226.388906 
L 127.867995 226.469147 
L 130.637707 226.549388 
L 131.330135 226.589508 
L 134.330656 226.669748 
L 135.253894 226.749989 
L 140.10089 226.83023 
L 140.793317 226.87035 
L 144.024648 226.950591 
L 144.717076 226.990711 
L 149.794881 227.070951 
L 150.487309 227.111072 
L 154.872686 227.191312 
L 155.565114 227.231433 
L 162.258584 227.311673 
L 162.951012 227.351794 
L 168.952055 227.432034 
L 169.644483 227.472154 
L 179.569284 227.552395 
L 180.261711 227.592515 
L 187.878419 227.672756 
L 188.570847 227.712876 
L 197.80322 227.793117 
L 198.495648 227.833237 
L 212.575017 227.913478 
L 213.267444 227.953598 
L 226.654385 228.033839 
L 227.346813 228.073959 
L 250.427745 228.1542 
L 251.120173 228.19432 
L 279.048101 228.274561 
L 279.740529 228.314681 
L 295.435563 228.354801 
L 295.435563 228.354801 
" style="fill:none;stroke:#000000;stroke-linecap:square;"/>
   </g>
   <g id="line2d_14">
    <path clip-path="url(#pab4cd28374)" d="M 110.788106 238.238437 
L 110.788106 20.798437 
" style="fill:none;stroke:#ff0000;stroke-dasharray:2.96,1.28;stroke-dashoffset:0;stroke-width:0.8;"/>
   </g>
   <g id="patch_3">
    <path d="M 53.328125 238.238437 
L 53.328125 20.798437 
" style="fill:none;stroke:#000000;stroke-linecap:square;stroke-linejoin:miter;stroke-width:0.8;"/>
   </g>
   <g id="patch_4">
    <path d="M 306.964489 238.238437 
L 306.964489 20.798437 
" style="fill:none;stroke:#000000;stroke-linecap:square;stroke-linejoin:miter;stroke-width:0.8;"/>
   </g>
   <g id="patch_5">
    <path d="M 53.328125 238.238437 
L 306.964489 238.238437 
" style="fill:none;stroke:#000000;stroke-linecap:square;stroke-linejoin:miter;stroke-width:0.8;"/>
   </g>
   <g id="patch_6">
    <path d="M 53.328125 20.798437 
L 306.964489 20.798437 
" style="fill:none;stroke:#000000;stroke-linecap:square;stroke-linejoin:miter;stroke-width:0.8;"/>
   </g>
   <g id="text_15">
    <!-- raw frequencies -->
    <defs>
     <path d="M 4.203125 54.6875 
L 13.1875 54.6875 
L 24.421875 12.015625 
L 35.59375 54.6875 
L 46.1875 54.6875 
L 57.421875 12.015625 
L 68.609375 54.6875 
L 77.59375 54.6875 
L 63.28125 0 
L 52.6875 0 
L 40.921875 44.828125 
L 29.109375 0 
L 18.5 0 
z
" id="DejaVuSans-119"/>
     <path d="M 48.78125 52.59375 
L 48.78125 44.1875 
Q 44.96875 46.296875 41.140625 47.34375 
Q 37.3125 48.390625 33.40625 48.390625 
Q 24.65625 48.390625 19.8125 42.84375 
Q 14.984375 37.3125 14.984375 27.296875 
Q 14.984375 17.28125 19.8125 11.734375 
Q 24.65625 6.203125 33.40625 6.203125 
Q 37.3125 6.203125 41.140625 7.25 
Q 44.96875 8.296875 48.78125 10.40625 
L 48.78125 2.09375 
Q 45.015625 0.34375 40.984375 -0.53125 
Q 36.96875 -1.421875 32.421875 -1.421875 
Q 20.0625 -1.421875 12.78125 6.34375 
Q 5.515625 14.109375 5.515625 27.296875 
Q 5.515625 40.671875 12.859375 48.328125 
Q 20.21875 56 33.015625 56 
Q 37.15625 56 41.109375 55.140625 
Q 45.0625 54.296875 48.78125 52.59375 
z
" id="DejaVuSans-99"/>
     <path d="M 9.421875 54.6875 
L 18.40625 54.6875 
L 18.40625 0 
L 9.421875 0 
z
M 9.421875 75.984375 
L 18.40625 75.984375 
L 18.40625 64.59375 
L 9.421875 64.59375 
z
" id="DejaVuSans-105"/>
     <path d="M 44.28125 53.078125 
L 44.28125 44.578125 
Q 40.484375 46.53125 36.375 47.5 
Q 32.28125 48.484375 27.875 48.484375 
Q 21.1875 48.484375 17.84375 46.4375 
Q 14.5 44.390625 14.5 40.28125 
Q 14.5 37.15625 16.890625 35.375 
Q 19.28125 33.59375 26.515625 31.984375 
L 29.59375 31.296875 
Q 39.15625 29.25 43.1875 25.515625 
Q 47.21875 21.78125 47.21875 15.09375 
Q 47.21875 7.46875 41.1875 3.015625 
Q 35.15625 -1.421875 24.609375 -1.421875 
Q 20.21875 -1.421875 15.453125 -0.5625 
Q 10.6875 0.296875 5.421875 2 
L 5.421875 11.28125 
Q 10.40625 8.6875 15.234375 7.390625 
Q 20.0625 6.109375 24.8125 6.109375 
Q 31.15625 6.109375 34.5625 8.28125 
Q 37.984375 10.453125 37.984375 14.40625 
Q 37.984375 18.0625 35.515625 20.015625 
Q 33.0625 21.96875 24.703125 23.78125 
L 21.578125 24.515625 
Q 13.234375 26.265625 9.515625 29.90625 
Q 5.8125 33.546875 5.8125 39.890625 
Q 5.8125 47.609375 11.28125 51.796875 
Q 16.75 56 26.8125 56 
Q 31.78125 56 36.171875 55.265625 
Q 40.578125 54.546875 44.28125 53.078125 
z
" id="DejaVuSans-115"/>
    </defs>
    <g transform="translate(140.050213 14.798437)scale(0.1 -0.1)">
     <use xlink:href="#DejaVuSans-114"/>
     <use x="41.113281" xlink:href="#DejaVuSans-97"/>
     <use x="102.392578" xlink:href="#DejaVuSans-119"/>
     <use x="184.179688" xlink:href="#DejaVuSans-32"/>
     <use x="215.966797" xlink:href="#DejaVuSans-102"/>
     <use x="251.171875" xlink:href="#DejaVuSans-114"/>
     <use x="292.253906" xlink:href="#DejaVuSans-101"/>
     <use x="353.777344" xlink:href="#DejaVuSans-113"/>
     <use x="417.253906" xlink:href="#DejaVuSans-117"/>
     <use x="480.632812" xlink:href="#DejaVuSans-101"/>
     <use x="542.15625" xlink:href="#DejaVuSans-110"/>
     <use x="605.535156" xlink:href="#DejaVuSans-99"/>
     <use x="660.515625" xlink:href="#DejaVuSans-105"/>
     <use x="688.298828" xlink:href="#DejaVuSans-101"/>
     <use x="749.822266" xlink:href="#DejaVuSans-115"/>
    </g>
   </g>
  </g>
  <g id="axes_2">
   <g id="patch_7">
    <path d="M 357.691761 238.238437 
L 611.328125 238.238437 
L 611.328125 20.798437 
L 357.691761 20.798437 
z
" style="fill:#ffffff;"/>
   </g>
   <g id="matplotlib.axis_3">
    <g id="xtick_7">
     <g id="line2d_15">
      <g>
       <use style="stroke:#000000;stroke-width:0.8;" x="369.220687" xlink:href="#mcc5437f633" y="238.238437"/>
      </g>
     </g>
     <g id="text_16">
      <!-- 0 -->
      <g transform="translate(366.039437 252.836875)scale(0.1 -0.1)">
       <use xlink:href="#DejaVuSans-48"/>
      </g>
     </g>
    </g>
    <g id="xtick_8">
     <g id="line2d_16">
      <g>
       <use style="stroke:#000000;stroke-width:0.8;" x="402.600346" xlink:href="#mcc5437f633" y="238.238437"/>
      </g>
     </g>
     <g id="text_17">
      <!-- 1 -->
      <g transform="translate(399.419096 252.836875)scale(0.1 -0.1)">
       <use xlink:href="#DejaVuSans-49"/>
      </g>
     </g>
    </g>
    <g id="xtick_9">
     <g id="line2d_17">
      <g>
       <use style="stroke:#000000;stroke-width:0.8;" x="435.980004" xlink:href="#mcc5437f633" y="238.238437"/>
      </g>
     </g>
     <g id="text_18">
      <!-- 2 -->
      <g transform="translate(432.798754 252.836875)scale(0.1 -0.1)">
       <use xlink:href="#DejaVuSans-50"/>
      </g>
     </g>
    </g>
    <g id="xtick_10">
     <g id="line2d_18">
      <g>
       <use style="stroke:#000000;stroke-width:0.8;" x="469.359663" xlink:href="#mcc5437f633" y="238.238437"/>
      </g>
     </g>
     <g id="text_19">
      <!-- 3 -->
      <g transform="translate(466.178413 252.836875)scale(0.1 -0.1)">
       <use xlink:href="#DejaVuSans-51"/>
      </g>
     </g>
    </g>
    <g id="xtick_11">
     <g id="line2d_19">
      <g>
       <use style="stroke:#000000;stroke-width:0.8;" x="502.739321" xlink:href="#mcc5437f633" y="238.238437"/>
      </g>
     </g>
     <g id="text_20">
      <!-- 4 -->
      <g transform="translate(499.558071 252.836875)scale(0.1 -0.1)">
       <use xlink:href="#DejaVuSans-52"/>
      </g>
     </g>
    </g>
    <g id="xtick_12">
     <g id="line2d_20">
      <g>
       <use style="stroke:#000000;stroke-width:0.8;" x="536.11898" xlink:href="#mcc5437f633" y="238.238437"/>
      </g>
     </g>
     <g id="text_21">
      <!-- 5 -->
      <g transform="translate(532.93773 252.836875)scale(0.1 -0.1)">
       <use xlink:href="#DejaVuSans-53"/>
      </g>
     </g>
    </g>
    <g id="xtick_13">
     <g id="line2d_21">
      <g>
       <use style="stroke:#000000;stroke-width:0.8;" x="569.498638" xlink:href="#mcc5437f633" y="238.238437"/>
      </g>
     </g>
     <g id="text_22">
      <!-- 6 -->
      <g transform="translate(566.317388 252.836875)scale(0.1 -0.1)">
       <use xlink:href="#DejaVuSans-54"/>
      </g>
     </g>
    </g>
    <g id="xtick_14">
     <g id="line2d_22">
      <g>
       <use style="stroke:#000000;stroke-width:0.8;" x="602.878297" xlink:href="#mcc5437f633" y="238.238437"/>
      </g>
     </g>
     <g id="text_23">
      <!-- 7 -->
      <defs>
       <path d="M 8.203125 72.90625 
L 55.078125 72.90625 
L 55.078125 68.703125 
L 28.609375 0 
L 18.3125 0 
L 43.21875 64.59375 
L 8.203125 64.59375 
z
" id="DejaVuSans-55"/>
      </defs>
      <g transform="translate(599.697047 252.836875)scale(0.1 -0.1)">
       <use xlink:href="#DejaVuSans-55"/>
      </g>
     </g>
    </g>
    <g id="text_24">
     <!-- log noun rank -->
     <defs>
      <path d="M 9.421875 75.984375 
L 18.40625 75.984375 
L 18.40625 0 
L 9.421875 0 
z
" id="DejaVuSans-108"/>
      <path d="M 45.40625 27.984375 
Q 45.40625 37.75 41.375 43.109375 
Q 37.359375 48.484375 30.078125 48.484375 
Q 22.859375 48.484375 18.828125 43.109375 
Q 14.796875 37.75 14.796875 27.984375 
Q 14.796875 18.265625 18.828125 12.890625 
Q 22.859375 7.515625 30.078125 7.515625 
Q 37.359375 7.515625 41.375 12.890625 
Q 45.40625 18.265625 45.40625 27.984375 
z
M 54.390625 6.78125 
Q 54.390625 -7.171875 48.1875 -13.984375 
Q 42 -20.796875 29.203125 -20.796875 
Q 24.46875 -20.796875 20.265625 -20.09375 
Q 16.0625 -19.390625 12.109375 -17.921875 
L 12.109375 -9.1875 
Q 16.0625 -11.328125 19.921875 -12.34375 
Q 23.78125 -13.375 27.78125 -13.375 
Q 36.625 -13.375 41.015625 -8.765625 
Q 45.40625 -4.15625 45.40625 5.171875 
L 45.40625 9.625 
Q 42.625 4.78125 38.28125 2.390625 
Q 33.9375 0 27.875 0 
Q 17.828125 0 11.671875 7.65625 
Q 5.515625 15.328125 5.515625 27.984375 
Q 5.515625 40.671875 11.671875 48.328125 
Q 17.828125 56 27.875 56 
Q 33.9375 56 38.28125 53.609375 
Q 42.625 51.21875 45.40625 46.390625 
L 45.40625 54.6875 
L 54.390625 54.6875 
z
" id="DejaVuSans-103"/>
     </defs>
     <g transform="translate(449.959943 266.515)scale(0.1 -0.1)">
      <use xlink:href="#DejaVuSans-108"/>
      <use x="27.783203" xlink:href="#DejaVuSans-111"/>
      <use x="88.964844" xlink:href="#DejaVuSans-103"/>
      <use x="152.441406" xlink:href="#DejaVuSans-32"/>
      <use x="184.228516" xlink:href="#DejaVuSans-110"/>
      <use x="247.607422" xlink:href="#DejaVuSans-111"/>
      <use x="308.789062" xlink:href="#DejaVuSans-117"/>
      <use x="372.167969" xlink:href="#DejaVuSans-110"/>
      <use x="435.546875" xlink:href="#DejaVuSans-32"/>
      <use x="467.333984" xlink:href="#DejaVuSans-114"/>
      <use x="508.447266" xlink:href="#DejaVuSans-97"/>
      <use x="569.726562" xlink:href="#DejaVuSans-110"/>
      <use x="633.105469" xlink:href="#DejaVuSans-107"/>
     </g>
    </g>
   </g>
   <g id="matplotlib.axis_4">
    <g id="ytick_7">
     <g id="line2d_23">
      <g>
       <use style="stroke:#000000;stroke-width:0.8;" x="357.691761" xlink:href="#m3eb8598092" y="237.999031"/>
      </g>
     </g>
     <g id="text_25">
      <!-- 2 -->
      <g transform="translate(344.329261 241.79825)scale(0.1 -0.1)">
       <use xlink:href="#DejaVuSans-50"/>
      </g>
     </g>
    </g>
    <g id="ytick_8">
     <g id="line2d_24">
      <g>
       <use style="stroke:#000000;stroke-width:0.8;" x="357.691761" xlink:href="#m3eb8598092" y="206.126245"/>
      </g>
     </g>
     <g id="text_26">
      <!-- 3 -->
      <g transform="translate(344.329261 209.925464)scale(0.1 -0.1)">
       <use xlink:href="#DejaVuSans-51"/>
      </g>
     </g>
    </g>
    <g id="ytick_9">
     <g id="line2d_25">
      <g>
       <use style="stroke:#000000;stroke-width:0.8;" x="357.691761" xlink:href="#m3eb8598092" y="174.253459"/>
      </g>
     </g>
     <g id="text_27">
      <!-- 4 -->
      <g transform="translate(344.329261 178.052677)scale(0.1 -0.1)">
       <use xlink:href="#DejaVuSans-52"/>
      </g>
     </g>
    </g>
    <g id="ytick_10">
     <g id="line2d_26">
      <g>
       <use style="stroke:#000000;stroke-width:0.8;" x="357.691761" xlink:href="#m3eb8598092" y="142.380672"/>
      </g>
     </g>
     <g id="text_28">
      <!-- 5 -->
      <g transform="translate(344.329261 146.179891)scale(0.1 -0.1)">
       <use xlink:href="#DejaVuSans-53"/>
      </g>
     </g>
    </g>
    <g id="ytick_11">
     <g id="line2d_27">
      <g>
       <use style="stroke:#000000;stroke-width:0.8;" x="357.691761" xlink:href="#m3eb8598092" y="110.507886"/>
      </g>
     </g>
     <g id="text_29">
      <!-- 6 -->
      <g transform="translate(344.329261 114.307105)scale(0.1 -0.1)">
       <use xlink:href="#DejaVuSans-54"/>
      </g>
     </g>
    </g>
    <g id="ytick_12">
     <g id="line2d_28">
      <g>
       <use style="stroke:#000000;stroke-width:0.8;" x="357.691761" xlink:href="#m3eb8598092" y="78.6351"/>
      </g>
     </g>
     <g id="text_30">
      <!-- 7 -->
      <g transform="translate(344.329261 82.434318)scale(0.1 -0.1)">
       <use xlink:href="#DejaVuSans-55"/>
      </g>
     </g>
    </g>
    <g id="ytick_13">
     <g id="line2d_29">
      <g>
       <use style="stroke:#000000;stroke-width:0.8;" x="357.691761" xlink:href="#m3eb8598092" y="46.762313"/>
      </g>
     </g>
     <g id="text_31">
      <!-- 8 -->
      <g transform="translate(344.329261 50.561532)scale(0.1 -0.1)">
       <use xlink:href="#DejaVuSans-56"/>
      </g>
     </g>
    </g>
    <g id="text_32">
     <!-- log noun freq. -->
     <g transform="translate(338.249574 164.53875)rotate(-90)scale(0.1 -0.1)">
      <use xlink:href="#DejaVuSans-108"/>
      <use x="27.783203" xlink:href="#DejaVuSans-111"/>
      <use x="88.964844" xlink:href="#DejaVuSans-103"/>
      <use x="152.441406" xlink:href="#DejaVuSans-32"/>
      <use x="184.228516" xlink:href="#DejaVuSans-110"/>
      <use x="247.607422" xlink:href="#DejaVuSans-111"/>
      <use x="308.789062" xlink:href="#DejaVuSans-117"/>
      <use x="372.167969" xlink:href="#DejaVuSans-110"/>
      <use x="435.546875" xlink:href="#DejaVuSans-32"/>
      <use x="467.333984" xlink:href="#DejaVuSans-102"/>
      <use x="502.539062" xlink:href="#DejaVuSans-114"/>
      <use x="543.621094" xlink:href="#DejaVuSans-101"/>
      <use x="605.144531" xlink:href="#DejaVuSans-113"/>
      <use x="668.621094" xlink:href="#DejaVuSans-46"/>
     </g>
    </g>
   </g>
   <g id="line2d_30">
    <path clip-path="url(#pf24853a9a1)" d="M 369.220687 30.682074 
L 392.357703 51.108127 
L 405.89199 52.078568 
L 415.494719 52.319501 
L 422.943175 54.972679 
L 429.029006 56.648338 
L 434.174503 57.520405 
L 438.631736 58.49416 
L 442.563293 61.693044 
L 446.080191 66.238304 
L 449.261612 69.930878 
L 452.166022 75.315737 
L 454.837821 78.828473 
L 457.311519 85.397071 
L 461.768752 86.23444 
L 463.792381 88.687403 
L 465.700309 89.453515 
L 467.505055 90.574889 
L 469.217207 90.744425 
L 470.845806 92.671389 
L 472.398629 96.352185 
L 473.882413 97.803555 
L 475.303039 97.909797 
L 476.665663 98.500548 
L 477.974837 98.827452 
L 479.234596 100.169662 
L 481.619872 100.456548 
L 482.751494 103.350583 
L 485.932915 104.572898 
L 486.929397 105.707756 
L 487.896991 107.88734 
L 488.837325 109.073441 
L 491.509124 109.376994 
L 492.354224 109.837813 
L 493.178454 110.541781 
L 493.982823 110.700352 
L 494.768262 110.700352 
L 495.535645 111.100267 
L 496.285781 111.668714 
L 497.019429 112.582989 
L 497.737299 112.582989 
L 499.12832 112.922065 
L 501.111853 116.337063 
L 501.747675 116.432064 
L 504.176358 118.394085 
L 504.756888 118.597097 
L 505.327494 119.110358 
L 505.88851 119.949164 
L 506.983023 120.269496 
L 507.517109 120.701676 
L 508.042784 121.472385 
L 508.560309 121.696055 
L 509.069932 121.696055 
L 509.571891 122.491496 
L 510.066413 122.838571 
L 510.553716 122.838571 
L 511.034007 122.955108 
L 511.507486 123.307297 
L 511.974342 123.307297 
L 512.434758 125.506292 
L 512.88891 125.506292 
L 513.336966 126.145047 
L 513.779087 126.145047 
L 514.64614 126.534536 
L 515.071364 127.061371 
L 515.49124 127.061371 
L 516.315471 127.732401 
L 516.720078 127.732401 
L 517.119839 128.279587 
L 517.905279 128.836331 
L 518.291175 128.836331 
L 519.049836 129.260366 
L 519.422797 129.402973 
L 519.791637 129.402973 
L 520.156446 129.834666 
L 520.51731 129.834666 
L 520.874315 130.567406 
L 521.227543 130.715997 
L 521.577071 130.715997 
L 521.922977 130.865284 
L 522.265336 131.165973 
L 522.604218 132.555322 
L 522.939695 132.872467 
L 523.271834 134.173577 
L 523.6007 134.173577 
L 524.248869 134.507327 
L 524.568294 134.507327 
L 524.884692 134.844608 
L 525.198118 135.014597 
L 525.508629 135.014597 
L 526.423197 136.054019 
L 526.722568 136.946872 
L 527.019278 138.811309 
L 527.313374 139.197651 
L 527.893904 139.197651 
L 528.746197 139.786088 
L 529.302538 140.587962 
L 529.577269 141.619533 
L 529.849758 141.619533 
L 530.12004 142.254892 
L 530.388151 142.254892 
L 530.654126 142.469525 
L 531.439566 144.240691 
L 531.697325 144.469171 
L 532.458871 144.469171 
L 532.708907 144.6993 
L 533.20343 145.399829 
L 533.44797 145.636802 
L 533.690732 145.636802 
L 533.931742 145.875551 
L 534.171024 145.875551 
L 534.408602 146.602718 
L 534.644502 146.848842 
L 535.111358 147.852792 
L 535.34236 147.852792 
L 535.571774 148.36688 
L 535.799623 148.36688 
L 536.025926 148.627068 
L 536.250706 149.420622 
L 536.916103 149.420622 
L 537.352445 149.960852 
L 537.568495 149.960852 
L 537.783156 150.510396 
L 537.996445 150.510396 
L 538.20838 150.788763 
L 538.418978 150.788763 
L 539.042915 151.638754 
L 539.248329 151.638754 
L 539.655403 152.218275 
L 540.256855 153.714925 
L 540.454954 153.714925 
L 540.651885 154.022877 
L 540.847661 154.022877 
L 541.042295 154.647854 
L 541.235801 154.647854 
L 541.619479 155.285331 
L 541.809677 156.266109 
L 542.373854 157.278029 
L 542.744743 157.278029 
L 542.928653 157.622603 
L 543.474382 157.622603 
L 543.654326 157.970943 
L 544.011332 157.970943 
L 544.714087 159.403669 
L 545.059993 159.403669 
L 545.231612 159.772144 
L 545.402352 159.772144 
L 545.572223 160.522127 
L 545.741235 160.522127 
L 545.909395 160.903841 
L 546.076711 162.077205 
L 546.40885 162.077205 
L 546.573688 162.478126 
L 547.063374 162.478126 
L 547.225019 162.884154 
L 547.70531 162.884154 
L 547.863884 163.295422 
L 548.178789 163.295422 
L 548.335134 163.712065 
L 548.953294 163.712065 
L 549.106061 164.134228 
L 549.258133 164.134228 
L 549.409515 164.562057 
L 550.008269 164.562057 
L 550.156294 164.995707 
L 550.596472 164.995707 
L 550.741917 165.435338 
L 551.030921 165.435338 
L 551.174489 165.881119 
L 551.601527 165.881119 
L 551.883213 166.791832 
L 552.301336 166.791832 
L 552.577202 167.729334 
L 552.850808 167.729334 
L 552.986774 168.208633 
L 553.391381 168.208633 
L 553.525167 168.69525 
L 553.923339 168.69525 
L 554.055014 169.691356 
L 554.186172 169.691356 
L 554.316817 170.201331 
L 554.576582 170.201331 
L 554.70571 170.7196 
L 555.090125 170.7196 
L 555.217286 171.246434 
L 555.845923 171.246434 
L 555.970242 171.782124 
L 556.0941 171.782124 
L 556.2175 172.326971 
L 556.46294 172.326971 
L 556.584986 172.881295 
L 557.068758 172.881295 
L 557.188613 173.44543 
L 557.545618 173.44543 
L 557.663777 174.019729 
L 558.015762 174.019729 
L 558.132271 174.604568 
L 558.822909 174.604568 
L 558.936639 175.200338 
L 559.610998 175.200338 
L 559.943137 176.426366 
L 560.162741 176.426366 
L 560.489461 177.701447 
L 561.765272 177.701447 
L 561.973246 178.358641 
L 562.48758 178.358641 
L 562.691116 179.029672 
L 563.194589 179.029672 
L 563.393871 179.715135 
L 563.788901 179.715135 
L 563.984677 180.415664 
L 564.179311 180.415664 
L 564.372817 181.131936 
L 564.756495 181.131936 
L 564.946693 181.864676 
L 565.69683 181.864676 
L 565.881759 182.614659 
L 566.521061 182.614659 
L 566.701492 183.382715 
L 567.148348 183.382715 
L 567.325429 184.169737 
L 567.676797 184.169737 
L 567.851103 184.976686 
L 568.454107 184.976686 
L 568.624412 185.804597 
L 569.545866 185.804597 
L 569.710704 186.654589 
L 570.119273 186.654589 
L 570.281311 187.52787 
L 571.079905 187.52787 
L 571.237357 188.425755 
L 571.93684 188.425755 
L 572.09031 189.349668 
L 572.546531 189.349668 
L 572.697229 190.301165 
L 573.29331 190.301165 
L 573.440682 191.281944 
L 574.596803 191.281944 
L 574.738543 192.293863 
L 575.645465 192.293863 
L 575.78283 193.338966 
L 576.528397 193.338966 
L 576.662183 194.419503 
L 577.19203 194.419503 
L 577.323188 195.537961 
L 578.163379 195.537961 
L 578.290782 196.6971 
L 578.858155 196.6971 
L 578.982939 197.899989 
L 579.538765 197.899989 
L 579.661035 199.150062 
L 580.623398 199.150062 
L 580.741766 200.451173 
L 581.443291 200.451173 
L 581.558791 201.807667 
L 582.748014 201.807667 
L 582.914497 203.224468 
L 584.057189 203.224468 
L 584.217283 204.707191 
L 584.954403 204.707191 
L 585.110262 206.262269 
L 585.675597 206.262269 
L 585.828132 207.897129 
L 586.974969 207.897129 
L 587.121693 209.620402 
L 587.988746 209.620402 
L 588.13109 211.4422 
L 589.883464 211.4422 
L 590.017969 213.374476 
L 591.505644 213.374476 
L 591.633781 215.431498 
L 592.558717 215.431498 
L 592.682882 217.630493 
L 594.098344 217.630493 
L 594.216921 219.992521 
L 595.758981 219.992521 
L 595.871814 222.543705 
L 597.340903 222.543705 
L 597.484317 225.317 
L 599.022501 225.317 
L 599.158883 228.354801 
L 599.799199 228.354801 
L 599.799199 228.354801 
" style="fill:none;stroke:#000000;stroke-linecap:square;"/>
   </g>
   <g id="patch_8">
    <path d="M 357.691761 238.238437 
L 357.691761 20.798437 
" style="fill:none;stroke:#000000;stroke-linecap:square;stroke-linejoin:miter;stroke-width:0.8;"/>
   </g>
   <g id="patch_9">
    <path d="M 611.328125 238.238437 
L 611.328125 20.798437 
" style="fill:none;stroke:#000000;stroke-linecap:square;stroke-linejoin:miter;stroke-width:0.8;"/>
   </g>
   <g id="patch_10">
    <path d="M 357.691761 238.238437 
L 611.328125 238.238437 
" style="fill:none;stroke:#000000;stroke-linecap:square;stroke-linejoin:miter;stroke-width:0.8;"/>
   </g>
   <g id="patch_11">
    <path d="M 357.691761 20.798437 
L 611.328125 20.798437 
" style="fill:none;stroke:#000000;stroke-linecap:square;stroke-linejoin:miter;stroke-width:0.8;"/>
   </g>
   <g id="text_33">
    <!-- log frequencies -->
    <g transform="translate(445.999787 14.798437)scale(0.1 -0.1)">
     <use xlink:href="#DejaVuSans-108"/>
     <use x="27.783203" xlink:href="#DejaVuSans-111"/>
     <use x="88.964844" xlink:href="#DejaVuSans-103"/>
     <use x="152.441406" xlink:href="#DejaVuSans-32"/>
     <use x="184.228516" xlink:href="#DejaVuSans-102"/>
     <use x="219.433594" xlink:href="#DejaVuSans-114"/>
     <use x="260.515625" xlink:href="#DejaVuSans-101"/>
     <use x="322.039062" xlink:href="#DejaVuSans-113"/>
     <use x="385.515625" xlink:href="#DejaVuSans-117"/>
     <use x="448.894531" xlink:href="#DejaVuSans-101"/>
     <use x="510.417969" xlink:href="#DejaVuSans-110"/>
     <use x="573.796875" xlink:href="#DejaVuSans-99"/>
     <use x="628.777344" xlink:href="#DejaVuSans-105"/>
     <use x="656.560547" xlink:href="#DejaVuSans-101"/>
     <use x="718.083984" xlink:href="#DejaVuSans-115"/>
    </g>
   </g>
  </g>
 </g>
 <defs>
  <clipPath id="pab4cd28374">
   <rect height="217.44" width="253.636364" x="53.328125" y="20.798437"/>
  </clipPath>
  <clipPath id="pf24853a9a1">
   <rect height="217.44" width="253.636364" x="357.691761" y="20.798437"/>
  </clipPath>
 </defs>
</svg>
