<?xml version="1.0" encoding="utf-8" standalone="no"?>
<!DOCTYPE svg PUBLIC "-//W3C//DTD SVG 1.1//EN"
  "http://www.w3.org/Graphics/SVG/1.1/DTD/svg11.dtd">
<!-- Created with matplotlib (https://matplotlib.org/) -->
<svg height="468.645239pt" version="1.1" viewBox="0 0 482.542187 468.645239" width="482.542187pt" xmlns="http://www.w3.org/2000/svg" xmlns:xlink="http://www.w3.org/1999/xlink">
 <defs>
  <style type="text/css">
*{stroke-linecap:butt;stroke-linejoin:round;}
  </style>
 </defs>
 <g id="figure_1">
  <g id="patch_1">
   <path d="M 0 468.645239 
L 482.542187 468.645239 
L 482.542187 0 
L 0 0 
z
" style="fill:#ffffff;"/>
  </g>
  <g id="axes_1">
   <g id="patch_2">
    <path d="M 28.942188 444.767114 
L 475.342187 444.767114 
L 475.342187 9.887114 
L 28.942188 9.887114 
z
" style="fill:#ffffff;"/>
   </g>
   <g id="PathCollection_1"/>
   <g id="matplotlib.axis_1">
    <g id="xtick_1">
     <g id="line2d_1">
      <defs>
       <path d="M 0 0 
L 0 3.5 
" id="mc6d5ee90ec" style="stroke:#000000;stroke-width:0.8;"/>
      </defs>
      <g>
       <use style="stroke:#000000;stroke-width:0.8;" x="36.732128" xlink:href="#mc6d5ee90ec" y="444.767114"/>
      </g>
     </g>
     <g id="text_1">
      <!-- −6 -->
      <defs>
       <path d="M 10.59375 35.5 
L 73.1875 35.5 
L 73.1875 27.203125 
L 10.59375 27.203125 
z
" id="DejaVuSans-8722"/>
       <path d="M 33.015625 40.375 
Q 26.375 40.375 22.484375 35.828125 
Q 18.609375 31.296875 18.609375 23.390625 
Q 18.609375 15.53125 22.484375 10.953125 
Q 26.375 6.390625 33.015625 6.390625 
Q 39.65625 6.390625 43.53125 10.953125 
Q 47.40625 15.53125 47.40625 23.390625 
Q 47.40625 31.296875 43.53125 35.828125 
Q 39.65625 40.375 33.015625 40.375 
z
M 52.59375 71.296875 
L 52.59375 62.3125 
Q 48.875 64.0625 45.09375 64.984375 
Q 41.3125 65.921875 37.59375 65.921875 
Q 27.828125 65.921875 22.671875 59.328125 
Q 17.53125 52.734375 16.796875 39.40625 
Q 19.671875 43.65625 24.015625 45.921875 
Q 28.375 48.1875 33.59375 48.1875 
Q 44.578125 48.1875 50.953125 41.515625 
Q 57.328125 34.859375 57.328125 23.390625 
Q 57.328125 12.15625 50.6875 5.359375 
Q 44.046875 -1.421875 33.015625 -1.421875 
Q 20.359375 -1.421875 13.671875 8.265625 
Q 6.984375 17.96875 6.984375 36.375 
Q 6.984375 53.65625 15.1875 63.9375 
Q 23.390625 74.21875 37.203125 74.21875 
Q 40.921875 74.21875 44.703125 73.484375 
Q 48.484375 72.75 52.59375 71.296875 
z
" id="DejaVuSans-54"/>
      </defs>
      <g transform="translate(29.361034 459.365552)scale(0.1 -0.1)">
       <use xlink:href="#DejaVuSans-8722"/>
       <use x="83.789062" xlink:href="#DejaVuSans-54"/>
      </g>
     </g>
    </g>
    <g id="xtick_2">
     <g id="line2d_2">
      <g>
       <use style="stroke:#000000;stroke-width:0.8;" x="86.771137" xlink:href="#mc6d5ee90ec" y="444.767114"/>
      </g>
     </g>
     <g id="text_2">
      <!-- −4 -->
      <defs>
       <path d="M 37.796875 64.3125 
L 12.890625 25.390625 
L 37.796875 25.390625 
z
M 35.203125 72.90625 
L 47.609375 72.90625 
L 47.609375 25.390625 
L 58.015625 25.390625 
L 58.015625 17.1875 
L 47.609375 17.1875 
L 47.609375 0 
L 37.796875 0 
L 37.796875 17.1875 
L 4.890625 17.1875 
L 4.890625 26.703125 
z
" id="DejaVuSans-52"/>
      </defs>
      <g transform="translate(79.400044 459.365552)scale(0.1 -0.1)">
       <use xlink:href="#DejaVuSans-8722"/>
       <use x="83.789062" xlink:href="#DejaVuSans-52"/>
      </g>
     </g>
    </g>
    <g id="xtick_3">
     <g id="line2d_3">
      <g>
       <use style="stroke:#000000;stroke-width:0.8;" x="136.810147" xlink:href="#mc6d5ee90ec" y="444.767114"/>
      </g>
     </g>
     <g id="text_3">
      <!-- −2 -->
      <defs>
       <path d="M 19.1875 8.296875 
L 53.609375 8.296875 
L 53.609375 0 
L 7.328125 0 
L 7.328125 8.296875 
Q 12.9375 14.109375 22.625 23.890625 
Q 32.328125 33.6875 34.8125 36.53125 
Q 39.546875 41.84375 41.421875 45.53125 
Q 43.3125 49.21875 43.3125 52.78125 
Q 43.3125 58.59375 39.234375 62.25 
Q 35.15625 65.921875 28.609375 65.921875 
Q 23.96875 65.921875 18.8125 64.3125 
Q 13.671875 62.703125 7.8125 59.421875 
L 7.8125 69.390625 
Q 13.765625 71.78125 18.9375 73 
Q 24.125 74.21875 28.421875 74.21875 
Q 39.75 74.21875 46.484375 68.546875 
Q 53.21875 62.890625 53.21875 53.421875 
Q 53.21875 48.921875 51.53125 44.890625 
Q 49.859375 40.875 45.40625 35.40625 
Q 44.1875 33.984375 37.640625 27.21875 
Q 31.109375 20.453125 19.1875 8.296875 
z
" id="DejaVuSans-50"/>
      </defs>
      <g transform="translate(129.439053 459.365552)scale(0.1 -0.1)">
       <use xlink:href="#DejaVuSans-8722"/>
       <use x="83.789062" xlink:href="#DejaVuSans-50"/>
      </g>
     </g>
    </g>
    <g id="xtick_4">
     <g id="line2d_4">
      <g>
       <use style="stroke:#000000;stroke-width:0.8;" x="186.849156" xlink:href="#mc6d5ee90ec" y="444.767114"/>
      </g>
     </g>
     <g id="text_4">
      <!-- 0 -->
      <defs>
       <path d="M 31.78125 66.40625 
Q 24.171875 66.40625 20.328125 58.90625 
Q 16.5 51.421875 16.5 36.375 
Q 16.5 21.390625 20.328125 13.890625 
Q 24.171875 6.390625 31.78125 6.390625 
Q 39.453125 6.390625 43.28125 13.890625 
Q 47.125 21.390625 47.125 36.375 
Q 47.125 51.421875 43.28125 58.90625 
Q 39.453125 66.40625 31.78125 66.40625 
z
M 31.78125 74.21875 
Q 44.046875 74.21875 50.515625 64.515625 
Q 56.984375 54.828125 56.984375 36.375 
Q 56.984375 17.96875 50.515625 8.265625 
Q 44.046875 -1.421875 31.78125 -1.421875 
Q 19.53125 -1.421875 13.0625 8.265625 
Q 6.59375 17.96875 6.59375 36.375 
Q 6.59375 54.828125 13.0625 64.515625 
Q 19.53125 74.21875 31.78125 74.21875 
z
" id="DejaVuSans-48"/>
      </defs>
      <g transform="translate(183.667906 459.365552)scale(0.1 -0.1)">
       <use xlink:href="#DejaVuSans-48"/>
      </g>
     </g>
    </g>
    <g id="xtick_5">
     <g id="line2d_5">
      <g>
       <use style="stroke:#000000;stroke-width:0.8;" x="236.888165" xlink:href="#mc6d5ee90ec" y="444.767114"/>
      </g>
     </g>
     <g id="text_5">
      <!-- 2 -->
      <g transform="translate(233.706915 459.365552)scale(0.1 -0.1)">
       <use xlink:href="#DejaVuSans-50"/>
      </g>
     </g>
    </g>
    <g id="xtick_6">
     <g id="line2d_6">
      <g>
       <use style="stroke:#000000;stroke-width:0.8;" x="286.927175" xlink:href="#mc6d5ee90ec" y="444.767114"/>
      </g>
     </g>
     <g id="text_6">
      <!-- 4 -->
      <g transform="translate(283.745925 459.365552)scale(0.1 -0.1)">
       <use xlink:href="#DejaVuSans-52"/>
      </g>
     </g>
    </g>
    <g id="xtick_7">
     <g id="line2d_7">
      <g>
       <use style="stroke:#000000;stroke-width:0.8;" x="336.966184" xlink:href="#mc6d5ee90ec" y="444.767114"/>
      </g>
     </g>
     <g id="text_7">
      <!-- 6 -->
      <g transform="translate(333.784934 459.365552)scale(0.1 -0.1)">
       <use xlink:href="#DejaVuSans-54"/>
      </g>
     </g>
    </g>
    <g id="xtick_8">
     <g id="line2d_8">
      <g>
       <use style="stroke:#000000;stroke-width:0.8;" x="387.005194" xlink:href="#mc6d5ee90ec" y="444.767114"/>
      </g>
     </g>
     <g id="text_8">
      <!-- 8 -->
      <defs>
       <path d="M 31.78125 34.625 
Q 24.75 34.625 20.71875 30.859375 
Q 16.703125 27.09375 16.703125 20.515625 
Q 16.703125 13.921875 20.71875 10.15625 
Q 24.75 6.390625 31.78125 6.390625 
Q 38.8125 6.390625 42.859375 10.171875 
Q 46.921875 13.96875 46.921875 20.515625 
Q 46.921875 27.09375 42.890625 30.859375 
Q 38.875 34.625 31.78125 34.625 
z
M 21.921875 38.8125 
Q 15.578125 40.375 12.03125 44.71875 
Q 8.5 49.078125 8.5 55.328125 
Q 8.5 64.0625 14.71875 69.140625 
Q 20.953125 74.21875 31.78125 74.21875 
Q 42.671875 74.21875 48.875 69.140625 
Q 55.078125 64.0625 55.078125 55.328125 
Q 55.078125 49.078125 51.53125 44.71875 
Q 48 40.375 41.703125 38.8125 
Q 48.828125 37.15625 52.796875 32.3125 
Q 56.78125 27.484375 56.78125 20.515625 
Q 56.78125 9.90625 50.3125 4.234375 
Q 43.84375 -1.421875 31.78125 -1.421875 
Q 19.734375 -1.421875 13.25 4.234375 
Q 6.78125 9.90625 6.78125 20.515625 
Q 6.78125 27.484375 10.78125 32.3125 
Q 14.796875 37.15625 21.921875 38.8125 
z
M 18.3125 54.390625 
Q 18.3125 48.734375 21.84375 45.5625 
Q 25.390625 42.390625 31.78125 42.390625 
Q 38.140625 42.390625 41.71875 45.5625 
Q 45.3125 48.734375 45.3125 54.390625 
Q 45.3125 60.0625 41.71875 63.234375 
Q 38.140625 66.40625 31.78125 66.40625 
Q 25.390625 66.40625 21.84375 63.234375 
Q 18.3125 60.0625 18.3125 54.390625 
z
" id="DejaVuSans-56"/>
      </defs>
      <g transform="translate(383.823944 459.365552)scale(0.1 -0.1)">
       <use xlink:href="#DejaVuSans-56"/>
      </g>
     </g>
    </g>
    <g id="xtick_9">
     <g id="line2d_9">
      <g>
       <use style="stroke:#000000;stroke-width:0.8;" x="437.044203" xlink:href="#mc6d5ee90ec" y="444.767114"/>
      </g>
     </g>
     <g id="text_9">
      <!-- 10 -->
      <defs>
       <path d="M 12.40625 8.296875 
L 28.515625 8.296875 
L 28.515625 63.921875 
L 10.984375 60.40625 
L 10.984375 69.390625 
L 28.421875 72.90625 
L 38.28125 72.90625 
L 38.28125 8.296875 
L 54.390625 8.296875 
L 54.390625 0 
L 12.40625 0 
z
" id="DejaVuSans-49"/>
      </defs>
      <g transform="translate(430.681703 459.365552)scale(0.1 -0.1)">
       <use xlink:href="#DejaVuSans-49"/>
       <use x="63.623047" xlink:href="#DejaVuSans-48"/>
      </g>
     </g>
    </g>
   </g>
   <g id="matplotlib.axis_2">
    <g id="ytick_1">
     <g id="line2d_10">
      <defs>
       <path d="M 0 0 
L -3.5 0 
" id="m16141c1f8c" style="stroke:#000000;stroke-width:0.8;"/>
      </defs>
      <g>
       <use style="stroke:#000000;stroke-width:0.8;" x="28.942188" xlink:href="#m16141c1f8c" y="438.52654"/>
      </g>
     </g>
     <g id="text_10">
      <!-- −6 -->
      <g transform="translate(7.2 442.325759)scale(0.1 -0.1)">
       <use xlink:href="#DejaVuSans-8722"/>
       <use x="83.789062" xlink:href="#DejaVuSans-54"/>
      </g>
     </g>
    </g>
    <g id="ytick_2">
     <g id="line2d_11">
      <g>
       <use style="stroke:#000000;stroke-width:0.8;" x="28.942188" xlink:href="#m16141c1f8c" y="385.085625"/>
      </g>
     </g>
     <g id="text_11">
      <!-- −4 -->
      <g transform="translate(7.2 388.884843)scale(0.1 -0.1)">
       <use xlink:href="#DejaVuSans-8722"/>
       <use x="83.789062" xlink:href="#DejaVuSans-52"/>
      </g>
     </g>
    </g>
    <g id="ytick_3">
     <g id="line2d_12">
      <g>
       <use style="stroke:#000000;stroke-width:0.8;" x="28.942188" xlink:href="#m16141c1f8c" y="331.64471"/>
      </g>
     </g>
     <g id="text_12">
      <!-- −2 -->
      <g transform="translate(7.2 335.443928)scale(0.1 -0.1)">
       <use xlink:href="#DejaVuSans-8722"/>
       <use x="83.789062" xlink:href="#DejaVuSans-50"/>
      </g>
     </g>
    </g>
    <g id="ytick_4">
     <g id="line2d_13">
      <g>
       <use style="stroke:#000000;stroke-width:0.8;" x="28.942188" xlink:href="#m16141c1f8c" y="278.203794"/>
      </g>
     </g>
     <g id="text_13">
      <!-- 0 -->
      <g transform="translate(15.579688 282.003013)scale(0.1 -0.1)">
       <use xlink:href="#DejaVuSans-48"/>
      </g>
     </g>
    </g>
    <g id="ytick_5">
     <g id="line2d_14">
      <g>
       <use style="stroke:#000000;stroke-width:0.8;" x="28.942188" xlink:href="#m16141c1f8c" y="224.762879"/>
      </g>
     </g>
     <g id="text_14">
      <!-- 2 -->
      <g transform="translate(15.579688 228.562098)scale(0.1 -0.1)">
       <use xlink:href="#DejaVuSans-50"/>
      </g>
     </g>
    </g>
    <g id="ytick_6">
     <g id="line2d_15">
      <g>
       <use style="stroke:#000000;stroke-width:0.8;" x="28.942188" xlink:href="#m16141c1f8c" y="171.321964"/>
      </g>
     </g>
     <g id="text_15">
      <!-- 4 -->
      <g transform="translate(15.579688 175.121183)scale(0.1 -0.1)">
       <use xlink:href="#DejaVuSans-52"/>
      </g>
     </g>
    </g>
    <g id="ytick_7">
     <g id="line2d_16">
      <g>
       <use style="stroke:#000000;stroke-width:0.8;" x="28.942188" xlink:href="#m16141c1f8c" y="117.881049"/>
      </g>
     </g>
     <g id="text_16">
      <!-- 6 -->
      <g transform="translate(15.579688 121.680268)scale(0.1 -0.1)">
       <use xlink:href="#DejaVuSans-54"/>
      </g>
     </g>
    </g>
    <g id="ytick_8">
     <g id="line2d_17">
      <g>
       <use style="stroke:#000000;stroke-width:0.8;" x="28.942188" xlink:href="#m16141c1f8c" y="64.440134"/>
      </g>
     </g>
     <g id="text_17">
      <!-- 8 -->
      <g transform="translate(15.579688 68.239353)scale(0.1 -0.1)">
       <use xlink:href="#DejaVuSans-56"/>
      </g>
     </g>
    </g>
    <g id="ytick_9">
     <g id="line2d_18">
      <g>
       <use style="stroke:#000000;stroke-width:0.8;" x="28.942188" xlink:href="#m16141c1f8c" y="10.999219"/>
      </g>
     </g>
     <g id="text_18">
      <!-- 10 -->
      <g transform="translate(9.217188 14.798437)scale(0.1 -0.1)">
       <use xlink:href="#DejaVuSans-49"/>
       <use x="63.623047" xlink:href="#DejaVuSans-48"/>
      </g>
     </g>
    </g>
   </g>
   <g id="line2d_19">
    <path clip-path="url(#pe76be7b0c3)" d="M 28.942188 278.203794 
L 475.342187 278.203794 
" style="fill:none;stroke:#000000;stroke-linecap:square;stroke-width:0.7;"/>
   </g>
   <g id="line2d_20">
    <path clip-path="url(#pe76be7b0c3)" d="M 186.849156 444.767114 
L 186.849156 9.887114 
" style="fill:none;stroke:#000000;stroke-linecap:square;stroke-width:0.7;"/>
   </g>
   <g id="patch_3">
    <path d="M 28.942188 444.767114 
L 28.942188 9.887114 
" style="fill:none;stroke:#000000;stroke-linecap:square;stroke-linejoin:miter;stroke-width:0.8;"/>
   </g>
   <g id="patch_4">
    <path d="M 475.342187 444.767114 
L 475.342187 9.887114 
" style="fill:none;stroke:#000000;stroke-linecap:square;stroke-linejoin:miter;stroke-width:0.8;"/>
   </g>
   <g id="patch_5">
    <path d="M 28.942187 444.767114 
L 475.342187 444.767114 
" style="fill:none;stroke:#000000;stroke-linecap:square;stroke-linejoin:miter;stroke-width:0.8;"/>
   </g>
   <g id="patch_6">
    <path d="M 28.942187 9.887114 
L 475.342187 9.887114 
" style="fill:none;stroke:#000000;stroke-linecap:square;stroke-linejoin:miter;stroke-width:0.8;"/>
   </g>
   <g id="text_19">
    <!-- םיהלא -->
    <defs>
     <path d="M 5.859375 0 
L 5.859375 26.3125 
Q 5.859375 30.21875 8.84375 33.59375 
L 15.09375 40.828125 
L 11.96875 40.828125 
Q 4.890625 40.828125 4.890625 47.078125 
Q 4.890625 51.65625 7.859375 54.984375 
L 9.125 54.984375 
Q 9.96875 51.5625 13.765625 51.5625 
L 27.390625 51.5625 
Q 38.625 51.5625 41.96875 48.28125 
Q 45.3125 45.015625 45.3125 34.078125 
L 45.3125 0 
z
M 18.40625 40.828125 
L 12.40625 32.125 
Q 10.25 29 10.25 24.5625 
L 10.25 9.96875 
L 41.0625 9.96875 
L 41.0625 23.140625 
Q 41.0625 33.296875 39.234375 37.0625 
Q 37.40625 40.828125 30.953125 40.828125 
z
" id="TimesNewRomanPSMT-1501"/>
     <path d="M 14.84375 23.34375 
L 13.484375 24.90625 
Q 18.65625 28.765625 18.65625 35.640625 
Q 18.65625 40.578125 11.375 40.875 
Q 3.265625 41.15625 3.265625 47.75 
Q 3.265625 51.171875 5.5625 55.421875 
L 6.890625 55.421875 
Q 7.375 52.09375 11.328125 51.765625 
L 15.765625 51.46875 
Q 22.3125 50.984375 22.3125 42.4375 
L 22.3125 38.765625 
Q 22.3125 27.203125 14.84375 23.34375 
z
" id="TimesNewRomanPSMT-1497"/>
     <path d="M 34.515625 -1.21875 
L 33.734375 -0.203125 
Q 35.015625 1.953125 35.015625 4.9375 
Q 35.015625 7.8125 34.625 13.578125 
Q 34.234375 19.390625 34.234375 22.265625 
Q 34.234375 34.03125 39.9375 40.828125 
L 11.1875 40.828125 
Q 3.8125 40.828125 3.8125 46.96875 
Q 3.8125 51.765625 6.78125 54.984375 
L 8.109375 54.984375 
Q 8.890625 51.5625 12.703125 51.5625 
L 36.53125 51.5625 
Q 39.59375 51.5625 41.203125 50.53125 
Q 42.828125 49.515625 42.828125 45.75 
L 42.828125 43.359375 
Q 42.828125 41.546875 41.046875 38.640625 
Q 39.265625 35.75 39.265625 29.640625 
Q 39.265625 26.125 40.375 19.09375 
Q 41.5 12.0625 41.5 8.546875 
Q 41.5 -0.140625 34.515625 -1.21875 
z
M 4.984375 -1.265625 
L 4.296875 -0.203125 
Q 5.5625 1.125 5.5625 3.375 
Q 5.5625 4.890625 5.421875 7.953125 
Q 5.28125 11.03125 5.28125 12.546875 
Q 5.28125 22.75 12.59375 22.75 
Q 13.578125 22.75 14.265625 22.359375 
L 14.265625 21.046875 
Q 11.921875 19.53125 11.921875 14.65625 
Q 11.921875 13.03125 12.109375 9.859375 
Q 12.3125 6.6875 12.3125 5.125 
Q 12.3125 -0.828125 4.984375 -1.265625 
z
" id="TimesNewRomanPSMT-1492"/>
     <path d="M 36.03125 23.828125 
L 26.765625 13.421875 
Q 23.390625 9.671875 23.390625 6.0625 
Q 23.390625 5.46875 23.53125 4.296875 
Q 23.734375 3.125 23.734375 2.546875 
Q 23.734375 -1.078125 20.453125 -1.078125 
Q 17.1875 -1.078125 17.1875 2.984375 
Q 17.1875 8.6875 24.421875 16.109375 
L 31.546875 23.484375 
Q 34.578125 26.609375 34.578125 31.59375 
L 34.578125 34.515625 
Q 34.578125 38.328125 32.734375 39.578125 
Q 30.90625 40.828125 25.53125 40.828125 
L 11.375 40.828125 
Q 3.765625 40.828125 3.765625 47.609375 
Q 3.765625 51.953125 5.5625 57.46875 
L 6.984375 61.625 
Q 7.328125 62.75 7.328125 63.28125 
Q 7.328125 64.703125 5.5625 65.578125 
L 2.828125 66.890625 
Q 0.734375 67.921875 0.734375 69.78125 
Q 0.734375 72.078125 2.4375 74.5625 
L 3.65625 74.5625 
Q 3.90625 73.046875 5.71875 72.3125 
L 7.5625 71.578125 
Q 10.640625 70.359375 10.640625 67.828125 
Q 10.640625 67.328125 9.1875 61.8125 
L 8.5 59.328125 
Q 7.8125 56.734375 7.8125 55.515625 
Q 7.8125 53.609375 8.828125 52.578125 
Q 9.859375 51.5625 13.578125 51.5625 
L 29.5 51.5625 
Q 34.03125 51.5625 36.453125 49.359375 
Q 38.875 47.171875 38.875 38.625 
L 38.875 33.34375 
Q 38.875 27 36.03125 23.828125 
z
" id="TimesNewRomanPSMT-1500"/>
     <path d="M 41.3125 -0.875 
L 39.984375 -0.875 
Q 39.703125 2.875 37.453125 5.421875 
L 16.265625 29.734375 
Q 10.84375 27 10.84375 22.703125 
Q 10.84375 19.390625 14.3125 14.15625 
Q 18.3125 8.203125 18.3125 4.6875 
Q 18.3125 0 14.75 0 
L 5.515625 0 
L 5.515625 1.3125 
Q 8.453125 2.09375 8.453125 4.6875 
Q 8.453125 6.296875 6.59375 11.078125 
Q 4.734375 15.828125 4.734375 18.40625 
Q 4.734375 26.265625 14.40625 31.78125 
L 8.40625 38.578125 
Q 4.640625 42.875 4.640625 47.515625 
Q 4.640625 51.703125 8.0625 55.421875 
L 9.328125 55.421875 
Q 9.578125 51.171875 11.859375 48.578125 
L 30.21875 27.734375 
Q 31.640625 34.765625 35.640625 40.875 
Q 27.875 42.140625 27.875 48.6875 
Q 27.875 52.546875 29.890625 55.421875 
L 31.15625 55.421875 
Q 31.9375 52.390625 34.90625 51.65625 
L 39.109375 50.6875 
Q 44.625 49.359375 44.625 44.484375 
Q 44.625 42.328125 44.1875 41.015625 
Q 42.578125 40.53125 38.875 40.53125 
Q 33.796875 32.515625 33.796875 27.4375 
Q 33.796875 23.6875 36.375 20.703125 
L 40.921875 15.484375 
Q 44.734375 11.140625 44.734375 6.5 
Q 44.734375 2.296875 41.3125 -0.875 
z
" id="TimesNewRomanPSMT-1488"/>
    </defs>
    <g transform="translate(370.061757 217.181876)scale(0.1 -0.1)">
     <use xlink:href="#TimesNewRomanPSMT-1501"/>
     <use x="50.732422" xlink:href="#TimesNewRomanPSMT-1497"/>
     <use x="77.392578" xlink:href="#TimesNewRomanPSMT-1492"/>
     <use x="124.511719" xlink:href="#TimesNewRomanPSMT-1500"/>
     <use x="167.675781" xlink:href="#TimesNewRomanPSMT-1488"/>
    </g>
   </g>
   <g id="text_20">
    <!-- םוי -->
    <defs>
     <path d="M 18.84375 -0.921875 
L 17.78125 -0.59375 
L 17.78125 33.15625 
Q 17.78125 36.671875 16.671875 38.359375 
Q 15.578125 40.046875 10.6875 40.828125 
Q 3.265625 42.046875 3.265625 48.25 
Q 3.265625 52.734375 6.109375 55.421875 
L 7.421875 55.421875 
Q 7.8125 52.390625 11.46875 51.765625 
L 15.578125 51.125 
Q 19 50.59375 20.578125 48.484375 
Q 22.171875 46.390625 22.171875 40.140625 
L 22.171875 5.125 
Q 22.171875 0.78125 18.84375 -0.921875 
z
" id="TimesNewRomanPSMT-1493"/>
    </defs>
    <g transform="translate(72.831284 421.234887)scale(0.1 -0.1)">
     <use xlink:href="#TimesNewRomanPSMT-1501"/>
     <use x="50.732422" xlink:href="#TimesNewRomanPSMT-1493"/>
     <use x="78.613281" xlink:href="#TimesNewRomanPSMT-1497"/>
    </g>
   </g>
   <g id="text_21">
    <!-- הנפ -->
    <defs>
     <path d="M 25.6875 0 
L 1.609375 0 
L 3.65625 9.96875 
L 20.015625 9.96875 
L 19.625 18.109375 
Q 19.4375 21.53125 19.96875 28.65625 
Q 20.40625 34.1875 20.40625 36.921875 
Q 20.40625 40.625 16.359375 40.875 
Q 5.5625 41.5 5.5625 47.609375 
Q 5.5625 52.390625 8.546875 55.421875 
L 9.859375 55.421875 
Q 10.453125 52.203125 14.3125 51.90625 
L 18.265625 51.5625 
Q 24.90625 50.984375 24.90625 44.828125 
Q 24.90625 41.890625 24.03125 36.03125 
Q 23.140625 30.21875 23.140625 27.25 
Q 23.140625 22.5625 23.78125 19.671875 
Q 26.171875 8.984375 26.171875 6.296875 
Q 26.171875 2.046875 25.6875 0 
z
" id="TimesNewRomanPSMT-1504"/>
     <path d="M 19.53125 0 
L 4.296875 0 
L 6.59375 9.96875 
L 24.265625 9.96875 
Q 30.8125 9.96875 33.34375 13.59375 
Q 35.890625 17.234375 35.890625 24.5625 
Q 35.890625 32.625 33.78125 36.71875 
Q 31.6875 40.828125 25.34375 40.828125 
L 12.546875 40.828125 
Q 9.375 38.8125 9.375 35.640625 
Q 9.375 32.71875 14.15625 31.78125 
Q 18.890625 30.859375 18.890625 27.640625 
L 18.890625 24.953125 
Q 18.890625 23.390625 17.234375 23.390625 
Q 16.546875 23.390625 15.09375 23.578125 
Q 13.671875 23.78125 12.9375 23.78125 
Q 9.375 23.78125 7.375 21.1875 
L 5.8125 21.1875 
Q 4.390625 24.3125 4.390625 28.171875 
Q 4.390625 35.75 9.859375 40.828125 
L 6.84375 43.015625 
Q 5.765625 44.1875 5.765625 46.96875 
Q 5.765625 51.609375 8.734375 54.984375 
L 10.015625 54.984375 
Q 10.84375 51.5625 14.890625 51.5625 
L 24.171875 51.5625 
Q 39.453125 51.5625 39.453125 26.21875 
Q 39.453125 9.765625 34.5625 4.875 
Q 29.6875 0 19.53125 0 
z
" id="TimesNewRomanPSMT-1508"/>
    </defs>
    <g transform="translate(103.453642 29.756279)scale(0.1 -0.1)">
     <use xlink:href="#TimesNewRomanPSMT-1492"/>
     <use x="47.119141" xlink:href="#TimesNewRomanPSMT-1504"/>
     <use x="77.587891" xlink:href="#TimesNewRomanPSMT-1508"/>
    </g>
   </g>
   <g id="text_22">
    <!-- די -->
    <defs>
     <path d="M 25.09375 -1.21875 
L 24.3125 -0.09375 
Q 25.59375 1.765625 25.59375 4.9375 
Q 25.59375 7.515625 25.390625 12.796875 
Q 25.140625 18.0625 25.140625 20.65625 
Q 25.140625 34.1875 33.640625 40.828125 
L 10.84375 40.828125 
Q 3.265625 40.828125 3.265625 46.96875 
Q 3.265625 51.765625 6.25 54.984375 
L 7.515625 54.984375 
Q 8.296875 51.5625 12.40625 51.5625 
L 32.625 51.5625 
Q 36.03125 51.5625 37.328125 50.3125 
Q 38.625 49.078125 38.625 45.75 
Q 38.625 41.453125 36.5625 40.109375 
Q 34.515625 38.765625 32.828125 35.9375 
Q 31.15625 33.109375 31.15625 29.109375 
Q 31.15625 25.6875 31.6875 18.84375 
Q 32.234375 11.96875 32.234375 8.546875 
Q 32.234375 -0.046875 25.09375 -1.21875 
z
" id="TimesNewRomanPSMT-1491"/>
    </defs>
    <g transform="translate(49.32604 281.494001)scale(0.1 -0.1)">
     <use xlink:href="#TimesNewRomanPSMT-1491"/>
     <use x="41.894531" xlink:href="#TimesNewRomanPSMT-1497"/>
    </g>
   </g>
   <g id="text_23">
    <!-- רבד -->
    <defs>
     <path d="M 37.984375 -0.921875 
L 36.96875 -0.59375 
L 36.96875 23.140625 
Q 36.96875 32.8125 35.90625 35.5 
Q 34.859375 38.1875 32.4375 39.5 
Q 30.03125 40.828125 26.265625 40.828125 
L 10.296875 40.828125 
Q 3.265625 40.828125 3.265625 46.96875 
Q 3.265625 51.515625 6.25 54.984375 
L 7.515625 54.984375 
Q 8.296875 51.5625 12.40625 51.5625 
L 23.484375 51.5625 
Q 34.71875 51.5625 38.0625 48.28125 
Q 41.40625 45.015625 41.40625 34.078125 
L 41.40625 3.90625 
Q 41.40625 0.875 37.984375 -0.921875 
z
" id="TimesNewRomanPSMT-1512"/>
     <path d="M 41.5 0 
L 2.484375 0 
L 4.390625 9.96875 
L 33.59375 9.96875 
Q 34.8125 16.3125 34.8125 25.640625 
Q 34.8125 34.625 33.265625 37.71875 
Q 31.734375 40.828125 24.5625 40.828125 
L 11.28125 40.828125 
Q 4 40.828125 4 46.96875 
Q 4 51.515625 6.984375 54.984375 
L 8.25 54.984375 
Q 9.03125 51.5625 13.140625 51.5625 
L 22.46875 51.5625 
Q 30.90625 51.5625 34.15625 49.703125 
Q 37.40625 47.859375 38.40625 44.734375 
Q 39.40625 41.609375 39.40625 33.84375 
L 39.40625 26.953125 
Q 39.40625 15.625 35.15625 9.96875 
L 43.359375 9.96875 
z
" id="TimesNewRomanPSMT-1489"/>
    </defs>
    <g transform="translate(51.771853 424.897949)scale(0.1 -0.1)">
     <use xlink:href="#TimesNewRomanPSMT-1512"/>
     <use x="46.875" xlink:href="#TimesNewRomanPSMT-1489"/>
     <use x="92.382812" xlink:href="#TimesNewRomanPSMT-1491"/>
    </g>
   </g>
   <g id="text_24">
    <!-- השא -->
    <defs>
     <path d="M 40.09375 0 
L 12.796875 0 
Q 11.375 7.515625 9.71875 13.484375 
Q 7.375 22.015625 7.375 27.390625 
Q 7.375 34.671875 9.375 40.53125 
Q 3.265625 42.328125 3.265625 47.171875 
Q 3.265625 51.765625 5.71875 55.421875 
L 7.03125 55.421875 
Q 7.515625 53.609375 8.546875 52.875 
Q 9.578125 52.15625 12.84375 51.46875 
Q 17.71875 50.4375 17.71875 43.890625 
Q 17.71875 42.234375 17.4375 41.265625 
Q 14.3125 40.234375 11.671875 40.234375 
Q 10.546875 35.203125 10.546875 29 
Q 10.546875 21.046875 16.21875 9.96875 
L 17.71875 10.015625 
Q 24.359375 22.21875 29.4375 40.71875 
Q 23.390625 42.96875 23.390625 47.859375 
Q 23.390625 52.046875 25.875 55.421875 
L 27.203125 55.421875 
Q 27.78125 52.6875 29.9375 52.15625 
L 33.015625 51.46875 
Q 37.9375 50.34375 37.9375 44.734375 
Q 37.9375 42.71875 37.5 41.265625 
Q 35.296875 40.578125 32.03125 40.578125 
Q 28.375 23.828125 21.4375 9.96875 
L 36.96875 9.96875 
Q 39.203125 17.390625 49.359375 31.640625 
Q 51.953125 35.203125 51.953125 37.703125 
Q 51.953125 40.234375 49.3125 41.109375 
L 48.6875 41.3125 
Q 43.796875 42.96875 43.796875 47.078125 
Q 43.796875 51.703125 46.625 55.421875 
L 47.90625 55.421875 
Q 48.25 53.078125 50.390625 52.296875 
L 53.125 51.375 
Q 57.765625 49.75 57.765625 44.671875 
Q 57.765625 40.28125 53.21875 33.21875 
Q 48.6875 26.171875 45.21875 17.75 
Q 41.75 9.328125 40.09375 0 
z
" id="TimesNewRomanPSMT-1513"/>
    </defs>
    <g transform="translate(382.132004 287.723137)scale(0.1 -0.1)">
     <use xlink:href="#TimesNewRomanPSMT-1492"/>
     <use x="47.119141" xlink:href="#TimesNewRomanPSMT-1513"/>
     <use x="108.154297" xlink:href="#TimesNewRomanPSMT-1488"/>
    </g>
   </g>
   <g id="text_25">
    <!-- םש -->
    <g transform="translate(127.633914 308.568016)scale(0.1 -0.1)">
     <use xlink:href="#TimesNewRomanPSMT-1501"/>
     <use x="50.732422" xlink:href="#TimesNewRomanPSMT-1513"/>
    </g>
   </g>
   <g id="text_26">
    <!-- ןהכ -->
    <defs>
     <path d="M 15.921875 -17.28125 
L 14.984375 -16.890625 
L 14.984375 26.375 
Q 15.09375 29.828125 17.671875 34.515625 
Q 18.703125 36.375 18.703125 37.84375 
Q 18.703125 40.328125 12.9375 40.625 
Q 3.265625 41.0625 3.265625 47.609375 
Q 3.265625 52.15625 5.90625 55.421875 
L 7.234375 55.421875 
Q 7.8125 51.90625 11.671875 51.65625 
L 15.625 51.46875 
Q 23.09375 51.03125 23.09375 43.453125 
Q 23.09375 41.84375 21.140625 36.109375 
Q 19.1875 30.375 19.53125 23.578125 
L 21.09375 -4.390625 
Q 21.6875 -15.09375 15.921875 -17.28125 
z
" id="TimesNewRomanPSMT-1503"/>
     <path d="M 18.5625 0 
L 2.484375 0 
L 4.78125 9.96875 
L 23.296875 9.96875 
Q 34.90625 9.96875 34.90625 24.5625 
Q 34.96875 34.28125 32.234375 37.546875 
Q 29.5 40.828125 24.359375 40.828125 
L 10.9375 40.828125 
Q 4 40.828125 4 46.96875 
Q 4 51.515625 6.984375 54.984375 
L 8.25 54.984375 
Q 9.03125 51.5625 13.140625 51.5625 
L 23.1875 51.5625 
Q 38.671875 51.5625 38.671875 26.21875 
Q 38.671875 16.609375 37.0625 10.9375 
Q 35.453125 5.28125 30.8125 2.640625 
Q 26.171875 0 18.5625 0 
z
" id="TimesNewRomanPSMT-1499"/>
    </defs>
    <g transform="translate(454.958335 235.359855)scale(0.1 -0.1)">
     <use xlink:href="#TimesNewRomanPSMT-1503"/>
     <use x="27.441406" xlink:href="#TimesNewRomanPSMT-1492"/>
     <use x="74.560547" xlink:href="#TimesNewRomanPSMT-1499"/>
    </g>
   </g>
   <g id="text_27">
    <!-- דבע -->
    <defs>
     <path d="M 3.265625 -1.421875 
L 5.328125 8.5 
L 18.265625 10.109375 
Q 18.265625 20.015625 15.578125 22.21875 
Q 11.921875 25.25 11.109375 27.171875 
Q 10.296875 29.109375 10.296875 31.6875 
Q 10.296875 34.671875 11.328125 40.578125 
Q 3.65625 42 3.65625 47.40625 
Q 3.65625 51.5625 5.609375 55.421875 
L 6.9375 55.421875 
Q 7.71875 52.15625 11.140625 51.765625 
L 13.421875 51.5625 
Q 19.234375 50.984375 19.234375 44.390625 
Q 19.234375 42.875 18.75 41.5 
Q 15.625 40.578125 13.328125 40.578125 
Q 13.328125 35.015625 13.71875 33.296875 
Q 14.109375 31.59375 16.15625 30.21875 
Q 19.1875 28.265625 19.875 26.78125 
Q 20.5625 25.296875 20.5625 21.578125 
L 20.5625 10.359375 
L 23.484375 10.75 
Q 26.375 11.1875 27.3125 12.296875 
Q 28.265625 13.421875 29.4375 18.703125 
Q 30.5625 23.578125 33.6875 30.28125 
Q 36.375 35.984375 36.375 37.546875 
Q 36.375 40.328125 33.890625 40.875 
Q 26.703125 42.53125 26.703125 47.796875 
Q 26.703125 51.421875 29.109375 55.421875 
L 30.421875 55.421875 
Q 30.859375 53.421875 32.09375 52.59375 
Q 33.34375 51.765625 36.859375 51.21875 
Q 42.140625 50.4375 42.140625 45.953125 
Q 42.140625 42.71875 37.90625 33.78125 
Q 33.6875 24.859375 33.6875 13.96875 
Q 33.6875 2.15625 20.125 0.53125 
z
" id="TimesNewRomanPSMT-1506"/>
    </defs>
    <g transform="translate(433.977392 244.991508)scale(0.1 -0.1)">
     <use xlink:href="#TimesNewRomanPSMT-1491"/>
     <use x="41.894531" xlink:href="#TimesNewRomanPSMT-1489"/>
     <use x="87.402344" xlink:href="#TimesNewRomanPSMT-1506"/>
    </g>
   </g>
   <g id="text_28">
    <!-- תב -->
    <defs>
     <path d="M 40.96875 -0.828125 
L 39.9375 -0.484375 
L 39.9375 23.140625 
Q 39.9375 31.390625 39.453125 34.21875 
Q 38.96875 37.0625 36.6875 38.9375 
Q 34.421875 40.828125 29.78125 40.828125 
L 18.84375 40.828125 
L 16.796875 36.421875 
Q 13.765625 29.828125 13.765625 25.34375 
Q 13.765625 23.1875 14.40625 17.09375 
Q 16.265625 7.8125 16.109375 5.765625 
L 15.828125 0 
L 1.609375 0 
L 3.65625 9.96875 
L 9.8125 9.96875 
L 9.515625 19.53125 
Q 9.1875 29.390625 13.140625 36.03125 
L 15.96875 40.828125 
L 14.0625 40.828125 
Q 6.59375 40.828125 6.59375 46.96875 
Q 6.59375 51.5625 9.625 54.984375 
L 10.9375 54.984375 
Q 11.765625 51.5625 15.828125 51.5625 
L 26.703125 51.5625 
Q 37.984375 51.5625 41.28125 48.3125 
Q 44.578125 45.0625 44.578125 34.078125 
L 44.578125 5.21875 
Q 44.578125 0.984375 40.96875 -0.828125 
z
" id="TimesNewRomanPSMT-1514"/>
    </defs>
    <g transform="translate(302.286512 288.248197)scale(0.1 -0.1)">
     <use xlink:href="#TimesNewRomanPSMT-1514"/>
     <use x="50" xlink:href="#TimesNewRomanPSMT-1489"/>
    </g>
   </g>
   <g id="text_29">
    <!-- ןיע -->
    <g transform="translate(151.741243 250.929376)scale(0.1 -0.1)">
     <use xlink:href="#TimesNewRomanPSMT-1503"/>
     <use x="27.441406" xlink:href="#TimesNewRomanPSMT-1497"/>
     <use x="54.101562" xlink:href="#TimesNewRomanPSMT-1506"/>
    </g>
   </g>
   <g id="text_30">
    <!-- הנש -->
    <g transform="translate(142.617236 336.161045)scale(0.1 -0.1)">
     <use xlink:href="#TimesNewRomanPSMT-1492"/>
     <use x="47.119141" xlink:href="#TimesNewRomanPSMT-1504"/>
     <use x="77.587891" xlink:href="#TimesNewRomanPSMT-1513"/>
    </g>
   </g>
   <g id="text_31">
    <!-- שפנ -->
    <g transform="translate(191.757178 252.955305)scale(0.1 -0.1)">
     <use xlink:href="#TimesNewRomanPSMT-1513"/>
     <use x="61.035156" xlink:href="#TimesNewRomanPSMT-1508"/>
     <use x="105.078125" xlink:href="#TimesNewRomanPSMT-1504"/>
    </g>
   </g>
   <g id="text_32">
    <!-- ךרד -->
    <defs>
     <path d="M 37.703125 39.984375 
Q 36.765625 38.921875 36.859375 36.078125 
L 38.484375 -8.640625 
Q 38.671875 -12.703125 37.5625 -14.5 
Q 36.46875 -16.3125 33.84375 -17.28125 
L 32.953125 -16.890625 
L 32.953125 40.828125 
L 10.296875 40.828125 
Q 3.265625 40.828125 3.265625 46.96875 
Q 3.265625 51.515625 6.25 54.984375 
L 7.515625 54.984375 
Q 8.296875 51.5625 12.75 51.5625 
L 34.125 51.5625 
Q 40.328125 51.5625 40.328125 46.1875 
L 40.328125 44.671875 
Q 40.328125 42.578125 39.3125 41.40625 
z
" id="TimesNewRomanPSMT-1498"/>
    </defs>
    <g transform="translate(75.01869 263.654268)scale(0.1 -0.1)">
     <use xlink:href="#TimesNewRomanPSMT-1498"/>
     <use x="45.214844" xlink:href="#TimesNewRomanPSMT-1512"/>
     <use x="92.089844" xlink:href="#TimesNewRomanPSMT-1491"/>
    </g>
   </g>
   <g id="text_33">
    <!-- חא -->
    <defs>
     <path d="M 35.015625 -1.21875 
L 34.234375 -0.203125 
Q 35.5 1.703125 35.5 4.9375 
Q 35.5 7.8125 35.109375 13.578125 
Q 34.71875 19.390625 34.71875 22.265625 
Q 34.71875 34.125 40.375 40.875 
L 15.671875 40.875 
Q 10.890625 37.3125 10.890625 29.15625 
Q 10.890625 25.875 11.859375 19.234375 
Q 12.84375 12.640625 12.84375 9.328125 
Q 12.84375 -0.203125 5.5625 -1.21875 
L 4.9375 -0.203125 
Q 6.6875 2.546875 6.390625 8.453125 
L 5.765625 20.796875 
Q 5.171875 33.59375 12.84375 40.875 
Q 7.953125 40.921875 6.125 42.265625 
Q 4.296875 43.609375 4.296875 46.96875 
Q 4.296875 51.765625 7.28125 54.984375 
L 8.59375 54.984375 
Q 9.375 51.5625 13.421875 51.5625 
L 37.015625 51.5625 
Q 40.765625 51.5625 42.0625 50.21875 
Q 43.359375 48.875 43.3125 45.75 
Q 43.3125 41.703125 41.421875 38.46875 
Q 39.546875 35.25 39.546875 29.640625 
Q 39.546875 26.125 40.71875 19.09375 
Q 41.84375 12.0625 41.84375 8.546875 
Q 41.84375 -0.203125 35.015625 -1.21875 
z
" id="TimesNewRomanPSMT-1495"/>
    </defs>
    <g transform="translate(375.912479 279.143647)scale(0.1 -0.1)">
     <use xlink:href="#TimesNewRomanPSMT-1495"/>
     <use x="47.65625" xlink:href="#TimesNewRomanPSMT-1488"/>
    </g>
   </g>
   <g id="text_34">
    <!-- לוק -->
    <defs>
     <path d="M 37.546875 20.3125 
L 26.8125 13.1875 
Q 23 10.640625 23 5.765625 
Q 23 5.171875 23.09375 4.046875 
Q 23.140625 2.875 23.140625 2.296875 
Q 23.140625 -1.078125 19.78125 -1.078125 
Q 16.796875 -1.078125 16.796875 2.734375 
Q 16.796875 10.84375 25.25 16.5 
L 34.578125 22.75 
Q 38.375 25.296875 38.375 30.421875 
L 38.375 33.9375 
Q 38.375 38.140625 36.4375 39.484375 
Q 34.515625 40.828125 30.375 40.828125 
L 12.203125 40.828125 
Q 5.125 40.828125 5.125 46.96875 
Q 5.125 51.515625 8.109375 54.984375 
L 9.375 54.984375 
Q 10.15625 51.5625 14.265625 51.5625 
L 30.8125 51.5625 
Q 37.109375 51.5625 39.90625 48.5625 
Q 42.71875 45.5625 42.71875 38.09375 
L 42.71875 33.34375 
Q 42.71875 28.265625 41.6875 25.328125 
Q 40.671875 22.40625 37.546875 20.3125 
z
M 6.9375 -17.28125 
L 5.90625 -16.890625 
L 5.90625 25.09375 
Q 5.90625 29.34375 9.421875 32.421875 
L 10.25 32.421875 
L 10.25 -13.671875 
Q 10.25 -15.328125 6.9375 -17.28125 
z
" id="TimesNewRomanPSMT-1511"/>
    </defs>
    <g transform="translate(116.401226 310.313005)scale(0.1 -0.1)">
     <use xlink:href="#TimesNewRomanPSMT-1500"/>
     <use x="43.164062" xlink:href="#TimesNewRomanPSMT-1493"/>
     <use x="71.044922" xlink:href="#TimesNewRomanPSMT-1511"/>
    </g>
   </g>
   <g id="text_35">
    <!-- רׂש -->
    <defs>
     <path d="M -7.28125 62.796875 
Q -7.28125 63.875 -6.8125 64.75 
Q -6.34375 65.625 -5.421875 66.234375 
Q -4.5 66.84375 -3.21875 66.84375 
Q -1.8125 66.84375 -0.515625 65.796875 
Q 0.78125 64.75 0.78125 62.796875 
Q 0.78125 60.890625 -0.515625 59.8125 
Q -1.8125 58.734375 -3.21875 58.734375 
Q -4.390625 58.734375 -5.296875 59.296875 
Q -6.203125 59.859375 -6.734375 60.765625 
Q -7.28125 61.671875 -7.28125 62.796875 
z
" id="TimesNewRomanPSMT-1474"/>
    </defs>
    <g transform="translate(369.002725 239.48209)scale(0.1 -0.1)">
     <use xlink:href="#TimesNewRomanPSMT-1512"/>
     <use x="46.875" xlink:href="#TimesNewRomanPSMT-1474"/>
     <use x="46.875" xlink:href="#TimesNewRomanPSMT-1513"/>
    </g>
   </g>
   <g id="text_36">
    <!-- בל -->
    <g transform="translate(139.841284 216.601197)scale(0.1 -0.1)">
     <use xlink:href="#TimesNewRomanPSMT-1489"/>
     <use x="45.507812" xlink:href="#TimesNewRomanPSMT-1500"/>
    </g>
   </g>
   <g id="text_37">
    <!-- שאר -->
    <g transform="translate(167.400519 259.436642)scale(0.1 -0.1)">
     <use xlink:href="#TimesNewRomanPSMT-1513"/>
     <use x="61.035156" xlink:href="#TimesNewRomanPSMT-1488"/>
     <use x="109.179688" xlink:href="#TimesNewRomanPSMT-1512"/>
    </g>
   </g>
   <g id="text_38">
    <!-- םימ -->
    <defs>
     <path d="M 42.09375 8.34375 
L 40.4375 0 
L 16.0625 0 
L 18.40625 9.96875 
L 39.0625 9.96875 
Q 40.484375 15.28125 40.484375 22.859375 
Q 40.53125 30.375 37.421875 35.015625 
Q 34.328125 39.65625 28.5625 39.59375 
Q 20.84375 39.59375 14.28125 29.796875 
Q 7.71875 20.015625 7.625 0 
L 4.34375 0 
Q 4.15625 2.484375 4.15625 4.25 
Q 4.15625 24.5625 15.484375 37.015625 
Q 15.484375 38.875 14.5 39.671875 
Q 13.53125 40.484375 9.96875 41.265625 
Q 3.8125 42.578125 3.8125 47.796875 
Q 3.8125 51.8125 5.859375 55.421875 
L 7.171875 55.421875 
Q 8.0625 52.4375 10.9375 52 
L 13.96875 51.5625 
Q 18.0625 50.984375 18.0625 47.40625 
Q 18.0625 46.734375 17.875 45.359375 
Q 17.625 43.953125 17.625 43.265625 
Q 17.625 41.265625 19.140625 40.28125 
Q 27.25 44.828125 27.984375 52.203125 
Q 35.84375 50.875 39.859375 43.359375 
Q 43.890625 35.84375 43.890625 23.921875 
Q 43.890625 17.28125 42.09375 8.34375 
z
" id="TimesNewRomanPSMT-1502"/>
    </defs>
    <g transform="translate(166.620933 258.162943)scale(0.1 -0.1)">
     <use xlink:href="#TimesNewRomanPSMT-1501"/>
     <use x="50.732422" xlink:href="#TimesNewRomanPSMT-1497"/>
     <use x="77.392578" xlink:href="#TimesNewRomanPSMT-1502"/>
    </g>
   </g>
   <g id="text_39">
    <!-- יוג -->
    <defs>
     <path d="M 29.78125 -0.59375 
L 28.609375 -0.59375 
L 21.578125 16.3125 
L 20.90625 16.3125 
L 14.359375 0.390625 
L 1.609375 -0.296875 
L 3.765625 9.765625 
Q 13.375 10.453125 17.03125 14.640625 
Q 20.703125 18.84375 20.703125 29.640625 
Q 20.703125 35.015625 19.546875 37.421875 
Q 18.40625 39.84375 14.40625 40.484375 
L 10.453125 41.0625 
Q 8.15625 41.453125 6.5625 43.28125 
Q 4.984375 45.125 4.9375 47.609375 
Q 4.9375 51.8125 8.015625 55.421875 
L 9.328125 55.421875 
Q 9.90625 52.25 13.765625 51.90625 
L 17.328125 51.5625 
Q 23.921875 50.921875 23.921875 44.578125 
Q 23.921875 42.09375 23.53125 37.109375 
Q 23.140625 32.125 23.140625 29.640625 
Q 23.140625 25.203125 27.296875 18.0625 
Q 31.59375 10.59375 31.59375 5.765625 
Q 31.59375 2.15625 29.78125 -0.59375 
z
" id="TimesNewRomanPSMT-1490"/>
    </defs>
    <g transform="translate(226.146358 190.955716)scale(0.1 -0.1)">
     <use xlink:href="#TimesNewRomanPSMT-1497"/>
     <use x="26.660156" xlink:href="#TimesNewRomanPSMT-1493"/>
     <use x="54.541016" xlink:href="#TimesNewRomanPSMT-1490"/>
    </g>
   </g>
   <g id="text_40">
    <!-- טפשמ -->
    <defs>
     <path d="M 36.46875 0 
L 10.59375 0 
Q 10.546875 3.859375 9.125 11.375 
Q 7.078125 22.21875 7.078125 27.59375 
Q 7.078125 33.890625 9.625 40.484375 
Q 5.859375 41.15625 4.5625 42.640625 
Q 3.265625 44.140625 3.265625 47.3125 
Q 3.265625 51.21875 5.328125 55.421875 
L 6.640625 55.421875 
Q 6.984375 51.859375 11.921875 51.609375 
Q 17.71875 51.46875 17.71875 45.359375 
Q 17.71875 43.21875 17.09375 41.0625 
Q 14.9375 40.375 11.96875 40.375 
Q 10.25 34.90625 10.25 30.859375 
Q 10.25 21.4375 15.234375 9.96875 
L 35.453125 9.96875 
Q 39.59375 18.75 39.59375 30.71875 
Q 39.59375 41.453125 31.546875 41.453125 
Q 24.8125 41.453125 21.875 31.984375 
L 20.3125 32.375 
Q 24.421875 52.15625 33.59375 52.15625 
Q 42.71875 52.15625 42.71875 30.765625 
Q 42.71875 17.484375 36.46875 0 
z
" id="TimesNewRomanPSMT-1496"/>
    </defs>
    <g transform="translate(76.738215 382.849649)scale(0.1 -0.1)">
     <use xlink:href="#TimesNewRomanPSMT-1496"/>
     <use x="47.558594" xlink:href="#TimesNewRomanPSMT-1508"/>
     <use x="91.601562" xlink:href="#TimesNewRomanPSMT-1513"/>
     <use x="152.636719" xlink:href="#TimesNewRomanPSMT-1502"/>
    </g>
   </g>
   <g id="text_41">
    <!-- ילכ -->
    <g transform="translate(102.956034 358.409565)scale(0.1 -0.1)">
     <use xlink:href="#TimesNewRomanPSMT-1497"/>
     <use x="26.660156" xlink:href="#TimesNewRomanPSMT-1500"/>
     <use x="69.824219" xlink:href="#TimesNewRomanPSMT-1499"/>
    </g>
   </g>
   <g id="text_42">
    <!-- רה -->
    <g transform="translate(131.415385 70.090304)scale(0.1 -0.1)">
     <use xlink:href="#TimesNewRomanPSMT-1512"/>
     <use x="46.875" xlink:href="#TimesNewRomanPSMT-1492"/>
    </g>
   </g>
   <g id="text_43">
    <!-- הפ -->
    <g transform="translate(137.957135 221.403296)scale(0.1 -0.1)">
     <use xlink:href="#TimesNewRomanPSMT-1492"/>
     <use x="47.119141" xlink:href="#TimesNewRomanPSMT-1508"/>
    </g>
   </g>
   <g id="text_44">
    <!-- ףסכ -->
    <defs>
     <path d="M 36.1875 -17.28125 
L 35.0625 -16.890625 
L 35.0625 23.96875 
Q 35.0625 33.640625 33.21875 37.234375 
Q 31.390625 40.828125 24.421875 40.828125 
L 11.375 40.828125 
Q 8.453125 36.140625 8.453125 32.765625 
Q 8.453125 30.609375 9.453125 29.75 
Q 10.453125 28.90625 13.71875 28.265625 
Q 17.96875 27.484375 17.96875 24.21875 
L 17.96875 21.78125 
Q 17.96875 19.921875 16.3125 19.921875 
Q 15.578125 19.921875 14.15625 20.171875 
Q 12.703125 20.359375 12.015625 20.359375 
Q 8.5 20.359375 6.453125 17.78125 
L 4.828125 17.78125 
Q 3.265625 20.90625 3.265625 24.078125 
Q 3.265625 32.859375 9.078125 40.828125 
Q 4.6875 41.703125 4.6875 46.96875 
Q 4.6875 51.5625 7.765625 54.984375 
L 9.03125 54.984375 
Q 9.859375 51.5625 13.8125 51.5625 
L 21.1875 51.5625 
Q 28.8125 51.5625 32.375 50.390625 
Q 35.9375 49.21875 37.296875 46.328125 
Q 38.671875 43.453125 39.0625 35.203125 
L 40.046875 13.234375 
Q 40.625 -0.484375 40.625 -10.015625 
Q 40.625 -12.5 40.109375 -14.25 
Q 39.59375 -16.015625 36.1875 -17.28125 
z
" id="TimesNewRomanPSMT-1507"/>
     <path d="M 25.296875 -1.078125 
L 23.484375 -1.078125 
Q 14.796875 -1.078125 9.9375 4.96875 
Q 5.078125 11.03125 5.078125 21.140625 
Q 5.078125 32.90625 10.453125 40.875 
Q 7.46875 40.875 6.046875 42.75 
Q 4.640625 44.625 4.640625 46.96875 
Q 4.640625 51.609375 7.625 54.984375 
L 8.890625 54.984375 
Q 9.671875 51.5625 13.71875 51.5625 
L 25.640625 51.5625 
Q 35.015625 51.5625 38.96875 45.28125 
Q 42.921875 39.015625 42.921875 26.21875 
Q 42.921875 11.28125 38.546875 5.09375 
Q 34.1875 -1.078125 25.296875 -1.078125 
z
M 27.34375 40.828125 
L 13.328125 40.828125 
Q 9.125 33.796875 9.125 25.34375 
Q 9.125 8.984375 22.21875 8.984375 
L 26.515625 8.984375 
Q 33.0625 8.984375 36.15625 12.546875 
Q 39.265625 16.109375 39.265625 24.5625 
Q 39.265625 34.421875 36.28125 37.625 
Q 33.296875 40.828125 27.34375 40.828125 
z
" id="TimesNewRomanPSMT-1505"/>
    </defs>
    <g transform="translate(122.206384 343.357832)scale(0.1 -0.1)">
     <use xlink:href="#TimesNewRomanPSMT-1507"/>
     <use x="45.410156" xlink:href="#TimesNewRomanPSMT-1505"/>
     <use x="92.919922" xlink:href="#TimesNewRomanPSMT-1499"/>
    </g>
   </g>
   <g id="text_45">
    <!-- בהז -->
    <defs>
     <path d="M 24.90625 41.21875 
Q 20.953125 40.328125 16.0625 40.328125 
Q 14.9375 35.0625 14.9375 31.9375 
Q 14.9375 27.484375 16.0625 22.46875 
Q 17.96875 13.484375 17.96875 9.421875 
Q 17.96875 -0.09375 11.03125 -1.21875 
L 10.203125 -0.25 
Q 11.671875 1.859375 11.671875 5.125 
Q 11.671875 8.15625 10.890625 14.109375 
Q 10.109375 20.0625 10.109375 23.046875 
Q 10.109375 32.171875 13.96875 40.4375 
Q 3.8125 40.4375 3.8125 47.40625 
Q 3.8125 52 6.5 55.421875 
L 7.8125 55.421875 
Q 8.40625 52.640625 11.03125 52.046875 
Q 21.140625 51.65625 23.234375 49.953125 
Q 25.34375 48.25 25.34375 44.09375 
Q 25.34375 42.78125 24.90625 41.21875 
z
" id="TimesNewRomanPSMT-1494"/>
    </defs>
    <g transform="translate(112.282026 362.811053)scale(0.1 -0.1)">
     <use xlink:href="#TimesNewRomanPSMT-1489"/>
     <use x="45.507812" xlink:href="#TimesNewRomanPSMT-1492"/>
     <use x="92.626953" xlink:href="#TimesNewRomanPSMT-1494"/>
    </g>
   </g>
   <g id="text_46">
    <!-- חבזמ -->
    <g transform="translate(109.827285 284.897677)scale(0.1 -0.1)">
     <use xlink:href="#TimesNewRomanPSMT-1495"/>
     <use x="47.65625" xlink:href="#TimesNewRomanPSMT-1489"/>
     <use x="93.164062" xlink:href="#TimesNewRomanPSMT-1494"/>
     <use x="121.777344" xlink:href="#TimesNewRomanPSMT-1502"/>
    </g>
   </g>
   <g id="text_47">
    <!-- ברח -->
    <g transform="translate(166.984049 316.406368)scale(0.1 -0.1)">
     <use xlink:href="#TimesNewRomanPSMT-1489"/>
     <use x="45.507812" xlink:href="#TimesNewRomanPSMT-1512"/>
     <use x="92.382812" xlink:href="#TimesNewRomanPSMT-1495"/>
    </g>
   </g>
   <g id="text_48">
    <!-- חור -->
    <g transform="translate(183.906786 285.944266)scale(0.1 -0.1)">
     <use xlink:href="#TimesNewRomanPSMT-1495"/>
     <use x="47.65625" xlink:href="#TimesNewRomanPSMT-1493"/>
     <use x="75.537109" xlink:href="#TimesNewRomanPSMT-1512"/>
    </g>
   </g>
   <g id="text_49">
    <!-- םוקמ -->
    <g transform="translate(136.620183 99.668204)scale(0.1 -0.1)">
     <use xlink:href="#TimesNewRomanPSMT-1501"/>
     <use x="50.732422" xlink:href="#TimesNewRomanPSMT-1493"/>
     <use x="78.613281" xlink:href="#TimesNewRomanPSMT-1511"/>
     <use x="125.976562" xlink:href="#TimesNewRomanPSMT-1502"/>
    </g>
   </g>
   <g id="text_50">
    <!-- דוע -->
    <g transform="translate(175.403866 301.327823)scale(0.1 -0.1)">
     <use xlink:href="#TimesNewRomanPSMT-1491"/>
     <use x="41.894531" xlink:href="#TimesNewRomanPSMT-1493"/>
     <use x="69.775391" xlink:href="#TimesNewRomanPSMT-1506"/>
    </g>
   </g>
   <g id="text_51">
    <!-- ץע -->
    <defs>
     <path d="M 44.234375 40.828125 
Q 41.453125 39.890625 38.71875 39.890625 
Q 35.203125 37.203125 31.296875 33.203125 
L 26.953125 28.765625 
Q 22.703125 24.421875 20.15625 20.0625 
Q 17.625 15.71875 17.625 10.40625 
Q 17.625 7.328125 18.359375 1.3125 
Q 19.046875 -4.734375 19.046875 -7.8125 
Q 19.046875 -15.375 14.109375 -17.28125 
L 12.984375 -16.890625 
L 11.96875 23.296875 
Q 11.921875 25.6875 13.484375 30.515625 
Q 15.046875 35.359375 15.046875 37.453125 
Q 15.046875 39.546875 12.984375 40.328125 
Q 6.109375 41.609375 4.6875 43.40625 
Q 3.265625 45.21875 3.265625 47.609375 
Q 3.265625 51.765625 5.515625 55.421875 
L 6.84375 55.421875 
Q 7.625 52.34375 10.75 52 
L 13.875 51.65625 
Q 20.75 50.984375 20.75 44.828125 
Q 20.75 42.671875 18.0625 36.078125 
Q 15.671875 30.03125 15.828125 26.703125 
L 16.015625 22.65625 
L 16.796875 22.65625 
Q 26.703125 34.125 35.59375 40.484375 
Q 27.9375 41.75 27.9375 47.609375 
Q 27.9375 51.65625 30.171875 55.421875 
L 31.453125 55.421875 
Q 31.84375 52.390625 35.546875 52 
L 38.625 51.65625 
Q 44.96875 51.03125 44.96875 45.015625 
Q 44.96875 43.5625 44.234375 40.828125 
z
" id="TimesNewRomanPSMT-1509"/>
    </defs>
    <g transform="translate(131.870632 337.105704)scale(0.1 -0.1)">
     <use xlink:href="#TimesNewRomanPSMT-1509"/>
     <use x="48.242188" xlink:href="#TimesNewRomanPSMT-1506"/>
    </g>
   </g>
   <g id="text_52">
    <!-- שא -->
    <g transform="translate(183.181861 279.259781)scale(0.1 -0.1)">
     <use xlink:href="#TimesNewRomanPSMT-1513"/>
     <use x="61.035156" xlink:href="#TimesNewRomanPSMT-1488"/>
    </g>
   </g>
   <g id="text_53">
    <!-- םד -->
    <g transform="translate(129.587352 300.689517)scale(0.1 -0.1)">
     <use xlink:href="#TimesNewRomanPSMT-1501"/>
     <use x="50.732422" xlink:href="#TimesNewRomanPSMT-1491"/>
    </g>
   </g>
   <g id="text_54">
    <!-- ךות -->
    <g transform="translate(104.501201 103.36373)scale(0.1 -0.1)">
     <use xlink:href="#TimesNewRomanPSMT-1498"/>
     <use x="45.214844" xlink:href="#TimesNewRomanPSMT-1493"/>
     <use x="73.095703" xlink:href="#TimesNewRomanPSMT-1514"/>
    </g>
   </g>
   <g id="text_55">
    <!-- הלע -->
    <g transform="translate(121.167575 382.23041)scale(0.1 -0.1)">
     <use xlink:href="#TimesNewRomanPSMT-1492"/>
     <use x="47.119141" xlink:href="#TimesNewRomanPSMT-1500"/>
     <use x="90.283203" xlink:href="#TimesNewRomanPSMT-1506"/>
    </g>
   </g>
   <g id="text_56">
    <!-- ןבא -->
    <g transform="translate(135.232875 339.417999)scale(0.1 -0.1)">
     <use xlink:href="#TimesNewRomanPSMT-1503"/>
     <use x="27.441406" xlink:href="#TimesNewRomanPSMT-1489"/>
     <use x="72.949219" xlink:href="#TimesNewRomanPSMT-1488"/>
    </g>
   </g>
   <g id="text_57">
    <!-- םחל -->
    <g transform="translate(140.959286 315.094231)scale(0.1 -0.1)">
     <use xlink:href="#TimesNewRomanPSMT-1501"/>
     <use x="50.732422" xlink:href="#TimesNewRomanPSMT-1495"/>
     <use x="98.388672" xlink:href="#TimesNewRomanPSMT-1500"/>
    </g>
   </g>
   <g id="text_58">
    <!-- םימש -->
    <g transform="translate(133.145602 230.779976)scale(0.1 -0.1)">
     <use xlink:href="#TimesNewRomanPSMT-1501"/>
     <use x="50.732422" xlink:href="#TimesNewRomanPSMT-1497"/>
     <use x="77.392578" xlink:href="#TimesNewRomanPSMT-1502"/>
     <use x="125.927734" xlink:href="#TimesNewRomanPSMT-1513"/>
    </g>
   </g>
   <g id="text_59">
    <!-- ןאצ -->
    <defs>
     <path d="M 41.453125 41.453125 
Q 39.84375 40.875 35.890625 40.4375 
Q 33.453125 38.09375 31.4375 33.6875 
Q 29.4375 29.296875 29.390625 26.125 
Q 29.390625 21.578125 33.640625 18.109375 
L 41.453125 11.71875 
L 38.875 0 
L 4.640625 0 
L 6.734375 9.96875 
L 33.34375 9.96875 
L 17.234375 22.859375 
Q 14.109375 25.34375 14.203125 28.46875 
L 14.453125 35.5 
Q 14.546875 38.328125 13.546875 39.6875 
Q 12.546875 41.0625 10.5 41.0625 
Q 2.984375 41.0625 2.984375 47.40625 
Q 2.984375 52 5.125 55.421875 
L 6.453125 55.421875 
Q 7.28125 51.859375 10.453125 51.65625 
L 12.15625 51.5625 
Q 15.53125 51.3125 16.796875 50.046875 
Q 18.0625 48.78125 18.0625 44.921875 
Q 18.0625 43.359375 17.671875 40.28125 
Q 17.28125 37.15625 17.28125 35.546875 
Q 17.28125 31.640625 20.015625 29.34375 
L 24.65625 25.484375 
Q 28.125 34.8125 32.625 40.828125 
Q 26.421875 42.1875 26.421875 47.40625 
Q 26.421875 51.46875 28.46875 55.421875 
L 29.828125 55.421875 
Q 30.28125 52 34.125 51.65625 
L 36.8125 51.46875 
Q 42.1875 51.03125 42.1875 45.75 
Q 42.1875 44 41.453125 41.453125 
z
" id="TimesNewRomanPSMT-1510"/>
    </defs>
    <g transform="translate(191.253931 329.110222)scale(0.1 -0.1)">
     <use xlink:href="#TimesNewRomanPSMT-1503"/>
     <use x="27.441406" xlink:href="#TimesNewRomanPSMT-1488"/>
     <use x="75.585938" xlink:href="#TimesNewRomanPSMT-1510"/>
    </g>
   </g>
   <g id="text_60">
    <!-- איבנ -->
    <g transform="translate(277.506372 259.876722)scale(0.1 -0.1)">
     <use xlink:href="#TimesNewRomanPSMT-1488"/>
     <use x="48.144531" xlink:href="#TimesNewRomanPSMT-1497"/>
     <use x="74.804688" xlink:href="#TimesNewRomanPSMT-1489"/>
     <use x="120.3125" xlink:href="#TimesNewRomanPSMT-1504"/>
    </g>
   </g>
   <g id="text_61">
    <!-- םדא -->
    <g transform="translate(235.924858 285.967739)scale(0.1 -0.1)">
     <use xlink:href="#TimesNewRomanPSMT-1501"/>
     <use x="50.732422" xlink:href="#TimesNewRomanPSMT-1491"/>
     <use x="92.626953" xlink:href="#TimesNewRomanPSMT-1488"/>
    </g>
   </g>
   <g id="text_62">
    <!-- םלוע -->
    <g transform="translate(176.290767 303.413772)scale(0.1 -0.1)">
     <use xlink:href="#TimesNewRomanPSMT-1501"/>
     <use x="50.732422" xlink:href="#TimesNewRomanPSMT-1500"/>
     <use x="93.896484" xlink:href="#TimesNewRomanPSMT-1493"/>
     <use x="121.777344" xlink:href="#TimesNewRomanPSMT-1506"/>
    </g>
   </g>
   <g id="text_63">
    <!-- ןודא -->
    <g transform="translate(287.833407 247.483768)scale(0.1 -0.1)">
     <use xlink:href="#TimesNewRomanPSMT-1503"/>
     <use x="27.441406" xlink:href="#TimesNewRomanPSMT-1493"/>
     <use x="55.322266" xlink:href="#TimesNewRomanPSMT-1491"/>
     <use x="97.216797" xlink:href="#TimesNewRomanPSMT-1488"/>
    </g>
   </g>
   <g id="text_64">
    <!-- דסח -->
    <g transform="translate(125.766113 353.567739)scale(0.1 -0.1)">
     <use xlink:href="#TimesNewRomanPSMT-1491"/>
     <use x="41.894531" xlink:href="#TimesNewRomanPSMT-1505"/>
     <use x="89.404297" xlink:href="#TimesNewRomanPSMT-1495"/>
    </g>
   </g>
   <g id="text_65">
    <!-- דגב -->
    <g transform="translate(170.629015 338.856941)scale(0.1 -0.1)">
     <use xlink:href="#TimesNewRomanPSMT-1491"/>
     <use x="41.894531" xlink:href="#TimesNewRomanPSMT-1490"/>
     <use x="75.439453" xlink:href="#TimesNewRomanPSMT-1489"/>
    </g>
   </g>
   <g id="text_66">
    <!-- הער -->
    <g transform="translate(138.923274 370.669453)scale(0.1 -0.1)">
     <use xlink:href="#TimesNewRomanPSMT-1492"/>
     <use x="47.119141" xlink:href="#TimesNewRomanPSMT-1506"/>
     <use x="92.529297" xlink:href="#TimesNewRomanPSMT-1512"/>
    </g>
   </g>
   <g id="text_67">
    <!-- רענ -->
    <g transform="translate(300.948413 287.210095)scale(0.1 -0.1)">
     <use xlink:href="#TimesNewRomanPSMT-1512"/>
     <use x="46.875" xlink:href="#TimesNewRomanPSMT-1506"/>
     <use x="92.285156" xlink:href="#TimesNewRomanPSMT-1504"/>
    </g>
   </g>
   <g id="text_68">
    <!-- רׂשב -->
    <g transform="translate(158.240934 276.672475)scale(0.1 -0.1)">
     <use xlink:href="#TimesNewRomanPSMT-1512"/>
     <use x="46.875" xlink:href="#TimesNewRomanPSMT-1474"/>
     <use x="46.875" xlink:href="#TimesNewRomanPSMT-1513"/>
     <use x="107.910156" xlink:href="#TimesNewRomanPSMT-1489"/>
    </g>
   </g>
   <g id="text_69">
    <!-- החנמ -->
    <g transform="translate(125.128923 391.505436)scale(0.1 -0.1)">
     <use xlink:href="#TimesNewRomanPSMT-1492"/>
     <use x="47.119141" xlink:href="#TimesNewRomanPSMT-1495"/>
     <use x="94.775391" xlink:href="#TimesNewRomanPSMT-1504"/>
     <use x="125.244141" xlink:href="#TimesNewRomanPSMT-1502"/>
    </g>
   </g>
   <g id="text_70">
    <!-- תאטח -->
    <g transform="translate(129.814936 349.38534)scale(0.1 -0.1)">
     <use xlink:href="#TimesNewRomanPSMT-1514"/>
     <use x="50" xlink:href="#TimesNewRomanPSMT-1488"/>
     <use x="98.144531" xlink:href="#TimesNewRomanPSMT-1496"/>
     <use x="145.703125" xlink:href="#TimesNewRomanPSMT-1495"/>
    </g>
   </g>
   <g id="text_71">
    <!-- םי -->
    <g transform="translate(140.785774 233.960621)scale(0.1 -0.1)">
     <use xlink:href="#TimesNewRomanPSMT-1501"/>
     <use x="50.732422" xlink:href="#TimesNewRomanPSMT-1497"/>
    </g>
   </g>
   <g id="text_72">
    <!-- ליא -->
    <g transform="translate(166.796533 360.361155)scale(0.1 -0.1)">
     <use xlink:href="#TimesNewRomanPSMT-1500"/>
     <use x="43.164062" xlink:href="#TimesNewRomanPSMT-1497"/>
     <use x="69.824219" xlink:href="#TimesNewRomanPSMT-1488"/>
    </g>
   </g>
   <g id="text_73">
    <!-- להא -->
    <g transform="translate(129.853893 162.478582)scale(0.1 -0.1)">
     <use xlink:href="#TimesNewRomanPSMT-1500"/>
     <use x="43.164062" xlink:href="#TimesNewRomanPSMT-1492"/>
     <use x="90.283203" xlink:href="#TimesNewRomanPSMT-1488"/>
    </g>
   </g>
   <g id="text_74">
    <!-- בבל -->
    <g transform="translate(139.63706 289.540554)scale(0.1 -0.1)">
     <use xlink:href="#TimesNewRomanPSMT-1489"/>
     <use x="45.507812" xlink:href="#TimesNewRomanPSMT-1489"/>
     <use x="91.015625" xlink:href="#TimesNewRomanPSMT-1500"/>
    </g>
   </g>
   <g id="text_75">
    <!-- ערז -->
    <g transform="translate(218.078248 285.427303)scale(0.1 -0.1)">
     <use xlink:href="#TimesNewRomanPSMT-1506"/>
     <use x="45.410156" xlink:href="#TimesNewRomanPSMT-1512"/>
     <use x="92.285156" xlink:href="#TimesNewRomanPSMT-1494"/>
    </g>
   </g>
   <g id="text_76">
    <!-- רבדמ -->
    <g transform="translate(110.823056 125.532555)scale(0.1 -0.1)">
     <use xlink:href="#TimesNewRomanPSMT-1512"/>
     <use x="46.875" xlink:href="#TimesNewRomanPSMT-1489"/>
     <use x="92.382812" xlink:href="#TimesNewRomanPSMT-1491"/>
     <use x="134.277344" xlink:href="#TimesNewRomanPSMT-1502"/>
    </g>
   </g>
   <g id="text_77">
    <!-- רעש -->
    <g transform="translate(143.578846 196.266892)scale(0.1 -0.1)">
     <use xlink:href="#TimesNewRomanPSMT-1512"/>
     <use x="46.875" xlink:href="#TimesNewRomanPSMT-1506"/>
     <use x="92.285156" xlink:href="#TimesNewRomanPSMT-1513"/>
    </g>
   </g>
   <g id="text_78">
    <!-- ביבס -->
    <g transform="translate(163.360815 250.288887)scale(0.1 -0.1)">
     <use xlink:href="#TimesNewRomanPSMT-1489"/>
     <use x="45.507812" xlink:href="#TimesNewRomanPSMT-1497"/>
     <use x="72.167969" xlink:href="#TimesNewRomanPSMT-1489"/>
     <use x="117.675781" xlink:href="#TimesNewRomanPSMT-1505"/>
    </g>
   </g>
   <g id="text_79">
    <!-- הערפ -->
    <g transform="translate(314.762381 229.737321)scale(0.1 -0.1)">
     <use xlink:href="#TimesNewRomanPSMT-1492"/>
     <use x="47.119141" xlink:href="#TimesNewRomanPSMT-1506"/>
     <use x="92.529297" xlink:href="#TimesNewRomanPSMT-1512"/>
     <use x="139.404297" xlink:href="#TimesNewRomanPSMT-1508"/>
    </g>
   </g>
   <g id="text_80">
    <!-- המחלמ -->
    <g transform="translate(141.255037 290.08775)scale(0.1 -0.1)">
     <use xlink:href="#TimesNewRomanPSMT-1492"/>
     <use x="47.119141" xlink:href="#TimesNewRomanPSMT-1502"/>
     <use x="95.654297" xlink:href="#TimesNewRomanPSMT-1495"/>
     <use x="143.310547" xlink:href="#TimesNewRomanPSMT-1500"/>
     <use x="186.474609" xlink:href="#TimesNewRomanPSMT-1502"/>
    </g>
   </g>
   <g id="text_81">
    <!-- דאמ -->
    <g transform="translate(178.204586 300.665307)scale(0.1 -0.1)">
     <use xlink:href="#TimesNewRomanPSMT-1491"/>
     <use x="41.894531" xlink:href="#TimesNewRomanPSMT-1488"/>
     <use x="90.039062" xlink:href="#TimesNewRomanPSMT-1502"/>
    </g>
   </g>
   <g id="text_82">
    <!-- ףא -->
    <g transform="translate(166.703002 292.064836)scale(0.1 -0.1)">
     <use xlink:href="#TimesNewRomanPSMT-1507"/>
     <use x="45.410156" xlink:href="#TimesNewRomanPSMT-1488"/>
    </g>
   </g>
   <g id="text_83">
    <!-- הוצמ -->
    <g transform="translate(114.896166 364.287499)scale(0.1 -0.1)">
     <use xlink:href="#TimesNewRomanPSMT-1492"/>
     <use x="47.119141" xlink:href="#TimesNewRomanPSMT-1493"/>
     <use x="75" xlink:href="#TimesNewRomanPSMT-1510"/>
     <use x="120.996094" xlink:href="#TimesNewRomanPSMT-1502"/>
    </g>
   </g>
   <g id="text_84">
    <!-- שרגמ -->
    <g transform="translate(160.952696 259.138056)scale(0.1 -0.1)">
     <use xlink:href="#TimesNewRomanPSMT-1513"/>
     <use x="61.035156" xlink:href="#TimesNewRomanPSMT-1512"/>
     <use x="107.910156" xlink:href="#TimesNewRomanPSMT-1490"/>
     <use x="141.455078" xlink:href="#TimesNewRomanPSMT-1502"/>
    </g>
   </g>
   <g id="text_85">
    <!-- ןוע -->
    <g transform="translate(155.372199 320.354789)scale(0.1 -0.1)">
     <use xlink:href="#TimesNewRomanPSMT-1503"/>
     <use x="27.441406" xlink:href="#TimesNewRomanPSMT-1493"/>
     <use x="55.322266" xlink:href="#TimesNewRomanPSMT-1506"/>
    </g>
   </g>
   <g id="text_86">
    <!-- תירב -->
    <g transform="translate(137.029821 323.383489)scale(0.1 -0.1)">
     <use xlink:href="#TimesNewRomanPSMT-1514"/>
     <use x="50" xlink:href="#TimesNewRomanPSMT-1497"/>
     <use x="76.660156" xlink:href="#TimesNewRomanPSMT-1512"/>
     <use x="123.535156" xlink:href="#TimesNewRomanPSMT-1489"/>
    </g>
   </g>
   <g id="text_87">
    <!-- םולש -->
    <g transform="translate(156.529914 310.769522)scale(0.1 -0.1)">
     <use xlink:href="#TimesNewRomanPSMT-1501"/>
     <use x="50.732422" xlink:href="#TimesNewRomanPSMT-1493"/>
     <use x="78.613281" xlink:href="#TimesNewRomanPSMT-1500"/>
     <use x="121.777344" xlink:href="#TimesNewRomanPSMT-1513"/>
    </g>
   </g>
   <g id="text_88">
    <!-- המהב -->
    <g transform="translate(197.82869 290.869585)scale(0.1 -0.1)">
     <use xlink:href="#TimesNewRomanPSMT-1492"/>
     <use x="47.119141" xlink:href="#TimesNewRomanPSMT-1502"/>
     <use x="95.654297" xlink:href="#TimesNewRomanPSMT-1492"/>
     <use x="142.773438" xlink:href="#TimesNewRomanPSMT-1489"/>
    </g>
   </g>
   <g id="text_89">
    <!-- ךאלמ -->
    <g transform="translate(293.526733 289.18366)scale(0.1 -0.1)">
     <use xlink:href="#TimesNewRomanPSMT-1498"/>
     <use x="45.214844" xlink:href="#TimesNewRomanPSMT-1488"/>
     <use x="93.359375" xlink:href="#TimesNewRomanPSMT-1500"/>
     <use x="136.523438" xlink:href="#TimesNewRomanPSMT-1502"/>
    </g>
   </g>
   <g id="text_90">
    <!-- תע -->
    <g transform="translate(147.026126 353.013935)scale(0.1 -0.1)">
     <use xlink:href="#TimesNewRomanPSMT-1514"/>
     <use x="50" xlink:href="#TimesNewRomanPSMT-1506"/>
    </g>
   </g>
   <g id="text_91">
    <!-- הליל -->
    <g transform="translate(157.059591 331.347052)scale(0.1 -0.1)">
     <use xlink:href="#TimesNewRomanPSMT-1492"/>
     <use x="47.119141" xlink:href="#TimesNewRomanPSMT-1500"/>
     <use x="90.283203" xlink:href="#TimesNewRomanPSMT-1497"/>
     <use x="116.943359" xlink:href="#TimesNewRomanPSMT-1500"/>
    </g>
   </g>
   <g id="text_92">
    <!-- לובג -->
    <g transform="translate(189.078015 252.654678)scale(0.1 -0.1)">
     <use xlink:href="#TimesNewRomanPSMT-1500"/>
     <use x="43.164062" xlink:href="#TimesNewRomanPSMT-1493"/>
     <use x="71.044922" xlink:href="#TimesNewRomanPSMT-1489"/>
     <use x="116.552734" xlink:href="#TimesNewRomanPSMT-1490"/>
    </g>
   </g>
   <g id="text_93">
    <!-- רקב -->
    <g transform="translate(174.191862 338.670857)scale(0.1 -0.1)">
     <use xlink:href="#TimesNewRomanPSMT-1512"/>
     <use x="46.875" xlink:href="#TimesNewRomanPSMT-1511"/>
     <use x="94.238281" xlink:href="#TimesNewRomanPSMT-1489"/>
    </g>
   </g>
   <g id="text_94">
    <!-- דובכ -->
    <g transform="translate(154.456895 272.656784)scale(0.1 -0.1)">
     <use xlink:href="#TimesNewRomanPSMT-1491"/>
     <use x="41.894531" xlink:href="#TimesNewRomanPSMT-1493"/>
     <use x="69.775391" xlink:href="#TimesNewRomanPSMT-1489"/>
     <use x="115.283203" xlink:href="#TimesNewRomanPSMT-1499"/>
    </g>
   </g>
   <g id="text_95">
    <!-- רפ -->
    <g transform="translate(164.718132 372.445582)scale(0.1 -0.1)">
     <use xlink:href="#TimesNewRomanPSMT-1512"/>
     <use x="46.875" xlink:href="#TimesNewRomanPSMT-1508"/>
    </g>
   </g>
   <g id="text_96">
    <!-- הדׂש -->
    <g transform="translate(148.59985 200.616725)scale(0.1 -0.1)">
     <use xlink:href="#TimesNewRomanPSMT-1492"/>
     <use x="47.119141" xlink:href="#TimesNewRomanPSMT-1491"/>
     <use x="89.013672" xlink:href="#TimesNewRomanPSMT-1474"/>
     <use x="89.013672" xlink:href="#TimesNewRomanPSMT-1513"/>
    </g>
   </g>
   <g id="text_97">
    <!-- הׂשעמ -->
    <g transform="translate(144.20107 328.387324)scale(0.1 -0.1)">
     <use xlink:href="#TimesNewRomanPSMT-1492"/>
     <use x="47.119141" xlink:href="#TimesNewRomanPSMT-1474"/>
     <use x="47.119141" xlink:href="#TimesNewRomanPSMT-1513"/>
     <use x="108.154297" xlink:href="#TimesNewRomanPSMT-1506"/>
     <use x="153.564453" xlink:href="#TimesNewRomanPSMT-1502"/>
    </g>
   </g>
   <g id="text_98">
    <!-- לא -->
    <g transform="translate(208.415173 276.439701)scale(0.1 -0.1)">
     <use xlink:href="#TimesNewRomanPSMT-1500"/>
     <use x="43.164062" xlink:href="#TimesNewRomanPSMT-1488"/>
    </g>
   </g>
   <g id="text_99">
    <!-- המא -->
    <g transform="translate(176.035098 297.838272)scale(0.1 -0.1)">
     <use xlink:href="#TimesNewRomanPSMT-1492"/>
     <use x="47.119141" xlink:href="#TimesNewRomanPSMT-1502"/>
     <use x="95.654297" xlink:href="#TimesNewRomanPSMT-1488"/>
    </g>
   </g>
   <g id="text_100">
    <!-- ברק -->
    <g transform="translate(134.170717 164.436507)scale(0.1 -0.1)">
     <use xlink:href="#TimesNewRomanPSMT-1489"/>
     <use x="45.507812" xlink:href="#TimesNewRomanPSMT-1512"/>
     <use x="92.382812" xlink:href="#TimesNewRomanPSMT-1511"/>
    </g>
   </g>
   <g id="text_101">
    <!-- םא -->
    <g transform="translate(253.933491 278.220218)scale(0.1 -0.1)">
     <use xlink:href="#TimesNewRomanPSMT-1501"/>
     <use x="50.732422" xlink:href="#TimesNewRomanPSMT-1488"/>
    </g>
   </g>
   <g id="text_102">
    <!-- רוד -->
    <g transform="translate(199.631779 291.079633)scale(0.1 -0.1)">
     <use xlink:href="#TimesNewRomanPSMT-1512"/>
     <use x="46.875" xlink:href="#TimesNewRomanPSMT-1493"/>
     <use x="74.755859" xlink:href="#TimesNewRomanPSMT-1491"/>
    </g>
   </g>
   <g id="text_103">
    <!-- הטמ -->
    <g transform="translate(184.77635 305.343767)scale(0.1 -0.1)">
     <use xlink:href="#TimesNewRomanPSMT-1492"/>
     <use x="47.119141" xlink:href="#TimesNewRomanPSMT-1496"/>
     <use x="94.677734" xlink:href="#TimesNewRomanPSMT-1502"/>
    </g>
   </g>
   <g id="text_104">
    <!-- רקב -->
    <g transform="translate(168.783308 322.820923)scale(0.1 -0.1)">
     <use xlink:href="#TimesNewRomanPSMT-1512"/>
     <use x="46.875" xlink:href="#TimesNewRomanPSMT-1511"/>
     <use x="94.238281" xlink:href="#TimesNewRomanPSMT-1489"/>
    </g>
   </g>
   <g id="text_105">
    <!-- ןורא -->
    <g transform="translate(170.031418 335.527232)scale(0.1 -0.1)">
     <use xlink:href="#TimesNewRomanPSMT-1503"/>
     <use x="27.441406" xlink:href="#TimesNewRomanPSMT-1493"/>
     <use x="55.322266" xlink:href="#TimesNewRomanPSMT-1512"/>
     <use x="102.197266" xlink:href="#TimesNewRomanPSMT-1488"/>
    </g>
   </g>
   <g id="text_106">
    <!-- לגר -->
    <g transform="translate(158.038858 298.298791)scale(0.1 -0.1)">
     <use xlink:href="#TimesNewRomanPSMT-1500"/>
     <use x="43.164062" xlink:href="#TimesNewRomanPSMT-1490"/>
     <use x="76.708984" xlink:href="#TimesNewRomanPSMT-1512"/>
    </g>
   </g>
   <g id="text_107">
    <!-- ףכ -->
    <g transform="translate(142.11722 290.657961)scale(0.1 -0.1)">
     <use xlink:href="#TimesNewRomanPSMT-1507"/>
     <use x="45.410156" xlink:href="#TimesNewRomanPSMT-1499"/>
    </g>
   </g>
   <g id="text_108">
    <!-- טבש -->
    <g transform="translate(224.480056 281.688431)scale(0.1 -0.1)">
     <use xlink:href="#TimesNewRomanPSMT-1496"/>
     <use x="47.558594" xlink:href="#TimesNewRomanPSMT-1489"/>
     <use x="93.066406" xlink:href="#TimesNewRomanPSMT-1513"/>
    </g>
   </g>
   <g id="text_109">
    <!-- הרות -->
    <g transform="translate(118.79751 362.408405)scale(0.1 -0.1)">
     <use xlink:href="#TimesNewRomanPSMT-1492"/>
     <use x="47.119141" xlink:href="#TimesNewRomanPSMT-1512"/>
     <use x="93.994141" xlink:href="#TimesNewRomanPSMT-1493"/>
     <use x="121.875" xlink:href="#TimesNewRomanPSMT-1514"/>
    </g>
   </g>
   <g id="text_110">
    <!-- ןזא -->
    <g transform="translate(167.342694 292.167394)scale(0.1 -0.1)">
     <use xlink:href="#TimesNewRomanPSMT-1503"/>
     <use x="27.441406" xlink:href="#TimesNewRomanPSMT-1494"/>
     <use x="56.054688" xlink:href="#TimesNewRomanPSMT-1488"/>
    </g>
   </g>
   <g id="text_111">
    <!-- רצח -->
    <g transform="translate(140.450865 197.772403)scale(0.1 -0.1)">
     <use xlink:href="#TimesNewRomanPSMT-1512"/>
     <use x="46.875" xlink:href="#TimesNewRomanPSMT-1510"/>
     <use x="92.871094" xlink:href="#TimesNewRomanPSMT-1495"/>
    </g>
   </g>
   <g id="text_112">
    <!-- שדק -->
    <g transform="translate(141.478964 276.092554)scale(0.1 -0.1)">
     <use xlink:href="#TimesNewRomanPSMT-1513"/>
     <use x="61.035156" xlink:href="#TimesNewRomanPSMT-1491"/>
     <use x="102.929688" xlink:href="#TimesNewRomanPSMT-1511"/>
    </g>
   </g>
   <g id="text_113">
    <!-- קח -->
    <g transform="translate(121.837025 357.597533)scale(0.1 -0.1)">
     <use xlink:href="#TimesNewRomanPSMT-1511"/>
     <use x="47.363281" xlink:href="#TimesNewRomanPSMT-1495"/>
    </g>
   </g>
   <g id="text_114">
    <!-- הלחנ -->
    <g transform="translate(177.481529 247.82749)scale(0.1 -0.1)">
     <use xlink:href="#TimesNewRomanPSMT-1492"/>
     <use x="47.119141" xlink:href="#TimesNewRomanPSMT-1500"/>
     <use x="90.283203" xlink:href="#TimesNewRomanPSMT-1495"/>
     <use x="137.939453" xlink:href="#TimesNewRomanPSMT-1504"/>
    </g>
   </g>
   <g id="text_115">
    <!-- ליח -->
    <g transform="translate(179.813847 308.575344)scale(0.1 -0.1)">
     <use xlink:href="#TimesNewRomanPSMT-1500"/>
     <use x="43.164062" xlink:href="#TimesNewRomanPSMT-1497"/>
     <use x="69.824219" xlink:href="#TimesNewRomanPSMT-1495"/>
    </g>
   </g>
   <g id="text_116">
    <!-- בלח -->
    <g transform="translate(145.46892 354.079367)scale(0.1 -0.1)">
     <use xlink:href="#TimesNewRomanPSMT-1489"/>
     <use x="45.507812" xlink:href="#TimesNewRomanPSMT-1500"/>
     <use x="88.671875" xlink:href="#TimesNewRomanPSMT-1495"/>
    </g>
   </g>
   <g id="text_117">
    <!-- המכח -->
    <g transform="translate(147.40484 305.426813)scale(0.1 -0.1)">
     <use xlink:href="#TimesNewRomanPSMT-1492"/>
     <use x="47.119141" xlink:href="#TimesNewRomanPSMT-1502"/>
     <use x="95.654297" xlink:href="#TimesNewRomanPSMT-1499"/>
     <use x="138.916016" xlink:href="#TimesNewRomanPSMT-1495"/>
    </g>
   </g>
   <g id="text_118">
    <!-- הקדצ -->
    <g transform="translate(149.586926 335.777129)scale(0.1 -0.1)">
     <use xlink:href="#TimesNewRomanPSMT-1492"/>
     <use x="47.119141" xlink:href="#TimesNewRomanPSMT-1511"/>
     <use x="94.482422" xlink:href="#TimesNewRomanPSMT-1491"/>
     <use x="136.376953" xlink:href="#TimesNewRomanPSMT-1510"/>
    </g>
   </g>
   <g id="text_119">
    <!-- ׂשבכ -->
    <g transform="translate(149.627693 369.634543)scale(0.1 -0.1)">
     <use xlink:href="#TimesNewRomanPSMT-1474"/>
     <use xlink:href="#TimesNewRomanPSMT-1513"/>
     <use x="61.035156" xlink:href="#TimesNewRomanPSMT-1489"/>
     <use x="106.542969" xlink:href="#TimesNewRomanPSMT-1499"/>
    </g>
   </g>
   <g id="text_120">
    <!-- סוס -->
    <g transform="translate(175.254306 300.279477)scale(0.1 -0.1)">
     <use xlink:href="#TimesNewRomanPSMT-1505"/>
     <use x="47.509766" xlink:href="#TimesNewRomanPSMT-1493"/>
     <use x="75.390625" xlink:href="#TimesNewRomanPSMT-1505"/>
    </g>
   </g>
   <g id="text_121">
    <!-- חבז -->
    <g transform="translate(144.361601 353.219582)scale(0.1 -0.1)">
     <use xlink:href="#TimesNewRomanPSMT-1495"/>
     <use x="47.65625" xlink:href="#TimesNewRomanPSMT-1489"/>
     <use x="93.164062" xlink:href="#TimesNewRomanPSMT-1494"/>
    </g>
   </g>
   <g id="text_122">
    <!-- הנחמ -->
    <g transform="translate(180.539749 178.135947)scale(0.1 -0.1)">
     <use xlink:href="#TimesNewRomanPSMT-1492"/>
     <use x="47.119141" xlink:href="#TimesNewRomanPSMT-1504"/>
     <use x="77.587891" xlink:href="#TimesNewRomanPSMT-1495"/>
     <use x="125.244141" xlink:href="#TimesNewRomanPSMT-1502"/>
    </g>
   </g>
   <g id="text_123">
    <!-- בכר -->
    <g transform="translate(194.845449 287.835202)scale(0.1 -0.1)">
     <use xlink:href="#TimesNewRomanPSMT-1489"/>
     <use x="45.507812" xlink:href="#TimesNewRomanPSMT-1499"/>
     <use x="88.769531" xlink:href="#TimesNewRomanPSMT-1512"/>
    </g>
   </g>
   <g id="text_124">
    <!-- ןיי -->
    <g transform="translate(174.619749 312.738272)scale(0.1 -0.1)">
     <use xlink:href="#TimesNewRomanPSMT-1503"/>
     <use x="27.441406" xlink:href="#TimesNewRomanPSMT-1497"/>
     <use x="54.101562" xlink:href="#TimesNewRomanPSMT-1497"/>
    </g>
   </g>
   <g id="text_125">
    <!-- המח -->
    <g transform="translate(174.680608 314.727639)scale(0.1 -0.1)">
     <use xlink:href="#TimesNewRomanPSMT-1492"/>
     <use x="47.119141" xlink:href="#TimesNewRomanPSMT-1502"/>
     <use x="95.654297" xlink:href="#TimesNewRomanPSMT-1495"/>
    </g>
   </g>
   <g id="text_126">
    <!-- איׂשנ -->
    <g transform="translate(257.415004 308.234778)scale(0.1 -0.1)">
     <use xlink:href="#TimesNewRomanPSMT-1488"/>
     <use x="48.144531" xlink:href="#TimesNewRomanPSMT-1497"/>
     <use x="74.804688" xlink:href="#TimesNewRomanPSMT-1474"/>
     <use x="74.804688" xlink:href="#TimesNewRomanPSMT-1513"/>
     <use x="135.839844" xlink:href="#TimesNewRomanPSMT-1504"/>
    </g>
   </g>
   <g id="text_127">
    <!-- ירפ -->
    <g transform="translate(150.745862 310.949543)scale(0.1 -0.1)">
     <use xlink:href="#TimesNewRomanPSMT-1497"/>
     <use x="26.660156" xlink:href="#TimesNewRomanPSMT-1512"/>
     <use x="73.535156" xlink:href="#TimesNewRomanPSMT-1508"/>
    </g>
   </g>
   <g id="text_128">
    <!-- עורז -->
    <g transform="translate(164.950537 306.090766)scale(0.1 -0.1)">
     <use xlink:href="#TimesNewRomanPSMT-1506"/>
     <use x="45.410156" xlink:href="#TimesNewRomanPSMT-1493"/>
     <use x="73.291016" xlink:href="#TimesNewRomanPSMT-1512"/>
     <use x="120.166016" xlink:href="#TimesNewRomanPSMT-1494"/>
    </g>
   </g>
   <g id="text_129">
    <!-- ןמש -->
    <g transform="translate(160.780865 323.980032)scale(0.1 -0.1)">
     <use xlink:href="#TimesNewRomanPSMT-1503"/>
     <use x="27.441406" xlink:href="#TimesNewRomanPSMT-1502"/>
     <use x="75.976562" xlink:href="#TimesNewRomanPSMT-1513"/>
    </g>
   </g>
   <g id="text_130">
    <!-- ץוח -->
    <g transform="translate(152.173969 222.862166)scale(0.1 -0.1)">
     <use xlink:href="#TimesNewRomanPSMT-1509"/>
     <use x="48.242188" xlink:href="#TimesNewRomanPSMT-1493"/>
     <use x="76.123047" xlink:href="#TimesNewRomanPSMT-1495"/>
    </g>
   </g>
   <g id="text_131">
    <!-- תמא -->
    <g transform="translate(145.507473 333.366381)scale(0.1 -0.1)">
     <use xlink:href="#TimesNewRomanPSMT-1514"/>
     <use x="50" xlink:href="#TimesNewRomanPSMT-1502"/>
     <use x="98.535156" xlink:href="#TimesNewRomanPSMT-1488"/>
    </g>
   </g>
   <g id="text_132">
    <!-- לעב -->
    <g transform="translate(206.35322 280.829726)scale(0.1 -0.1)">
     <use xlink:href="#TimesNewRomanPSMT-1500"/>
     <use x="43.164062" xlink:href="#TimesNewRomanPSMT-1506"/>
     <use x="88.574219" xlink:href="#TimesNewRomanPSMT-1489"/>
    </g>
   </g>
   <g id="text_133">
    <!-- הדע -->
    <g transform="translate(267.852038 282.474789)scale(0.1 -0.1)">
     <use xlink:href="#TimesNewRomanPSMT-1492"/>
     <use x="47.119141" xlink:href="#TimesNewRomanPSMT-1491"/>
     <use x="89.013672" xlink:href="#TimesNewRomanPSMT-1506"/>
    </g>
   </g>
   <g id="text_134">
    <!-- המדא -->
    <g transform="translate(176.549649 209.356302)scale(0.1 -0.1)">
     <use xlink:href="#TimesNewRomanPSMT-1492"/>
     <use x="47.119141" xlink:href="#TimesNewRomanPSMT-1502"/>
     <use x="95.654297" xlink:href="#TimesNewRomanPSMT-1491"/>
     <use x="137.548828" xlink:href="#TimesNewRomanPSMT-1488"/>
    </g>
   </g>
   <g id="text_135">
    <!-- הקח -->
    <g transform="translate(134.95775 345.78123)scale(0.1 -0.1)">
     <use xlink:href="#TimesNewRomanPSMT-1492"/>
     <use x="47.119141" xlink:href="#TimesNewRomanPSMT-1511"/>
     <use x="94.482422" xlink:href="#TimesNewRomanPSMT-1495"/>
    </g>
   </g>
   <g id="text_136">
    <!-- ןימי -->
    <g transform="translate(167.960166 287.783974)scale(0.1 -0.1)">
     <use xlink:href="#TimesNewRomanPSMT-1503"/>
     <use x="27.441406" xlink:href="#TimesNewRomanPSMT-1497"/>
     <use x="54.101562" xlink:href="#TimesNewRomanPSMT-1502"/>
     <use x="102.636719" xlink:href="#TimesNewRomanPSMT-1497"/>
    </g>
   </g>
   <g id="text_137">
    <!-- שדח -->
    <g transform="translate(148.546532 339.454123)scale(0.1 -0.1)">
     <use xlink:href="#TimesNewRomanPSMT-1513"/>
     <use x="61.035156" xlink:href="#TimesNewRomanPSMT-1491"/>
     <use x="102.929688" xlink:href="#TimesNewRomanPSMT-1495"/>
    </g>
   </g>
   <g id="text_138">
    <!-- רג -->
    <g transform="translate(238.980611 301.821563)scale(0.1 -0.1)">
     <use xlink:href="#TimesNewRomanPSMT-1512"/>
     <use x="46.875" xlink:href="#TimesNewRomanPSMT-1490"/>
    </g>
   </g>
   <g id="text_139">
    <!-- בער -->
    <g transform="translate(176.978018 302.432755)scale(0.1 -0.1)">
     <use xlink:href="#TimesNewRomanPSMT-1489"/>
     <use x="45.507812" xlink:href="#TimesNewRomanPSMT-1506"/>
     <use x="90.917969" xlink:href="#TimesNewRomanPSMT-1512"/>
    </g>
   </g>
   <g id="text_140">
    <!-- אבצ -->
    <g transform="translate(187.591286 279.292649)scale(0.1 -0.1)">
     <use xlink:href="#TimesNewRomanPSMT-1488"/>
     <use x="48.144531" xlink:href="#TimesNewRomanPSMT-1489"/>
     <use x="93.652344" xlink:href="#TimesNewRomanPSMT-1510"/>
    </g>
   </g>
   <g id="text_141">
    <!-- המוח -->
    <g transform="translate(159.443807 238.368356)scale(0.1 -0.1)">
     <use xlink:href="#TimesNewRomanPSMT-1492"/>
     <use x="47.119141" xlink:href="#TimesNewRomanPSMT-1502"/>
     <use x="95.654297" xlink:href="#TimesNewRomanPSMT-1493"/>
     <use x="123.535156" xlink:href="#TimesNewRomanPSMT-1495"/>
    </g>
   </g>
   <g id="text_142">
    <!-- שמש -->
    <g transform="translate(207.940001 293.742992)scale(0.1 -0.1)">
     <use xlink:href="#TimesNewRomanPSMT-1513"/>
     <use x="61.035156" xlink:href="#TimesNewRomanPSMT-1502"/>
     <use x="109.570312" xlink:href="#TimesNewRomanPSMT-1513"/>
    </g>
   </g>
   <g id="text_143">
    <!-- להק -->
    <g transform="translate(224.61098 281.172457)scale(0.1 -0.1)">
     <use xlink:href="#TimesNewRomanPSMT-1500"/>
     <use x="43.164062" xlink:href="#TimesNewRomanPSMT-1492"/>
     <use x="90.283203" xlink:href="#TimesNewRomanPSMT-1511"/>
    </g>
   </g>
   <g id="text_144">
    <!-- רובג -->
    <g transform="translate(239.106512 286.553459)scale(0.1 -0.1)">
     <use xlink:href="#TimesNewRomanPSMT-1512"/>
     <use x="46.875" xlink:href="#TimesNewRomanPSMT-1493"/>
     <use x="74.755859" xlink:href="#TimesNewRomanPSMT-1489"/>
     <use x="120.263672" xlink:href="#TimesNewRomanPSMT-1490"/>
    </g>
   </g>
   <g id="text_145">
    <!-- היח -->
    <g transform="translate(197.308525 301.084547)scale(0.1 -0.1)">
     <use xlink:href="#TimesNewRomanPSMT-1492"/>
     <use x="47.119141" xlink:href="#TimesNewRomanPSMT-1497"/>
     <use x="73.779297" xlink:href="#TimesNewRomanPSMT-1495"/>
    </g>
   </g>
   <g id="text_146">
    <!-- דב -->
    <g transform="translate(135.74074 336.081727)scale(0.1 -0.1)">
     <use xlink:href="#TimesNewRomanPSMT-1491"/>
     <use x="41.894531" xlink:href="#TimesNewRomanPSMT-1489"/>
    </g>
   </g>
   <g id="text_147">
    <!-- רומח -->
    <g transform="translate(199.717995 315.848023)scale(0.1 -0.1)">
     <use xlink:href="#TimesNewRomanPSMT-1512"/>
     <use x="46.875" xlink:href="#TimesNewRomanPSMT-1493"/>
     <use x="74.755859" xlink:href="#TimesNewRomanPSMT-1502"/>
     <use x="123.291016" xlink:href="#TimesNewRomanPSMT-1495"/>
    </g>
   </g>
   <g id="text_148">
    <!-- חתפ -->
    <g transform="translate(165.30699 217.972193)scale(0.1 -0.1)">
     <use xlink:href="#TimesNewRomanPSMT-1495"/>
     <use x="47.65625" xlink:href="#TimesNewRomanPSMT-1514"/>
     <use x="97.65625" xlink:href="#TimesNewRomanPSMT-1508"/>
    </g>
   </g>
   <g id="text_149">
    <!-- רכב -->
    <g transform="translate(220.538102 304.445724)scale(0.1 -0.1)">
     <use xlink:href="#TimesNewRomanPSMT-1512"/>
     <use x="46.875" xlink:href="#TimesNewRomanPSMT-1499"/>
     <use x="90.136719" xlink:href="#TimesNewRomanPSMT-1489"/>
    </g>
   </g>
   <g id="text_150">
    <!-- הדבע -->
    <g transform="translate(165.674758 304.757477)scale(0.1 -0.1)">
     <use xlink:href="#TimesNewRomanPSMT-1492"/>
     <use x="47.119141" xlink:href="#TimesNewRomanPSMT-1491"/>
     <use x="89.013672" xlink:href="#TimesNewRomanPSMT-1489"/>
     <use x="134.521484" xlink:href="#TimesNewRomanPSMT-1506"/>
    </g>
   </g>
   <g id="text_151">
    <!-- החמׂש -->
    <g transform="translate(168.536672 314.526729)scale(0.1 -0.1)">
     <use xlink:href="#TimesNewRomanPSMT-1492"/>
     <use x="47.119141" xlink:href="#TimesNewRomanPSMT-1495"/>
     <use x="94.775391" xlink:href="#TimesNewRomanPSMT-1502"/>
     <use x="143.310547" xlink:href="#TimesNewRomanPSMT-1474"/>
     <use x="143.310547" xlink:href="#TimesNewRomanPSMT-1513"/>
    </g>
   </g>
   <g id="text_152">
    <!-- רוא -->
    <g transform="translate(167.537417 293.134318)scale(0.1 -0.1)">
     <use xlink:href="#TimesNewRomanPSMT-1512"/>
     <use x="46.875" xlink:href="#TimesNewRomanPSMT-1493"/>
     <use x="74.755859" xlink:href="#TimesNewRomanPSMT-1488"/>
    </g>
   </g>
   <g id="text_153">
    <!-- ער -->
    <g transform="translate(229.734762 283.48736)scale(0.1 -0.1)">
     <use xlink:href="#TimesNewRomanPSMT-1506"/>
     <use x="45.410156" xlink:href="#TimesNewRomanPSMT-1512"/>
    </g>
   </g>
   <g id="text_154">
    <!-- חכ -->
    <g transform="translate(157.021785 317.396743)scale(0.1 -0.1)">
     <use xlink:href="#TimesNewRomanPSMT-1495"/>
     <use x="47.65625" xlink:href="#TimesNewRomanPSMT-1499"/>
    </g>
   </g>
   <g id="text_155">
    <!-- םצע -->
    <g transform="translate(178.229612 305.887348)scale(0.1 -0.1)">
     <use xlink:href="#TimesNewRomanPSMT-1501"/>
     <use x="50.732422" xlink:href="#TimesNewRomanPSMT-1510"/>
     <use x="96.728516" xlink:href="#TimesNewRomanPSMT-1506"/>
    </g>
   </g>
   <g id="text_156">
    <!-- רפס -->
    <g transform="translate(155.772556 332.142099)scale(0.1 -0.1)">
     <use xlink:href="#TimesNewRomanPSMT-1512"/>
     <use x="46.875" xlink:href="#TimesNewRomanPSMT-1508"/>
     <use x="90.917969" xlink:href="#TimesNewRomanPSMT-1505"/>
    </g>
   </g>
   <g id="text_157">
    <!-- דומע -->
    <g transform="translate(156.051704 315.485311)scale(0.1 -0.1)">
     <use xlink:href="#TimesNewRomanPSMT-1491"/>
     <use x="41.894531" xlink:href="#TimesNewRomanPSMT-1493"/>
     <use x="69.775391" xlink:href="#TimesNewRomanPSMT-1502"/>
     <use x="118.310547" xlink:href="#TimesNewRomanPSMT-1506"/>
    </g>
   </g>
   <g id="text_158">
    <!-- ברע -->
    <g transform="translate(173.038082 312.063756)scale(0.1 -0.1)">
     <use xlink:href="#TimesNewRomanPSMT-1489"/>
     <use x="45.507812" xlink:href="#TimesNewRomanPSMT-1512"/>
     <use x="92.382812" xlink:href="#TimesNewRomanPSMT-1506"/>
    </g>
   </g>
   <g id="text_159">
    <!-- רפע -->
    <g transform="translate(160.506209 280.220268)scale(0.1 -0.1)">
     <use xlink:href="#TimesNewRomanPSMT-1512"/>
     <use x="46.875" xlink:href="#TimesNewRomanPSMT-1508"/>
     <use x="90.917969" xlink:href="#TimesNewRomanPSMT-1506"/>
    </g>
   </g>
   <g id="text_160">
    <!-- םרכ -->
    <g transform="translate(159.699343 262.001629)scale(0.1 -0.1)">
     <use xlink:href="#TimesNewRomanPSMT-1501"/>
     <use x="50.732422" xlink:href="#TimesNewRomanPSMT-1512"/>
     <use x="97.607422" xlink:href="#TimesNewRomanPSMT-1499"/>
    </g>
   </g>
   <g id="text_161">
    <!-- אסכ -->
    <g transform="translate(157.45184 284.71215)scale(0.1 -0.1)">
     <use xlink:href="#TimesNewRomanPSMT-1488"/>
     <use x="48.144531" xlink:href="#TimesNewRomanPSMT-1505"/>
     <use x="95.654297" xlink:href="#TimesNewRomanPSMT-1499"/>
    </g>
   </g>
   <g id="text_162">
    <!-- הבעות -->
    <g transform="translate(140.906672 337.050158)scale(0.1 -0.1)">
     <use xlink:href="#TimesNewRomanPSMT-1492"/>
     <use x="47.119141" xlink:href="#TimesNewRomanPSMT-1489"/>
     <use x="92.626953" xlink:href="#TimesNewRomanPSMT-1506"/>
     <use x="138.037109" xlink:href="#TimesNewRomanPSMT-1493"/>
     <use x="165.917969" xlink:href="#TimesNewRomanPSMT-1514"/>
    </g>
   </g>
   <g id="text_163">
    <!-- תלד -->
    <g transform="translate(166.284461 288.434641)scale(0.1 -0.1)">
     <use xlink:href="#TimesNewRomanPSMT-1514"/>
     <use x="50" xlink:href="#TimesNewRomanPSMT-1500"/>
     <use x="93.164062" xlink:href="#TimesNewRomanPSMT-1491"/>
    </g>
   </g>
   <g id="text_164">
    <!-- תוחא -->
    <g transform="translate(209.247131 304.982703)scale(0.1 -0.1)">
     <use xlink:href="#TimesNewRomanPSMT-1514"/>
     <use x="50" xlink:href="#TimesNewRomanPSMT-1493"/>
     <use x="77.880859" xlink:href="#TimesNewRomanPSMT-1495"/>
     <use x="125.537109" xlink:href="#TimesNewRomanPSMT-1488"/>
    </g>
   </g>
   <g id="text_165">
    <!-- רוע -->
    <g transform="translate(166.520148 309.80862)scale(0.1 -0.1)">
     <use xlink:href="#TimesNewRomanPSMT-1512"/>
     <use x="46.875" xlink:href="#TimesNewRomanPSMT-1493"/>
     <use x="74.755859" xlink:href="#TimesNewRomanPSMT-1506"/>
    </g>
   </g>
   <g id="text_166">
    <!-- לחנ -->
    <g transform="translate(173.041035 263.903065)scale(0.1 -0.1)">
     <use xlink:href="#TimesNewRomanPSMT-1500"/>
     <use x="43.164062" xlink:href="#TimesNewRomanPSMT-1495"/>
     <use x="90.820312" xlink:href="#TimesNewRomanPSMT-1504"/>
    </g>
   </g>
   <g id="text_167">
    <!-- הפׂש -->
    <g transform="translate(181.753175 289.560887)scale(0.1 -0.1)">
     <use xlink:href="#TimesNewRomanPSMT-1492"/>
     <use x="47.119141" xlink:href="#TimesNewRomanPSMT-1508"/>
     <use x="91.162109" xlink:href="#TimesNewRomanPSMT-1474"/>
     <use x="91.162109" xlink:href="#TimesNewRomanPSMT-1513"/>
    </g>
   </g>
   <g id="text_168">
    <!-- םעפ -->
    <g transform="translate(175.994998 302.60596)scale(0.1 -0.1)">
     <use xlink:href="#TimesNewRomanPSMT-1501"/>
     <use x="50.732422" xlink:href="#TimesNewRomanPSMT-1506"/>
     <use x="96.142578" xlink:href="#TimesNewRomanPSMT-1508"/>
    </g>
   </g>
   <g id="text_169">
    <!-- ןושל -->
    <g transform="translate(186.189385 303.913183)scale(0.1 -0.1)">
     <use xlink:href="#TimesNewRomanPSMT-1503"/>
     <use x="27.441406" xlink:href="#TimesNewRomanPSMT-1493"/>
     <use x="55.322266" xlink:href="#TimesNewRomanPSMT-1513"/>
     <use x="116.357422" xlink:href="#TimesNewRomanPSMT-1500"/>
    </g>
   </g>
   <g id="text_170">
    <!-- המב -->
    <g transform="translate(151.827565 275.56314)scale(0.1 -0.1)">
     <use xlink:href="#TimesNewRomanPSMT-1492"/>
     <use x="47.119141" xlink:href="#TimesNewRomanPSMT-1502"/>
     <use x="95.654297" xlink:href="#TimesNewRomanPSMT-1489"/>
    </g>
   </g>
   <g id="text_171">
    <!-- תומ -->
    <g transform="translate(173.748538 309.329419)scale(0.1 -0.1)">
     <use xlink:href="#TimesNewRomanPSMT-1514"/>
     <use x="50" xlink:href="#TimesNewRomanPSMT-1493"/>
     <use x="77.880859" xlink:href="#TimesNewRomanPSMT-1502"/>
    </g>
   </g>
   <g id="text_172">
    <!-- דלי -->
    <g transform="translate(216.526767 313.57705)scale(0.1 -0.1)">
     <use xlink:href="#TimesNewRomanPSMT-1491"/>
     <use x="41.894531" xlink:href="#TimesNewRomanPSMT-1500"/>
     <use x="85.058594" xlink:href="#TimesNewRomanPSMT-1497"/>
    </g>
   </g>
   <g id="text_173">
    <!-- קדצ -->
    <g transform="translate(164.833321 321.49524)scale(0.1 -0.1)">
     <use xlink:href="#TimesNewRomanPSMT-1511"/>
     <use x="47.363281" xlink:href="#TimesNewRomanPSMT-1491"/>
     <use x="89.257812" xlink:href="#TimesNewRomanPSMT-1510"/>
    </g>
   </g>
   <g id="text_174">
    <!-- תשחנ -->
    <g transform="translate(145.407361 340.752792)scale(0.1 -0.1)">
     <use xlink:href="#TimesNewRomanPSMT-1514"/>
     <use x="50" xlink:href="#TimesNewRomanPSMT-1513"/>
     <use x="111.035156" xlink:href="#TimesNewRomanPSMT-1495"/>
     <use x="158.691406" xlink:href="#TimesNewRomanPSMT-1504"/>
    </g>
   </g>
   <g id="text_175">
    <!-- עשפ -->
    <g transform="translate(161.877523 313.128645)scale(0.1 -0.1)">
     <use xlink:href="#TimesNewRomanPSMT-1506"/>
     <use x="45.410156" xlink:href="#TimesNewRomanPSMT-1513"/>
     <use x="106.445312" xlink:href="#TimesNewRomanPSMT-1508"/>
    </g>
   </g>
   <g id="text_176">
    <!-- ןכשמ -->
    <g transform="translate(157.179561 282.048921)scale(0.1 -0.1)">
     <use xlink:href="#TimesNewRomanPSMT-1503"/>
     <use x="27.441406" xlink:href="#TimesNewRomanPSMT-1499"/>
     <use x="70.703125" xlink:href="#TimesNewRomanPSMT-1513"/>
     <use x="131.738281" xlink:href="#TimesNewRomanPSMT-1502"/>
    </g>
   </g>
   <g id="text_177">
    <!-- ןומה -->
    <g transform="translate(186.474122 287.617155)scale(0.1 -0.1)">
     <use xlink:href="#TimesNewRomanPSMT-1503"/>
     <use x="27.441406" xlink:href="#TimesNewRomanPSMT-1493"/>
     <use x="55.322266" xlink:href="#TimesNewRomanPSMT-1502"/>
     <use x="103.857422" xlink:href="#TimesNewRomanPSMT-1492"/>
    </g>
   </g>
   <g id="text_178">
    <!-- ךרא -->
    <g transform="translate(172.934397 303.516194)scale(0.1 -0.1)">
     <use xlink:href="#TimesNewRomanPSMT-1498"/>
     <use x="45.214844" xlink:href="#TimesNewRomanPSMT-1512"/>
     <use x="92.089844" xlink:href="#TimesNewRomanPSMT-1488"/>
    </g>
   </g>
   <g id="text_179">
    <!-- דעומ -->
    <g transform="translate(163.974508 314.999443)scale(0.1 -0.1)">
     <use xlink:href="#TimesNewRomanPSMT-1491"/>
     <use x="41.894531" xlink:href="#TimesNewRomanPSMT-1506"/>
     <use x="87.304688" xlink:href="#TimesNewRomanPSMT-1493"/>
     <use x="115.185547" xlink:href="#TimesNewRomanPSMT-1502"/>
    </g>
   </g>
   <g id="text_180">
    <!-- רהנ -->
    <g transform="translate(166.740548 265.649448)scale(0.1 -0.1)">
     <use xlink:href="#TimesNewRomanPSMT-1512"/>
     <use x="46.875" xlink:href="#TimesNewRomanPSMT-1492"/>
     <use x="93.994141" xlink:href="#TimesNewRomanPSMT-1504"/>
    </g>
   </g>
   <g id="text_181">
    <!-- תעד -->
    <g transform="translate(168.239539 313.954543)scale(0.1 -0.1)">
     <use xlink:href="#TimesNewRomanPSMT-1514"/>
     <use x="50" xlink:href="#TimesNewRomanPSMT-1506"/>
     <use x="95.410156" xlink:href="#TimesNewRomanPSMT-1491"/>
    </g>
   </g>
   <g id="text_182">
    <!-- הצע -->
    <g transform="translate(162.542522 316.499625)scale(0.1 -0.1)">
     <use xlink:href="#TimesNewRomanPSMT-1492"/>
     <use x="47.119141" xlink:href="#TimesNewRomanPSMT-1510"/>
     <use x="93.115234" xlink:href="#TimesNewRomanPSMT-1506"/>
    </g>
   </g>
   <g id="text_183">
    <!-- בחר -->
    <g transform="translate(175.75322 302.518769)scale(0.1 -0.1)">
     <use xlink:href="#TimesNewRomanPSMT-1489"/>
     <use x="45.507812" xlink:href="#TimesNewRomanPSMT-1495"/>
     <use x="93.164062" xlink:href="#TimesNewRomanPSMT-1512"/>
    </g>
   </g>
   <g id="text_184">
    <!-- הכלממ -->
    <g transform="translate(182.858301 273.272327)scale(0.1 -0.1)">
     <use xlink:href="#TimesNewRomanPSMT-1492"/>
     <use x="47.119141" xlink:href="#TimesNewRomanPSMT-1499"/>
     <use x="90.380859" xlink:href="#TimesNewRomanPSMT-1500"/>
     <use x="133.544922" xlink:href="#TimesNewRomanPSMT-1502"/>
     <use x="182.080078" xlink:href="#TimesNewRomanPSMT-1502"/>
    </g>
   </g>
   <g id="text_185">
    <!-- תבש -->
    <g transform="translate(154.186411 323.999272)scale(0.1 -0.1)">
     <use xlink:href="#TimesNewRomanPSMT-1514"/>
     <use x="50" xlink:href="#TimesNewRomanPSMT-1489"/>
     <use x="95.507812" xlink:href="#TimesNewRomanPSMT-1513"/>
    </g>
   </g>
   <g id="text_186">
    <!-- ףנכ -->
    <g transform="translate(159.226854 306.315032)scale(0.1 -0.1)">
     <use xlink:href="#TimesNewRomanPSMT-1507"/>
     <use x="45.410156" xlink:href="#TimesNewRomanPSMT-1504"/>
     <use x="75.878906" xlink:href="#TimesNewRomanPSMT-1499"/>
    </g>
   </g>
   <g id="text_187">
    <!-- הכאלמ -->
    <g transform="translate(160.972913 324.814789)scale(0.1 -0.1)">
     <use xlink:href="#TimesNewRomanPSMT-1492"/>
     <use x="47.119141" xlink:href="#TimesNewRomanPSMT-1499"/>
     <use x="90.380859" xlink:href="#TimesNewRomanPSMT-1488"/>
     <use x="138.525391" xlink:href="#TimesNewRomanPSMT-1500"/>
     <use x="181.689453" xlink:href="#TimesNewRomanPSMT-1502"/>
    </g>
   </g>
   <g id="text_188">
    <!-- םייח -->
    <g transform="translate(169.582309 305.768479)scale(0.1 -0.1)">
     <use xlink:href="#TimesNewRomanPSMT-1501"/>
     <use x="50.732422" xlink:href="#TimesNewRomanPSMT-1497"/>
     <use x="77.392578" xlink:href="#TimesNewRomanPSMT-1497"/>
     <use x="104.052734" xlink:href="#TimesNewRomanPSMT-1495"/>
    </g>
   </g>
   <g id="text_189">
    <!-- הארמ -->
    <g transform="translate(174.952809 293.928075)scale(0.1 -0.1)">
     <use xlink:href="#TimesNewRomanPSMT-1492"/>
     <use x="47.119141" xlink:href="#TimesNewRomanPSMT-1488"/>
     <use x="95.263672" xlink:href="#TimesNewRomanPSMT-1512"/>
     <use x="142.138672" xlink:href="#TimesNewRomanPSMT-1502"/>
    </g>
   </g>
   <g id="text_190">
    <!-- בורכ -->
    <g transform="translate(169.291907 324.387496)scale(0.1 -0.1)">
     <use xlink:href="#TimesNewRomanPSMT-1489"/>
     <use x="45.507812" xlink:href="#TimesNewRomanPSMT-1493"/>
     <use x="73.388672" xlink:href="#TimesNewRomanPSMT-1512"/>
     <use x="120.263672" xlink:href="#TimesNewRomanPSMT-1499"/>
    </g>
   </g>
   <g id="text_191">
    <!-- תודע -->
    <g transform="translate(139.187893 324.696109)scale(0.1 -0.1)">
     <use xlink:href="#TimesNewRomanPSMT-1514"/>
     <use x="50" xlink:href="#TimesNewRomanPSMT-1493"/>
     <use x="77.880859" xlink:href="#TimesNewRomanPSMT-1491"/>
     <use x="119.775391" xlink:href="#TimesNewRomanPSMT-1506"/>
    </g>
   </g>
   <g id="text_192">
    <!-- ןנע -->
    <g transform="translate(171.528312 290.702328)scale(0.1 -0.1)">
     <use xlink:href="#TimesNewRomanPSMT-1503"/>
     <use x="27.441406" xlink:href="#TimesNewRomanPSMT-1504"/>
     <use x="57.910156" xlink:href="#TimesNewRomanPSMT-1506"/>
    </g>
   </g>
   <g id="text_193">
    <!-- החפשמ -->
    <g transform="translate(201.349458 295.921401)scale(0.1 -0.1)">
     <use xlink:href="#TimesNewRomanPSMT-1492"/>
     <use x="47.119141" xlink:href="#TimesNewRomanPSMT-1495"/>
     <use x="94.775391" xlink:href="#TimesNewRomanPSMT-1508"/>
     <use x="138.818359" xlink:href="#TimesNewRomanPSMT-1513"/>
     <use x="199.853516" xlink:href="#TimesNewRomanPSMT-1502"/>
    </g>
   </g>
   <g id="text_194">
    <!-- ןופצ -->
    <g transform="translate(170.504106 268.256613)scale(0.1 -0.1)">
     <use xlink:href="#TimesNewRomanPSMT-1503"/>
     <use x="27.441406" xlink:href="#TimesNewRomanPSMT-1493"/>
     <use x="55.322266" xlink:href="#TimesNewRomanPSMT-1508"/>
     <use x="99.365234" xlink:href="#TimesNewRomanPSMT-1510"/>
    </g>
   </g>
   <g id="text_195">
    <!-- בגנ -->
    <g transform="translate(164.583587 247.597407)scale(0.1 -0.1)">
     <use xlink:href="#TimesNewRomanPSMT-1489"/>
     <use x="45.507812" xlink:href="#TimesNewRomanPSMT-1490"/>
     <use x="79.052734" xlink:href="#TimesNewRomanPSMT-1504"/>
    </g>
   </g>
   <g id="text_196">
    <!-- םלש -->
    <g transform="translate(150.686457 346.462574)scale(0.1 -0.1)">
     <use xlink:href="#TimesNewRomanPSMT-1501"/>
     <use x="50.732422" xlink:href="#TimesNewRomanPSMT-1500"/>
     <use x="93.896484" xlink:href="#TimesNewRomanPSMT-1513"/>
    </g>
   </g>
   <g id="text_197">
    <!-- לכיה -->
    <g transform="translate(164.236528 239.725203)scale(0.1 -0.1)">
     <use xlink:href="#TimesNewRomanPSMT-1500"/>
     <use x="43.164062" xlink:href="#TimesNewRomanPSMT-1499"/>
     <use x="86.425781" xlink:href="#TimesNewRomanPSMT-1497"/>
     <use x="113.085938" xlink:href="#TimesNewRomanPSMT-1492"/>
    </g>
   </g>
   <g id="text_198">
    <!-- תחפשמ -->
    <g transform="translate(185.728085 283.497653)scale(0.1 -0.1)">
     <use xlink:href="#TimesNewRomanPSMT-1514"/>
     <use x="50" xlink:href="#TimesNewRomanPSMT-1495"/>
     <use x="97.65625" xlink:href="#TimesNewRomanPSMT-1508"/>
     <use x="141.699219" xlink:href="#TimesNewRomanPSMT-1513"/>
     <use x="202.734375" xlink:href="#TimesNewRomanPSMT-1502"/>
    </g>
   </g>
   <g id="text_199">
    <!-- לקש -->
    <g transform="translate(177.947674 300.808807)scale(0.1 -0.1)">
     <use xlink:href="#TimesNewRomanPSMT-1500"/>
     <use x="43.164062" xlink:href="#TimesNewRomanPSMT-1511"/>
     <use x="90.527344" xlink:href="#TimesNewRomanPSMT-1513"/>
    </g>
   </g>
   <g id="text_200">
    <!-- הצק -->
    <g transform="translate(168.704931 269.655949)scale(0.1 -0.1)">
     <use xlink:href="#TimesNewRomanPSMT-1492"/>
     <use x="47.119141" xlink:href="#TimesNewRomanPSMT-1510"/>
     <use x="93.115234" xlink:href="#TimesNewRomanPSMT-1511"/>
    </g>
   </g>
   <g id="text_201">
    <!-- רבע -->
    <g transform="translate(163.890229 243.04015)scale(0.1 -0.1)">
     <use xlink:href="#TimesNewRomanPSMT-1512"/>
     <use x="46.875" xlink:href="#TimesNewRomanPSMT-1489"/>
     <use x="92.382812" xlink:href="#TimesNewRomanPSMT-1506"/>
    </g>
   </g>
   <g id="text_202">
    <!-- דימת -->
    <g transform="translate(175.699003 309.294729)scale(0.1 -0.1)">
     <use xlink:href="#TimesNewRomanPSMT-1491"/>
     <use x="41.894531" xlink:href="#TimesNewRomanPSMT-1497"/>
     <use x="68.554688" xlink:href="#TimesNewRomanPSMT-1502"/>
     <use x="117.089844" xlink:href="#TimesNewRomanPSMT-1514"/>
    </g>
   </g>
   <g id="text_203">
    <!-- רקש -->
    <g transform="translate(172.801199 308.285702)scale(0.1 -0.1)">
     <use xlink:href="#TimesNewRomanPSMT-1512"/>
     <use x="46.875" xlink:href="#TimesNewRomanPSMT-1511"/>
     <use x="94.238281" xlink:href="#TimesNewRomanPSMT-1513"/>
    </g>
   </g>
   <g id="text_204">
    <!-- תוכלמ -->
    <g transform="translate(179.223808 283.947681)scale(0.1 -0.1)">
     <use xlink:href="#TimesNewRomanPSMT-1514"/>
     <use x="50" xlink:href="#TimesNewRomanPSMT-1493"/>
     <use x="77.880859" xlink:href="#TimesNewRomanPSMT-1499"/>
     <use x="121.142578" xlink:href="#TimesNewRomanPSMT-1500"/>
     <use x="164.306641" xlink:href="#TimesNewRomanPSMT-1502"/>
    </g>
   </g>
   <g id="text_205">
    <!-- לעמ -->
    <g transform="translate(176.158901 297.718232)scale(0.1 -0.1)">
     <use xlink:href="#TimesNewRomanPSMT-1500"/>
     <use x="43.164062" xlink:href="#TimesNewRomanPSMT-1506"/>
     <use x="88.574219" xlink:href="#TimesNewRomanPSMT-1502"/>
    </g>
   </g>
   <g id="text_206">
    <!-- םדק -->
    <g transform="translate(173.047678 276.611633)scale(0.1 -0.1)">
     <use xlink:href="#TimesNewRomanPSMT-1501"/>
     <use x="50.732422" xlink:href="#TimesNewRomanPSMT-1491"/>
     <use x="92.626953" xlink:href="#TimesNewRomanPSMT-1511"/>
    </g>
   </g>
   <g id="text_207">
    <!-- רפסמ -->
    <g transform="translate(179.372141 306.154888)scale(0.1 -0.1)">
     <use xlink:href="#TimesNewRomanPSMT-1512"/>
     <use x="46.875" xlink:href="#TimesNewRomanPSMT-1508"/>
     <use x="90.917969" xlink:href="#TimesNewRomanPSMT-1505"/>
     <use x="138.427734" xlink:href="#TimesNewRomanPSMT-1502"/>
    </g>
   </g>
   <g id="text_208">
    <!-- בר -->
    <g transform="translate(180.880393 296.695514)scale(0.1 -0.1)">
     <use xlink:href="#TimesNewRomanPSMT-1489"/>
     <use x="45.507812" xlink:href="#TimesNewRomanPSMT-1512"/>
    </g>
   </g>
   <g id="text_209">
    <!-- האפ -->
    <g transform="translate(174.457727 294.368505)scale(0.1 -0.1)">
     <use xlink:href="#TimesNewRomanPSMT-1492"/>
     <use x="47.119141" xlink:href="#TimesNewRomanPSMT-1488"/>
     <use x="95.263672" xlink:href="#TimesNewRomanPSMT-1508"/>
    </g>
   </g>
  </g>
 </g>
 <defs>
  <clipPath id="pe76be7b0c3">
   <rect height="434.88" width="446.4" x="28.942188" y="9.887114"/>
  </clipPath>
 </defs>
</svg>
