<?xml version="1.0" encoding="utf-8" standalone="no"?>
<!DOCTYPE svg PUBLIC "-//W3C//DTD SVG 1.1//EN"
  "http://www.w3.org/Graphics/SVG/1.1/DTD/svg11.dtd">
<!-- Created with matplotlib (https://matplotlib.org/) -->
<svg height="367.215625pt" version="1.1" viewBox="0 0 498.445312 367.215625" width="498.445312pt" xmlns="http://www.w3.org/2000/svg" xmlns:xlink="http://www.w3.org/1999/xlink">
 <defs>
  <style type="text/css">
*{stroke-linecap:butt;stroke-linejoin:round;}
  </style>
 </defs>
 <g id="figure_1">
  <g id="patch_1">
   <path d="M 0 367.215625 
L 498.445312 367.215625 
L 498.445312 -0 
L 0 -0 
z
" style="fill:#ffffff;"/>
  </g>
  <g id="axes_1">
   <g id="patch_2">
    <path d="M 44.845313 279 
L 491.245312 279 
L 491.245312 7.2 
L 44.845313 7.2 
z
" style="fill:#ffffff;"/>
   </g>
   <g id="matplotlib.axis_1">
    <g id="xtick_1">
     <g id="line2d_1">
      <defs>
       <path d="M 0 0 
L 0 3.5 
" id="m0aef8f48e5" style="stroke:#000000;stroke-width:0.8;"/>
      </defs>
      <g>
       <use style="stroke:#000000;stroke-width:0.8;" x="50.568389" xlink:href="#m0aef8f48e5" y="279"/>
      </g>
     </g>
     <g id="text_1">
      <!-- Isaiah -->
      <defs>
       <path d="M 9.8125 72.90625 
L 19.671875 72.90625 
L 19.671875 0 
L 9.8125 0 
z
" id="DejaVuSans-73"/>
       <path d="M 44.28125 53.078125 
L 44.28125 44.578125 
Q 40.484375 46.53125 36.375 47.5 
Q 32.28125 48.484375 27.875 48.484375 
Q 21.1875 48.484375 17.84375 46.4375 
Q 14.5 44.390625 14.5 40.28125 
Q 14.5 37.15625 16.890625 35.375 
Q 19.28125 33.59375 26.515625 31.984375 
L 29.59375 31.296875 
Q 39.15625 29.25 43.1875 25.515625 
Q 47.21875 21.78125 47.21875 15.09375 
Q 47.21875 7.46875 41.1875 3.015625 
Q 35.15625 -1.421875 24.609375 -1.421875 
Q 20.21875 -1.421875 15.453125 -0.5625 
Q 10.6875 0.296875 5.421875 2 
L 5.421875 11.28125 
Q 10.40625 8.6875 15.234375 7.390625 
Q 20.0625 6.109375 24.8125 6.109375 
Q 31.15625 6.109375 34.5625 8.28125 
Q 37.984375 10.453125 37.984375 14.40625 
Q 37.984375 18.0625 35.515625 20.015625 
Q 33.0625 21.96875 24.703125 23.78125 
L 21.578125 24.515625 
Q 13.234375 26.265625 9.515625 29.90625 
Q 5.8125 33.546875 5.8125 39.890625 
Q 5.8125 47.609375 11.28125 51.796875 
Q 16.75 56 26.8125 56 
Q 31.78125 56 36.171875 55.265625 
Q 40.578125 54.546875 44.28125 53.078125 
z
" id="DejaVuSans-115"/>
       <path d="M 34.28125 27.484375 
Q 23.390625 27.484375 19.1875 25 
Q 14.984375 22.515625 14.984375 16.5 
Q 14.984375 11.71875 18.140625 8.90625 
Q 21.296875 6.109375 26.703125 6.109375 
Q 34.1875 6.109375 38.703125 11.40625 
Q 43.21875 16.703125 43.21875 25.484375 
L 43.21875 27.484375 
z
M 52.203125 31.203125 
L 52.203125 0 
L 43.21875 0 
L 43.21875 8.296875 
Q 40.140625 3.328125 35.546875 0.953125 
Q 30.953125 -1.421875 24.3125 -1.421875 
Q 15.921875 -1.421875 10.953125 3.296875 
Q 6 8.015625 6 15.921875 
Q 6 25.140625 12.171875 29.828125 
Q 18.359375 34.515625 30.609375 34.515625 
L 43.21875 34.515625 
L 43.21875 35.40625 
Q 43.21875 41.609375 39.140625 45 
Q 35.0625 48.390625 27.6875 48.390625 
Q 23 48.390625 18.546875 47.265625 
Q 14.109375 46.140625 10.015625 43.890625 
L 10.015625 52.203125 
Q 14.9375 54.109375 19.578125 55.046875 
Q 24.21875 56 28.609375 56 
Q 40.484375 56 46.34375 49.84375 
Q 52.203125 43.703125 52.203125 31.203125 
z
" id="DejaVuSans-97"/>
       <path d="M 9.421875 54.6875 
L 18.40625 54.6875 
L 18.40625 0 
L 9.421875 0 
z
M 9.421875 75.984375 
L 18.40625 75.984375 
L 18.40625 64.59375 
L 9.421875 64.59375 
z
" id="DejaVuSans-105"/>
       <path d="M 54.890625 33.015625 
L 54.890625 0 
L 45.90625 0 
L 45.90625 32.71875 
Q 45.90625 40.484375 42.875 44.328125 
Q 39.84375 48.1875 33.796875 48.1875 
Q 26.515625 48.1875 22.3125 43.546875 
Q 18.109375 38.921875 18.109375 30.90625 
L 18.109375 0 
L 9.078125 0 
L 9.078125 75.984375 
L 18.109375 75.984375 
L 18.109375 46.1875 
Q 21.34375 51.125 25.703125 53.5625 
Q 30.078125 56 35.796875 56 
Q 45.21875 56 50.046875 50.171875 
Q 54.890625 44.34375 54.890625 33.015625 
z
" id="DejaVuSans-104"/>
      </defs>
      <g transform="translate(53.327764 315.53125)rotate(-90)scale(0.1 -0.1)">
       <use xlink:href="#DejaVuSans-73"/>
       <use x="29.492188" xlink:href="#DejaVuSans-115"/>
       <use x="81.591797" xlink:href="#DejaVuSans-97"/>
       <use x="142.871094" xlink:href="#DejaVuSans-105"/>
       <use x="170.654297" xlink:href="#DejaVuSans-97"/>
       <use x="231.933594" xlink:href="#DejaVuSans-104"/>
      </g>
     </g>
    </g>
    <g id="xtick_2">
     <g id="line2d_2">
      <g>
       <use style="stroke:#000000;stroke-width:0.8;" x="62.014543" xlink:href="#m0aef8f48e5" y="279"/>
      </g>
     </g>
     <g id="text_2">
      <!-- Psalms -->
      <defs>
       <path d="M 19.671875 64.796875 
L 19.671875 37.40625 
L 32.078125 37.40625 
Q 38.96875 37.40625 42.71875 40.96875 
Q 46.484375 44.53125 46.484375 51.125 
Q 46.484375 57.671875 42.71875 61.234375 
Q 38.96875 64.796875 32.078125 64.796875 
z
M 9.8125 72.90625 
L 32.078125 72.90625 
Q 44.34375 72.90625 50.609375 67.359375 
Q 56.890625 61.8125 56.890625 51.125 
Q 56.890625 40.328125 50.609375 34.8125 
Q 44.34375 29.296875 32.078125 29.296875 
L 19.671875 29.296875 
L 19.671875 0 
L 9.8125 0 
z
" id="DejaVuSans-80"/>
       <path d="M 9.421875 75.984375 
L 18.40625 75.984375 
L 18.40625 0 
L 9.421875 0 
z
" id="DejaVuSans-108"/>
       <path d="M 52 44.1875 
Q 55.375 50.25 60.0625 53.125 
Q 64.75 56 71.09375 56 
Q 79.640625 56 84.28125 50.015625 
Q 88.921875 44.046875 88.921875 33.015625 
L 88.921875 0 
L 79.890625 0 
L 79.890625 32.71875 
Q 79.890625 40.578125 77.09375 44.375 
Q 74.3125 48.1875 68.609375 48.1875 
Q 61.625 48.1875 57.5625 43.546875 
Q 53.515625 38.921875 53.515625 30.90625 
L 53.515625 0 
L 44.484375 0 
L 44.484375 32.71875 
Q 44.484375 40.625 41.703125 44.40625 
Q 38.921875 48.1875 33.109375 48.1875 
Q 26.21875 48.1875 22.15625 43.53125 
Q 18.109375 38.875 18.109375 30.90625 
L 18.109375 0 
L 9.078125 0 
L 9.078125 54.6875 
L 18.109375 54.6875 
L 18.109375 46.1875 
Q 21.1875 51.21875 25.484375 53.609375 
Q 29.78125 56 35.6875 56 
Q 41.65625 56 45.828125 52.96875 
Q 50 49.953125 52 44.1875 
z
" id="DejaVuSans-109"/>
      </defs>
      <g transform="translate(64.773918 321.09375)rotate(-90)scale(0.1 -0.1)">
       <use xlink:href="#DejaVuSans-80"/>
       <use x="60.287109" xlink:href="#DejaVuSans-115"/>
       <use x="112.386719" xlink:href="#DejaVuSans-97"/>
       <use x="173.666016" xlink:href="#DejaVuSans-108"/>
       <use x="201.449219" xlink:href="#DejaVuSans-109"/>
       <use x="298.861328" xlink:href="#DejaVuSans-115"/>
      </g>
     </g>
    </g>
    <g id="xtick_3">
     <g id="line2d_3">
      <g>
       <use style="stroke:#000000;stroke-width:0.8;" x="73.460697" xlink:href="#m0aef8f48e5" y="279"/>
      </g>
     </g>
     <g id="text_3">
      <!-- Job -->
      <defs>
       <path d="M 9.8125 72.90625 
L 19.671875 72.90625 
L 19.671875 5.078125 
Q 19.671875 -8.109375 14.671875 -14.0625 
Q 9.671875 -20.015625 -1.421875 -20.015625 
L -5.171875 -20.015625 
L -5.171875 -11.71875 
L -2.09375 -11.71875 
Q 4.4375 -11.71875 7.125 -8.046875 
Q 9.8125 -4.390625 9.8125 5.078125 
z
" id="DejaVuSans-74"/>
       <path d="M 30.609375 48.390625 
Q 23.390625 48.390625 19.1875 42.75 
Q 14.984375 37.109375 14.984375 27.296875 
Q 14.984375 17.484375 19.15625 11.84375 
Q 23.34375 6.203125 30.609375 6.203125 
Q 37.796875 6.203125 41.984375 11.859375 
Q 46.1875 17.53125 46.1875 27.296875 
Q 46.1875 37.015625 41.984375 42.703125 
Q 37.796875 48.390625 30.609375 48.390625 
z
M 30.609375 56 
Q 42.328125 56 49.015625 48.375 
Q 55.71875 40.765625 55.71875 27.296875 
Q 55.71875 13.875 49.015625 6.21875 
Q 42.328125 -1.421875 30.609375 -1.421875 
Q 18.84375 -1.421875 12.171875 6.21875 
Q 5.515625 13.875 5.515625 27.296875 
Q 5.515625 40.765625 12.171875 48.375 
Q 18.84375 56 30.609375 56 
z
" id="DejaVuSans-111"/>
       <path d="M 48.6875 27.296875 
Q 48.6875 37.203125 44.609375 42.84375 
Q 40.53125 48.484375 33.40625 48.484375 
Q 26.265625 48.484375 22.1875 42.84375 
Q 18.109375 37.203125 18.109375 27.296875 
Q 18.109375 17.390625 22.1875 11.75 
Q 26.265625 6.109375 33.40625 6.109375 
Q 40.53125 6.109375 44.609375 11.75 
Q 48.6875 17.390625 48.6875 27.296875 
z
M 18.109375 46.390625 
Q 20.953125 51.265625 25.265625 53.625 
Q 29.59375 56 35.59375 56 
Q 45.5625 56 51.78125 48.09375 
Q 58.015625 40.1875 58.015625 27.296875 
Q 58.015625 14.40625 51.78125 6.484375 
Q 45.5625 -1.421875 35.59375 -1.421875 
Q 29.59375 -1.421875 25.265625 0.953125 
Q 20.953125 3.328125 18.109375 8.203125 
L 18.109375 0 
L 9.078125 0 
L 9.078125 75.984375 
L 18.109375 75.984375 
z
" id="DejaVuSans-98"/>
      </defs>
      <g transform="translate(76.220072 301.417188)rotate(-90)scale(0.1 -0.1)">
       <use xlink:href="#DejaVuSans-74"/>
       <use x="29.492188" xlink:href="#DejaVuSans-111"/>
       <use x="90.673828" xlink:href="#DejaVuSans-98"/>
      </g>
     </g>
    </g>
    <g id="xtick_4">
     <g id="line2d_4">
      <g>
       <use style="stroke:#000000;stroke-width:0.8;" x="84.906851" xlink:href="#m0aef8f48e5" y="279"/>
      </g>
     </g>
     <g id="text_4">
      <!-- Daniel -->
      <defs>
       <path d="M 19.671875 64.796875 
L 19.671875 8.109375 
L 31.59375 8.109375 
Q 46.6875 8.109375 53.6875 14.9375 
Q 60.6875 21.78125 60.6875 36.53125 
Q 60.6875 51.171875 53.6875 57.984375 
Q 46.6875 64.796875 31.59375 64.796875 
z
M 9.8125 72.90625 
L 30.078125 72.90625 
Q 51.265625 72.90625 61.171875 64.09375 
Q 71.09375 55.28125 71.09375 36.53125 
Q 71.09375 17.671875 61.125 8.828125 
Q 51.171875 0 30.078125 0 
L 9.8125 0 
z
" id="DejaVuSans-68"/>
       <path d="M 54.890625 33.015625 
L 54.890625 0 
L 45.90625 0 
L 45.90625 32.71875 
Q 45.90625 40.484375 42.875 44.328125 
Q 39.84375 48.1875 33.796875 48.1875 
Q 26.515625 48.1875 22.3125 43.546875 
Q 18.109375 38.921875 18.109375 30.90625 
L 18.109375 0 
L 9.078125 0 
L 9.078125 54.6875 
L 18.109375 54.6875 
L 18.109375 46.1875 
Q 21.34375 51.125 25.703125 53.5625 
Q 30.078125 56 35.796875 56 
Q 45.21875 56 50.046875 50.171875 
Q 54.890625 44.34375 54.890625 33.015625 
z
" id="DejaVuSans-110"/>
       <path d="M 56.203125 29.59375 
L 56.203125 25.203125 
L 14.890625 25.203125 
Q 15.484375 15.921875 20.484375 11.0625 
Q 25.484375 6.203125 34.421875 6.203125 
Q 39.59375 6.203125 44.453125 7.46875 
Q 49.3125 8.734375 54.109375 11.28125 
L 54.109375 2.78125 
Q 49.265625 0.734375 44.1875 -0.34375 
Q 39.109375 -1.421875 33.890625 -1.421875 
Q 20.796875 -1.421875 13.15625 6.1875 
Q 5.515625 13.8125 5.515625 26.8125 
Q 5.515625 40.234375 12.765625 48.109375 
Q 20.015625 56 32.328125 56 
Q 43.359375 56 49.78125 48.890625 
Q 56.203125 41.796875 56.203125 29.59375 
z
M 47.21875 32.234375 
Q 47.125 39.59375 43.09375 43.984375 
Q 39.0625 48.390625 32.421875 48.390625 
Q 24.90625 48.390625 20.390625 44.140625 
Q 15.875 39.890625 15.1875 32.171875 
z
" id="DejaVuSans-101"/>
      </defs>
      <g transform="translate(87.666226 317.875)rotate(-90)scale(0.1 -0.1)">
       <use xlink:href="#DejaVuSans-68"/>
       <use x="77.001953" xlink:href="#DejaVuSans-97"/>
       <use x="138.28125" xlink:href="#DejaVuSans-110"/>
       <use x="201.660156" xlink:href="#DejaVuSans-105"/>
       <use x="229.443359" xlink:href="#DejaVuSans-101"/>
       <use x="290.966797" xlink:href="#DejaVuSans-108"/>
      </g>
     </g>
    </g>
    <g id="xtick_5">
     <g id="line2d_5">
      <g>
       <use style="stroke:#000000;stroke-width:0.8;" x="96.353005" xlink:href="#m0aef8f48e5" y="279"/>
      </g>
     </g>
     <g id="text_5">
      <!-- Proverbs -->
      <defs>
       <path d="M 41.109375 46.296875 
Q 39.59375 47.171875 37.8125 47.578125 
Q 36.03125 48 33.890625 48 
Q 26.265625 48 22.1875 43.046875 
Q 18.109375 38.09375 18.109375 28.8125 
L 18.109375 0 
L 9.078125 0 
L 9.078125 54.6875 
L 18.109375 54.6875 
L 18.109375 46.1875 
Q 20.953125 51.171875 25.484375 53.578125 
Q 30.03125 56 36.53125 56 
Q 37.453125 56 38.578125 55.875 
Q 39.703125 55.765625 41.0625 55.515625 
z
" id="DejaVuSans-114"/>
       <path d="M 2.984375 54.6875 
L 12.5 54.6875 
L 29.59375 8.796875 
L 46.6875 54.6875 
L 56.203125 54.6875 
L 35.6875 0 
L 23.484375 0 
z
" id="DejaVuSans-118"/>
      </defs>
      <g transform="translate(99.11238 329.995313)rotate(-90)scale(0.1 -0.1)">
       <use xlink:href="#DejaVuSans-80"/>
       <use x="60.287109" xlink:href="#DejaVuSans-114"/>
       <use x="101.369141" xlink:href="#DejaVuSans-111"/>
       <use x="162.550781" xlink:href="#DejaVuSans-118"/>
       <use x="221.730469" xlink:href="#DejaVuSans-101"/>
       <use x="283.253906" xlink:href="#DejaVuSans-114"/>
       <use x="324.367188" xlink:href="#DejaVuSans-98"/>
       <use x="387.84375" xlink:href="#DejaVuSans-115"/>
      </g>
     </g>
    </g>
    <g id="xtick_6">
     <g id="line2d_6">
      <g>
       <use style="stroke:#000000;stroke-width:0.8;" x="107.799159" xlink:href="#m0aef8f48e5" y="279"/>
      </g>
     </g>
     <g id="text_6">
      <!-- 1_Samuel -->
      <defs>
       <path d="M 12.40625 8.296875 
L 28.515625 8.296875 
L 28.515625 63.921875 
L 10.984375 60.40625 
L 10.984375 69.390625 
L 28.421875 72.90625 
L 38.28125 72.90625 
L 38.28125 8.296875 
L 54.390625 8.296875 
L 54.390625 0 
L 12.40625 0 
z
" id="DejaVuSans-49"/>
       <path d="M 50.984375 -16.609375 
L 50.984375 -23.578125 
L -0.984375 -23.578125 
L -0.984375 -16.609375 
z
" id="DejaVuSans-95"/>
       <path d="M 53.515625 70.515625 
L 53.515625 60.890625 
Q 47.90625 63.578125 42.921875 64.890625 
Q 37.9375 66.21875 33.296875 66.21875 
Q 25.25 66.21875 20.875 63.09375 
Q 16.5 59.96875 16.5 54.203125 
Q 16.5 49.359375 19.40625 46.890625 
Q 22.3125 44.4375 30.421875 42.921875 
L 36.375 41.703125 
Q 47.40625 39.59375 52.65625 34.296875 
Q 57.90625 29 57.90625 20.125 
Q 57.90625 9.515625 50.796875 4.046875 
Q 43.703125 -1.421875 29.984375 -1.421875 
Q 24.8125 -1.421875 18.96875 -0.25 
Q 13.140625 0.921875 6.890625 3.21875 
L 6.890625 13.375 
Q 12.890625 10.015625 18.65625 8.296875 
Q 24.421875 6.59375 29.984375 6.59375 
Q 38.421875 6.59375 43.015625 9.90625 
Q 47.609375 13.234375 47.609375 19.390625 
Q 47.609375 24.75 44.3125 27.78125 
Q 41.015625 30.8125 33.5 32.328125 
L 27.484375 33.5 
Q 16.453125 35.6875 11.515625 40.375 
Q 6.59375 45.0625 6.59375 53.421875 
Q 6.59375 63.09375 13.40625 68.65625 
Q 20.21875 74.21875 32.171875 74.21875 
Q 37.3125 74.21875 42.625 73.28125 
Q 47.953125 72.359375 53.515625 70.515625 
z
" id="DejaVuSans-83"/>
       <path d="M 8.5 21.578125 
L 8.5 54.6875 
L 17.484375 54.6875 
L 17.484375 21.921875 
Q 17.484375 14.15625 20.5 10.265625 
Q 23.53125 6.390625 29.59375 6.390625 
Q 36.859375 6.390625 41.078125 11.03125 
Q 45.3125 15.671875 45.3125 23.6875 
L 45.3125 54.6875 
L 54.296875 54.6875 
L 54.296875 0 
L 45.3125 0 
L 45.3125 8.40625 
Q 42.046875 3.421875 37.71875 1 
Q 33.40625 -1.421875 27.6875 -1.421875 
Q 18.265625 -1.421875 13.375 4.4375 
Q 8.5 10.296875 8.5 21.578125 
z
M 31.109375 56 
z
" id="DejaVuSans-117"/>
      </defs>
      <g transform="translate(110.419471 334.848437)rotate(-90)scale(0.1 -0.1)">
       <use xlink:href="#DejaVuSans-49"/>
       <use x="63.623047" xlink:href="#DejaVuSans-95"/>
       <use x="113.623047" xlink:href="#DejaVuSans-83"/>
       <use x="177.099609" xlink:href="#DejaVuSans-97"/>
       <use x="238.378906" xlink:href="#DejaVuSans-109"/>
       <use x="335.791016" xlink:href="#DejaVuSans-117"/>
       <use x="399.169922" xlink:href="#DejaVuSans-101"/>
       <use x="460.693359" xlink:href="#DejaVuSans-108"/>
      </g>
     </g>
    </g>
    <g id="xtick_7">
     <g id="line2d_7">
      <g>
       <use style="stroke:#000000;stroke-width:0.8;" x="119.245312" xlink:href="#m0aef8f48e5" y="279"/>
      </g>
     </g>
     <g id="text_7">
      <!-- Song_of_songs -->
      <defs>
       <path d="M 45.40625 27.984375 
Q 45.40625 37.75 41.375 43.109375 
Q 37.359375 48.484375 30.078125 48.484375 
Q 22.859375 48.484375 18.828125 43.109375 
Q 14.796875 37.75 14.796875 27.984375 
Q 14.796875 18.265625 18.828125 12.890625 
Q 22.859375 7.515625 30.078125 7.515625 
Q 37.359375 7.515625 41.375 12.890625 
Q 45.40625 18.265625 45.40625 27.984375 
z
M 54.390625 6.78125 
Q 54.390625 -7.171875 48.1875 -13.984375 
Q 42 -20.796875 29.203125 -20.796875 
Q 24.46875 -20.796875 20.265625 -20.09375 
Q 16.0625 -19.390625 12.109375 -17.921875 
L 12.109375 -9.1875 
Q 16.0625 -11.328125 19.921875 -12.34375 
Q 23.78125 -13.375 27.78125 -13.375 
Q 36.625 -13.375 41.015625 -8.765625 
Q 45.40625 -4.15625 45.40625 5.171875 
L 45.40625 9.625 
Q 42.625 4.78125 38.28125 2.390625 
Q 33.9375 0 27.875 0 
Q 17.828125 0 11.671875 7.65625 
Q 5.515625 15.328125 5.515625 27.984375 
Q 5.515625 40.671875 11.671875 48.328125 
Q 17.828125 56 27.875 56 
Q 33.9375 56 38.28125 53.609375 
Q 42.625 51.21875 45.40625 46.390625 
L 45.40625 54.6875 
L 54.390625 54.6875 
z
" id="DejaVuSans-103"/>
       <path d="M 37.109375 75.984375 
L 37.109375 68.5 
L 28.515625 68.5 
Q 23.6875 68.5 21.796875 66.546875 
Q 19.921875 64.59375 19.921875 59.515625 
L 19.921875 54.6875 
L 34.71875 54.6875 
L 34.71875 47.703125 
L 19.921875 47.703125 
L 19.921875 0 
L 10.890625 0 
L 10.890625 47.703125 
L 2.296875 47.703125 
L 2.296875 54.6875 
L 10.890625 54.6875 
L 10.890625 58.5 
Q 10.890625 67.625 15.140625 71.796875 
Q 19.390625 75.984375 28.609375 75.984375 
z
" id="DejaVuSans-102"/>
      </defs>
      <g transform="translate(121.865625 360.015625)rotate(-90)scale(0.1 -0.1)">
       <use xlink:href="#DejaVuSans-83"/>
       <use x="63.476562" xlink:href="#DejaVuSans-111"/>
       <use x="124.658203" xlink:href="#DejaVuSans-110"/>
       <use x="188.037109" xlink:href="#DejaVuSans-103"/>
       <use x="251.513672" xlink:href="#DejaVuSans-95"/>
       <use x="301.513672" xlink:href="#DejaVuSans-111"/>
       <use x="362.695312" xlink:href="#DejaVuSans-102"/>
       <use x="397.900391" xlink:href="#DejaVuSans-95"/>
       <use x="447.900391" xlink:href="#DejaVuSans-115"/>
       <use x="500" xlink:href="#DejaVuSans-111"/>
       <use x="561.181641" xlink:href="#DejaVuSans-110"/>
       <use x="624.560547" xlink:href="#DejaVuSans-103"/>
       <use x="688.037109" xlink:href="#DejaVuSans-115"/>
      </g>
     </g>
    </g>
    <g id="xtick_8">
     <g id="line2d_8">
      <g>
       <use style="stroke:#000000;stroke-width:0.8;" x="130.691466" xlink:href="#m0aef8f48e5" y="279"/>
      </g>
     </g>
     <g id="text_8">
      <!-- Ezekiel -->
      <defs>
       <path d="M 9.8125 72.90625 
L 55.90625 72.90625 
L 55.90625 64.59375 
L 19.671875 64.59375 
L 19.671875 43.015625 
L 54.390625 43.015625 
L 54.390625 34.71875 
L 19.671875 34.71875 
L 19.671875 8.296875 
L 56.78125 8.296875 
L 56.78125 0 
L 9.8125 0 
z
" id="DejaVuSans-69"/>
       <path d="M 5.515625 54.6875 
L 48.1875 54.6875 
L 48.1875 46.484375 
L 14.40625 7.171875 
L 48.1875 7.171875 
L 48.1875 0 
L 4.296875 0 
L 4.296875 8.203125 
L 38.09375 47.515625 
L 5.515625 47.515625 
z
" id="DejaVuSans-122"/>
       <path d="M 9.078125 75.984375 
L 18.109375 75.984375 
L 18.109375 31.109375 
L 44.921875 54.6875 
L 56.390625 54.6875 
L 27.390625 29.109375 
L 57.625 0 
L 45.90625 0 
L 18.109375 26.703125 
L 18.109375 0 
L 9.078125 0 
z
" id="DejaVuSans-107"/>
      </defs>
      <g transform="translate(133.450841 321.220312)rotate(-90)scale(0.1 -0.1)">
       <use xlink:href="#DejaVuSans-69"/>
       <use x="63.183594" xlink:href="#DejaVuSans-122"/>
       <use x="115.673828" xlink:href="#DejaVuSans-101"/>
       <use x="177.197266" xlink:href="#DejaVuSans-107"/>
       <use x="235.107422" xlink:href="#DejaVuSans-105"/>
       <use x="262.890625" xlink:href="#DejaVuSans-101"/>
       <use x="324.414062" xlink:href="#DejaVuSans-108"/>
      </g>
     </g>
    </g>
    <g id="xtick_9">
     <g id="line2d_9">
      <g>
       <use style="stroke:#000000;stroke-width:0.8;" x="142.13762" xlink:href="#m0aef8f48e5" y="279"/>
      </g>
     </g>
     <g id="text_9">
      <!-- Ecclesiastes -->
      <defs>
       <path d="M 48.78125 52.59375 
L 48.78125 44.1875 
Q 44.96875 46.296875 41.140625 47.34375 
Q 37.3125 48.390625 33.40625 48.390625 
Q 24.65625 48.390625 19.8125 42.84375 
Q 14.984375 37.3125 14.984375 27.296875 
Q 14.984375 17.28125 19.8125 11.734375 
Q 24.65625 6.203125 33.40625 6.203125 
Q 37.3125 6.203125 41.140625 7.25 
Q 44.96875 8.296875 48.78125 10.40625 
L 48.78125 2.09375 
Q 45.015625 0.34375 40.984375 -0.53125 
Q 36.96875 -1.421875 32.421875 -1.421875 
Q 20.0625 -1.421875 12.78125 6.34375 
Q 5.515625 14.109375 5.515625 27.296875 
Q 5.515625 40.671875 12.859375 48.328125 
Q 20.21875 56 33.015625 56 
Q 37.15625 56 41.109375 55.140625 
Q 45.0625 54.296875 48.78125 52.59375 
z
" id="DejaVuSans-99"/>
       <path d="M 18.3125 70.21875 
L 18.3125 54.6875 
L 36.8125 54.6875 
L 36.8125 47.703125 
L 18.3125 47.703125 
L 18.3125 18.015625 
Q 18.3125 11.328125 20.140625 9.421875 
Q 21.96875 7.515625 27.59375 7.515625 
L 36.8125 7.515625 
L 36.8125 0 
L 27.59375 0 
Q 17.1875 0 13.234375 3.875 
Q 9.28125 7.765625 9.28125 18.015625 
L 9.28125 47.703125 
L 2.6875 47.703125 
L 2.6875 54.6875 
L 9.28125 54.6875 
L 9.28125 70.21875 
z
" id="DejaVuSans-116"/>
      </defs>
      <g transform="translate(144.896995 346.854688)rotate(-90)scale(0.1 -0.1)">
       <use xlink:href="#DejaVuSans-69"/>
       <use x="63.183594" xlink:href="#DejaVuSans-99"/>
       <use x="118.164062" xlink:href="#DejaVuSans-99"/>
       <use x="173.144531" xlink:href="#DejaVuSans-108"/>
       <use x="200.927734" xlink:href="#DejaVuSans-101"/>
       <use x="262.451172" xlink:href="#DejaVuSans-115"/>
       <use x="314.550781" xlink:href="#DejaVuSans-105"/>
       <use x="342.333984" xlink:href="#DejaVuSans-97"/>
       <use x="403.613281" xlink:href="#DejaVuSans-115"/>
       <use x="455.712891" xlink:href="#DejaVuSans-116"/>
       <use x="494.921875" xlink:href="#DejaVuSans-101"/>
       <use x="556.445312" xlink:href="#DejaVuSans-115"/>
      </g>
     </g>
    </g>
    <g id="xtick_10">
     <g id="line2d_10">
      <g>
       <use style="stroke:#000000;stroke-width:0.8;" x="153.583774" xlink:href="#m0aef8f48e5" y="279"/>
      </g>
     </g>
     <g id="text_10">
      <!-- Zechariah -->
      <defs>
       <path d="M 5.609375 72.90625 
L 62.890625 72.90625 
L 62.890625 65.375 
L 16.796875 8.296875 
L 64.015625 8.296875 
L 64.015625 0 
L 4.5 0 
L 4.5 7.515625 
L 50.59375 64.59375 
L 5.609375 64.59375 
z
" id="DejaVuSans-90"/>
      </defs>
      <g transform="translate(156.343149 336.321875)rotate(-90)scale(0.1 -0.1)">
       <use xlink:href="#DejaVuSans-90"/>
       <use x="68.505859" xlink:href="#DejaVuSans-101"/>
       <use x="130.029297" xlink:href="#DejaVuSans-99"/>
       <use x="185.009766" xlink:href="#DejaVuSans-104"/>
       <use x="248.388672" xlink:href="#DejaVuSans-97"/>
       <use x="309.667969" xlink:href="#DejaVuSans-114"/>
       <use x="350.78125" xlink:href="#DejaVuSans-105"/>
       <use x="378.564453" xlink:href="#DejaVuSans-97"/>
       <use x="439.84375" xlink:href="#DejaVuSans-104"/>
      </g>
     </g>
    </g>
    <g id="xtick_11">
     <g id="line2d_11">
      <g>
       <use style="stroke:#000000;stroke-width:0.8;" x="165.029928" xlink:href="#m0aef8f48e5" y="279"/>
      </g>
     </g>
     <g id="text_11">
      <!-- Hosea -->
      <defs>
       <path d="M 9.8125 72.90625 
L 19.671875 72.90625 
L 19.671875 43.015625 
L 55.515625 43.015625 
L 55.515625 72.90625 
L 65.375 72.90625 
L 65.375 0 
L 55.515625 0 
L 55.515625 34.71875 
L 19.671875 34.71875 
L 19.671875 0 
L 9.8125 0 
z
" id="DejaVuSans-72"/>
      </defs>
      <g transform="translate(167.789303 317.129687)rotate(-90)scale(0.1 -0.1)">
       <use xlink:href="#DejaVuSans-72"/>
       <use x="75.195312" xlink:href="#DejaVuSans-111"/>
       <use x="136.376953" xlink:href="#DejaVuSans-115"/>
       <use x="188.476562" xlink:href="#DejaVuSans-101"/>
       <use x="250" xlink:href="#DejaVuSans-97"/>
      </g>
     </g>
    </g>
    <g id="xtick_12">
     <g id="line2d_12">
      <g>
       <use style="stroke:#000000;stroke-width:0.8;" x="176.476082" xlink:href="#m0aef8f48e5" y="279"/>
      </g>
     </g>
     <g id="text_12">
      <!-- Amos -->
      <defs>
       <path d="M 34.1875 63.1875 
L 20.796875 26.90625 
L 47.609375 26.90625 
z
M 28.609375 72.90625 
L 39.796875 72.90625 
L 67.578125 0 
L 57.328125 0 
L 50.6875 18.703125 
L 17.828125 18.703125 
L 11.1875 0 
L 0.78125 0 
z
" id="DejaVuSans-65"/>
      </defs>
      <g transform="translate(179.235457 313.909375)rotate(-90)scale(0.1 -0.1)">
       <use xlink:href="#DejaVuSans-65"/>
       <use x="68.408203" xlink:href="#DejaVuSans-109"/>
       <use x="165.820312" xlink:href="#DejaVuSans-111"/>
       <use x="227.001953" xlink:href="#DejaVuSans-115"/>
      </g>
     </g>
    </g>
    <g id="xtick_13">
     <g id="line2d_13">
      <g>
       <use style="stroke:#000000;stroke-width:0.8;" x="187.922236" xlink:href="#m0aef8f48e5" y="279"/>
      </g>
     </g>
     <g id="text_13">
      <!-- Ruth -->
      <defs>
       <path d="M 44.390625 34.1875 
Q 47.5625 33.109375 50.5625 29.59375 
Q 53.5625 26.078125 56.59375 19.921875 
L 66.609375 0 
L 56 0 
L 46.6875 18.703125 
Q 43.0625 26.03125 39.671875 28.421875 
Q 36.28125 30.8125 30.421875 30.8125 
L 19.671875 30.8125 
L 19.671875 0 
L 9.8125 0 
L 9.8125 72.90625 
L 32.078125 72.90625 
Q 44.578125 72.90625 50.734375 67.671875 
Q 56.890625 62.453125 56.890625 51.90625 
Q 56.890625 45.015625 53.6875 40.46875 
Q 50.484375 35.9375 44.390625 34.1875 
z
M 19.671875 64.796875 
L 19.671875 38.921875 
L 32.078125 38.921875 
Q 39.203125 38.921875 42.84375 42.21875 
Q 46.484375 45.515625 46.484375 51.90625 
Q 46.484375 58.296875 42.84375 61.546875 
Q 39.203125 64.796875 32.078125 64.796875 
z
" id="DejaVuSans-82"/>
      </defs>
      <g transform="translate(190.681611 309.5375)rotate(-90)scale(0.1 -0.1)">
       <use xlink:href="#DejaVuSans-82"/>
       <use x="69.419922" xlink:href="#DejaVuSans-117"/>
       <use x="132.798828" xlink:href="#DejaVuSans-116"/>
       <use x="172.007812" xlink:href="#DejaVuSans-104"/>
      </g>
     </g>
    </g>
    <g id="xtick_14">
     <g id="line2d_14">
      <g>
       <use style="stroke:#000000;stroke-width:0.8;" x="199.368389" xlink:href="#m0aef8f48e5" y="279"/>
      </g>
     </g>
     <g id="text_14">
      <!-- Lamentations -->
      <defs>
       <path d="M 9.8125 72.90625 
L 19.671875 72.90625 
L 19.671875 8.296875 
L 55.171875 8.296875 
L 55.171875 0 
L 9.8125 0 
z
" id="DejaVuSans-76"/>
      </defs>
      <g transform="translate(202.127764 354.34375)rotate(-90)scale(0.1 -0.1)">
       <use xlink:href="#DejaVuSans-76"/>
       <use x="55.712891" xlink:href="#DejaVuSans-97"/>
       <use x="116.992188" xlink:href="#DejaVuSans-109"/>
       <use x="214.404297" xlink:href="#DejaVuSans-101"/>
       <use x="275.927734" xlink:href="#DejaVuSans-110"/>
       <use x="339.306641" xlink:href="#DejaVuSans-116"/>
       <use x="378.515625" xlink:href="#DejaVuSans-97"/>
       <use x="439.794922" xlink:href="#DejaVuSans-116"/>
       <use x="479.003906" xlink:href="#DejaVuSans-105"/>
       <use x="506.787109" xlink:href="#DejaVuSans-111"/>
       <use x="567.96875" xlink:href="#DejaVuSans-110"/>
       <use x="631.347656" xlink:href="#DejaVuSans-115"/>
      </g>
     </g>
    </g>
    <g id="xtick_15">
     <g id="line2d_15">
      <g>
       <use style="stroke:#000000;stroke-width:0.8;" x="210.814543" xlink:href="#m0aef8f48e5" y="279"/>
      </g>
     </g>
     <g id="text_15">
      <!-- Habakkuk -->
      <g transform="translate(213.573918 335.829687)rotate(-90)scale(0.1 -0.1)">
       <use xlink:href="#DejaVuSans-72"/>
       <use x="75.195312" xlink:href="#DejaVuSans-97"/>
       <use x="136.474609" xlink:href="#DejaVuSans-98"/>
       <use x="199.951172" xlink:href="#DejaVuSans-97"/>
       <use x="261.230469" xlink:href="#DejaVuSans-107"/>
       <use x="319.140625" xlink:href="#DejaVuSans-107"/>
       <use x="377.003906" xlink:href="#DejaVuSans-117"/>
       <use x="440.382812" xlink:href="#DejaVuSans-107"/>
      </g>
     </g>
    </g>
    <g id="xtick_16">
     <g id="line2d_16">
      <g>
       <use style="stroke:#000000;stroke-width:0.8;" x="222.260697" xlink:href="#m0aef8f48e5" y="279"/>
      </g>
     </g>
     <g id="text_16">
      <!-- Micah -->
      <defs>
       <path d="M 9.8125 72.90625 
L 24.515625 72.90625 
L 43.109375 23.296875 
L 61.8125 72.90625 
L 76.515625 72.90625 
L 76.515625 0 
L 66.890625 0 
L 66.890625 64.015625 
L 48.09375 14.015625 
L 38.1875 14.015625 
L 19.390625 64.015625 
L 19.390625 0 
L 9.8125 0 
z
" id="DejaVuSans-77"/>
      </defs>
      <g transform="translate(225.020072 315.370313)rotate(-90)scale(0.1 -0.1)">
       <use xlink:href="#DejaVuSans-77"/>
       <use x="86.279297" xlink:href="#DejaVuSans-105"/>
       <use x="114.0625" xlink:href="#DejaVuSans-99"/>
       <use x="169.042969" xlink:href="#DejaVuSans-97"/>
       <use x="230.322266" xlink:href="#DejaVuSans-104"/>
      </g>
     </g>
    </g>
    <g id="xtick_17">
     <g id="line2d_17">
      <g>
       <use style="stroke:#000000;stroke-width:0.8;" x="233.706851" xlink:href="#m0aef8f48e5" y="279"/>
      </g>
     </g>
     <g id="text_17">
      <!-- Nahum -->
      <defs>
       <path d="M 9.8125 72.90625 
L 23.09375 72.90625 
L 55.421875 11.921875 
L 55.421875 72.90625 
L 64.984375 72.90625 
L 64.984375 0 
L 51.703125 0 
L 19.390625 60.984375 
L 19.390625 0 
L 9.8125 0 
z
" id="DejaVuSans-78"/>
      </defs>
      <g transform="translate(236.466226 322.025)rotate(-90)scale(0.1 -0.1)">
       <use xlink:href="#DejaVuSans-78"/>
       <use x="74.804688" xlink:href="#DejaVuSans-97"/>
       <use x="136.083984" xlink:href="#DejaVuSans-104"/>
       <use x="199.462891" xlink:href="#DejaVuSans-117"/>
       <use x="262.841797" xlink:href="#DejaVuSans-109"/>
      </g>
     </g>
    </g>
    <g id="xtick_18">
     <g id="line2d_18">
      <g>
       <use style="stroke:#000000;stroke-width:0.8;" x="245.153005" xlink:href="#m0aef8f48e5" y="279"/>
      </g>
     </g>
     <g id="text_18">
      <!-- Malachi -->
      <g transform="translate(247.91238 324.276563)rotate(-90)scale(0.1 -0.1)">
       <use xlink:href="#DejaVuSans-77"/>
       <use x="86.279297" xlink:href="#DejaVuSans-97"/>
       <use x="147.558594" xlink:href="#DejaVuSans-108"/>
       <use x="175.341797" xlink:href="#DejaVuSans-97"/>
       <use x="236.621094" xlink:href="#DejaVuSans-99"/>
       <use x="291.601562" xlink:href="#DejaVuSans-104"/>
       <use x="354.980469" xlink:href="#DejaVuSans-105"/>
      </g>
     </g>
    </g>
    <g id="xtick_19">
     <g id="line2d_19">
      <g>
       <use style="stroke:#000000;stroke-width:0.8;" x="256.599159" xlink:href="#m0aef8f48e5" y="279"/>
      </g>
     </g>
     <g id="text_19">
      <!-- Jonah -->
      <g transform="translate(259.358534 313.871875)rotate(-90)scale(0.1 -0.1)">
       <use xlink:href="#DejaVuSans-74"/>
       <use x="29.492188" xlink:href="#DejaVuSans-111"/>
       <use x="90.673828" xlink:href="#DejaVuSans-110"/>
       <use x="154.052734" xlink:href="#DejaVuSans-97"/>
       <use x="215.332031" xlink:href="#DejaVuSans-104"/>
      </g>
     </g>
    </g>
    <g id="xtick_20">
     <g id="line2d_20">
      <g>
       <use style="stroke:#000000;stroke-width:0.8;" x="268.045312" xlink:href="#m0aef8f48e5" y="279"/>
      </g>
     </g>
     <g id="text_20">
      <!-- Zephaniah -->
      <defs>
       <path d="M 18.109375 8.203125 
L 18.109375 -20.796875 
L 9.078125 -20.796875 
L 9.078125 54.6875 
L 18.109375 54.6875 
L 18.109375 46.390625 
Q 20.953125 51.265625 25.265625 53.625 
Q 29.59375 56 35.59375 56 
Q 45.5625 56 51.78125 48.09375 
Q 58.015625 40.1875 58.015625 27.296875 
Q 58.015625 14.40625 51.78125 6.484375 
Q 45.5625 -1.421875 35.59375 -1.421875 
Q 29.59375 -1.421875 25.265625 0.953125 
Q 20.953125 3.328125 18.109375 8.203125 
z
M 48.6875 27.296875 
Q 48.6875 37.203125 44.609375 42.84375 
Q 40.53125 48.484375 33.40625 48.484375 
Q 26.265625 48.484375 22.1875 42.84375 
Q 18.109375 37.203125 18.109375 27.296875 
Q 18.109375 17.390625 22.1875 11.75 
Q 26.265625 6.109375 33.40625 6.109375 
Q 40.53125 6.109375 44.609375 11.75 
Q 48.6875 17.390625 48.6875 27.296875 
z
" id="DejaVuSans-112"/>
      </defs>
      <g transform="translate(270.804687 339.398438)rotate(-90)scale(0.1 -0.1)">
       <use xlink:href="#DejaVuSans-90"/>
       <use x="68.505859" xlink:href="#DejaVuSans-101"/>
       <use x="130.029297" xlink:href="#DejaVuSans-112"/>
       <use x="193.505859" xlink:href="#DejaVuSans-104"/>
       <use x="256.884766" xlink:href="#DejaVuSans-97"/>
       <use x="318.164062" xlink:href="#DejaVuSans-110"/>
       <use x="381.542969" xlink:href="#DejaVuSans-105"/>
       <use x="409.326172" xlink:href="#DejaVuSans-97"/>
       <use x="470.605469" xlink:href="#DejaVuSans-104"/>
      </g>
     </g>
    </g>
    <g id="xtick_21">
     <g id="line2d_21">
      <g>
       <use style="stroke:#000000;stroke-width:0.8;" x="279.491466" xlink:href="#m0aef8f48e5" y="279"/>
      </g>
     </g>
     <g id="text_21">
      <!-- Obadiah -->
      <defs>
       <path d="M 39.40625 66.21875 
Q 28.65625 66.21875 22.328125 58.203125 
Q 16.015625 50.203125 16.015625 36.375 
Q 16.015625 22.609375 22.328125 14.59375 
Q 28.65625 6.59375 39.40625 6.59375 
Q 50.140625 6.59375 56.421875 14.59375 
Q 62.703125 22.609375 62.703125 36.375 
Q 62.703125 50.203125 56.421875 58.203125 
Q 50.140625 66.21875 39.40625 66.21875 
z
M 39.40625 74.21875 
Q 54.734375 74.21875 63.90625 63.9375 
Q 73.09375 53.65625 73.09375 36.375 
Q 73.09375 19.140625 63.90625 8.859375 
Q 54.734375 -1.421875 39.40625 -1.421875 
Q 24.03125 -1.421875 14.8125 8.828125 
Q 5.609375 19.09375 5.609375 36.375 
Q 5.609375 53.65625 14.8125 63.9375 
Q 24.03125 74.21875 39.40625 74.21875 
z
" id="DejaVuSans-79"/>
       <path d="M 45.40625 46.390625 
L 45.40625 75.984375 
L 54.390625 75.984375 
L 54.390625 0 
L 45.40625 0 
L 45.40625 8.203125 
Q 42.578125 3.328125 38.25 0.953125 
Q 33.9375 -1.421875 27.875 -1.421875 
Q 17.96875 -1.421875 11.734375 6.484375 
Q 5.515625 14.40625 5.515625 27.296875 
Q 5.515625 40.1875 11.734375 48.09375 
Q 17.96875 56 27.875 56 
Q 33.9375 56 38.25 53.625 
Q 42.578125 51.265625 45.40625 46.390625 
z
M 14.796875 27.296875 
Q 14.796875 17.390625 18.875 11.75 
Q 22.953125 6.109375 30.078125 6.109375 
Q 37.203125 6.109375 41.296875 11.75 
Q 45.40625 17.390625 45.40625 27.296875 
Q 45.40625 37.203125 41.296875 42.84375 
Q 37.203125 48.484375 30.078125 48.484375 
Q 22.953125 48.484375 18.875 42.84375 
Q 14.796875 37.203125 14.796875 27.296875 
z
" id="DejaVuSans-100"/>
      </defs>
      <g transform="translate(282.250841 327.940625)rotate(-90)scale(0.1 -0.1)">
       <use xlink:href="#DejaVuSans-79"/>
       <use x="78.710938" xlink:href="#DejaVuSans-98"/>
       <use x="142.1875" xlink:href="#DejaVuSans-97"/>
       <use x="203.466797" xlink:href="#DejaVuSans-100"/>
       <use x="266.943359" xlink:href="#DejaVuSans-105"/>
       <use x="294.726562" xlink:href="#DejaVuSans-97"/>
       <use x="356.005859" xlink:href="#DejaVuSans-104"/>
      </g>
     </g>
    </g>
    <g id="xtick_22">
     <g id="line2d_22">
      <g>
       <use style="stroke:#000000;stroke-width:0.8;" x="290.93762" xlink:href="#m0aef8f48e5" y="279"/>
      </g>
     </g>
     <g id="text_22">
      <!-- Joel -->
      <g transform="translate(293.696995 304)rotate(-90)scale(0.1 -0.1)">
       <use xlink:href="#DejaVuSans-74"/>
       <use x="29.492188" xlink:href="#DejaVuSans-111"/>
       <use x="90.673828" xlink:href="#DejaVuSans-101"/>
       <use x="152.197266" xlink:href="#DejaVuSans-108"/>
      </g>
     </g>
    </g>
    <g id="xtick_23">
     <g id="line2d_23">
      <g>
       <use style="stroke:#000000;stroke-width:0.8;" x="302.383774" xlink:href="#m0aef8f48e5" y="279"/>
      </g>
     </g>
     <g id="text_23">
      <!-- Esther -->
      <g transform="translate(305.143149 318.05)rotate(-90)scale(0.1 -0.1)">
       <use xlink:href="#DejaVuSans-69"/>
       <use x="63.183594" xlink:href="#DejaVuSans-115"/>
       <use x="115.283203" xlink:href="#DejaVuSans-116"/>
       <use x="154.492188" xlink:href="#DejaVuSans-104"/>
       <use x="217.871094" xlink:href="#DejaVuSans-101"/>
       <use x="279.394531" xlink:href="#DejaVuSans-114"/>
      </g>
     </g>
    </g>
    <g id="xtick_24">
     <g id="line2d_24">
      <g>
       <use style="stroke:#000000;stroke-width:0.8;" x="313.829928" xlink:href="#m0aef8f48e5" y="279"/>
      </g>
     </g>
     <g id="text_24">
      <!-- Judges -->
      <g transform="translate(316.589303 319.346875)rotate(-90)scale(0.1 -0.1)">
       <use xlink:href="#DejaVuSans-74"/>
       <use x="29.492188" xlink:href="#DejaVuSans-117"/>
       <use x="92.871094" xlink:href="#DejaVuSans-100"/>
       <use x="156.347656" xlink:href="#DejaVuSans-103"/>
       <use x="219.824219" xlink:href="#DejaVuSans-101"/>
       <use x="281.347656" xlink:href="#DejaVuSans-115"/>
      </g>
     </g>
    </g>
    <g id="xtick_25">
     <g id="line2d_25">
      <g>
       <use style="stroke:#000000;stroke-width:0.8;" x="325.276082" xlink:href="#m0aef8f48e5" y="279"/>
      </g>
     </g>
     <g id="text_25">
      <!-- Haggai -->
      <g transform="translate(328.035457 321.251562)rotate(-90)scale(0.1 -0.1)">
       <use xlink:href="#DejaVuSans-72"/>
       <use x="75.195312" xlink:href="#DejaVuSans-97"/>
       <use x="136.474609" xlink:href="#DejaVuSans-103"/>
       <use x="199.951172" xlink:href="#DejaVuSans-103"/>
       <use x="263.427734" xlink:href="#DejaVuSans-97"/>
       <use x="324.707031" xlink:href="#DejaVuSans-105"/>
      </g>
     </g>
    </g>
    <g id="xtick_26">
     <g id="line2d_26">
      <g>
       <use style="stroke:#000000;stroke-width:0.8;" x="336.722236" xlink:href="#m0aef8f48e5" y="279"/>
      </g>
     </g>
     <g id="text_26">
      <!-- Ezra -->
      <g transform="translate(339.481611 307.80625)rotate(-90)scale(0.1 -0.1)">
       <use xlink:href="#DejaVuSans-69"/>
       <use x="63.183594" xlink:href="#DejaVuSans-122"/>
       <use x="115.673828" xlink:href="#DejaVuSans-114"/>
       <use x="156.787109" xlink:href="#DejaVuSans-97"/>
      </g>
     </g>
    </g>
    <g id="xtick_27">
     <g id="line2d_27">
      <g>
       <use style="stroke:#000000;stroke-width:0.8;" x="348.168389" xlink:href="#m0aef8f48e5" y="279"/>
      </g>
     </g>
     <g id="text_27">
      <!-- 2_Samuel -->
      <defs>
       <path d="M 19.1875 8.296875 
L 53.609375 8.296875 
L 53.609375 0 
L 7.328125 0 
L 7.328125 8.296875 
Q 12.9375 14.109375 22.625 23.890625 
Q 32.328125 33.6875 34.8125 36.53125 
Q 39.546875 41.84375 41.421875 45.53125 
Q 43.3125 49.21875 43.3125 52.78125 
Q 43.3125 58.59375 39.234375 62.25 
Q 35.15625 65.921875 28.609375 65.921875 
Q 23.96875 65.921875 18.8125 64.3125 
Q 13.671875 62.703125 7.8125 59.421875 
L 7.8125 69.390625 
Q 13.765625 71.78125 18.9375 73 
Q 24.125 74.21875 28.421875 74.21875 
Q 39.75 74.21875 46.484375 68.546875 
Q 53.21875 62.890625 53.21875 53.421875 
Q 53.21875 48.921875 51.53125 44.890625 
Q 49.859375 40.875 45.40625 35.40625 
Q 44.1875 33.984375 37.640625 27.21875 
Q 31.109375 20.453125 19.1875 8.296875 
z
" id="DejaVuSans-50"/>
      </defs>
      <g transform="translate(350.788702 334.848437)rotate(-90)scale(0.1 -0.1)">
       <use xlink:href="#DejaVuSans-50"/>
       <use x="63.623047" xlink:href="#DejaVuSans-95"/>
       <use x="113.623047" xlink:href="#DejaVuSans-83"/>
       <use x="177.099609" xlink:href="#DejaVuSans-97"/>
       <use x="238.378906" xlink:href="#DejaVuSans-109"/>
       <use x="335.791016" xlink:href="#DejaVuSans-117"/>
       <use x="399.169922" xlink:href="#DejaVuSans-101"/>
       <use x="460.693359" xlink:href="#DejaVuSans-108"/>
      </g>
     </g>
    </g>
    <g id="xtick_28">
     <g id="line2d_28">
      <g>
       <use style="stroke:#000000;stroke-width:0.8;" x="359.614543" xlink:href="#m0aef8f48e5" y="279"/>
      </g>
     </g>
     <g id="text_28">
      <!-- 1_Chronicles -->
      <defs>
       <path d="M 64.40625 67.28125 
L 64.40625 56.890625 
Q 59.421875 61.53125 53.78125 63.8125 
Q 48.140625 66.109375 41.796875 66.109375 
Q 29.296875 66.109375 22.65625 58.46875 
Q 16.015625 50.828125 16.015625 36.375 
Q 16.015625 21.96875 22.65625 14.328125 
Q 29.296875 6.6875 41.796875 6.6875 
Q 48.140625 6.6875 53.78125 8.984375 
Q 59.421875 11.28125 64.40625 15.921875 
L 64.40625 5.609375 
Q 59.234375 2.09375 53.4375 0.328125 
Q 47.65625 -1.421875 41.21875 -1.421875 
Q 24.65625 -1.421875 15.125 8.703125 
Q 5.609375 18.84375 5.609375 36.375 
Q 5.609375 53.953125 15.125 64.078125 
Q 24.65625 74.21875 41.21875 74.21875 
Q 47.75 74.21875 53.53125 72.484375 
Q 59.328125 70.75 64.40625 67.28125 
z
" id="DejaVuSans-67"/>
      </defs>
      <g transform="translate(362.234856 349.664062)rotate(-90)scale(0.1 -0.1)">
       <use xlink:href="#DejaVuSans-49"/>
       <use x="63.623047" xlink:href="#DejaVuSans-95"/>
       <use x="113.623047" xlink:href="#DejaVuSans-67"/>
       <use x="183.447266" xlink:href="#DejaVuSans-104"/>
       <use x="246.826172" xlink:href="#DejaVuSans-114"/>
       <use x="287.908203" xlink:href="#DejaVuSans-111"/>
       <use x="349.089844" xlink:href="#DejaVuSans-110"/>
       <use x="412.46875" xlink:href="#DejaVuSans-105"/>
       <use x="440.251953" xlink:href="#DejaVuSans-99"/>
       <use x="495.232422" xlink:href="#DejaVuSans-108"/>
       <use x="523.015625" xlink:href="#DejaVuSans-101"/>
       <use x="584.539062" xlink:href="#DejaVuSans-115"/>
      </g>
     </g>
    </g>
    <g id="xtick_29">
     <g id="line2d_29">
      <g>
       <use style="stroke:#000000;stroke-width:0.8;" x="371.060697" xlink:href="#m0aef8f48e5" y="279"/>
      </g>
     </g>
     <g id="text_29">
      <!-- Leviticus -->
      <g transform="translate(373.820072 330.164062)rotate(-90)scale(0.1 -0.1)">
       <use xlink:href="#DejaVuSans-76"/>
       <use x="55.697266" xlink:href="#DejaVuSans-101"/>
       <use x="117.220703" xlink:href="#DejaVuSans-118"/>
       <use x="176.400391" xlink:href="#DejaVuSans-105"/>
       <use x="204.183594" xlink:href="#DejaVuSans-116"/>
       <use x="243.392578" xlink:href="#DejaVuSans-105"/>
       <use x="271.175781" xlink:href="#DejaVuSans-99"/>
       <use x="326.15625" xlink:href="#DejaVuSans-117"/>
       <use x="389.535156" xlink:href="#DejaVuSans-115"/>
      </g>
     </g>
    </g>
    <g id="xtick_30">
     <g id="line2d_30">
      <g>
       <use style="stroke:#000000;stroke-width:0.8;" x="382.506851" xlink:href="#m0aef8f48e5" y="279"/>
      </g>
     </g>
     <g id="text_30">
      <!-- 2_Kings -->
      <defs>
       <path d="M 9.8125 72.90625 
L 19.671875 72.90625 
L 19.671875 42.09375 
L 52.390625 72.90625 
L 65.09375 72.90625 
L 28.90625 38.921875 
L 67.671875 0 
L 54.6875 0 
L 19.671875 35.109375 
L 19.671875 0 
L 9.8125 0 
z
" id="DejaVuSans-75"/>
      </defs>
      <g transform="translate(385.127163 324.59375)rotate(-90)scale(0.1 -0.1)">
       <use xlink:href="#DejaVuSans-50"/>
       <use x="63.623047" xlink:href="#DejaVuSans-95"/>
       <use x="113.623047" xlink:href="#DejaVuSans-75"/>
       <use x="179.199219" xlink:href="#DejaVuSans-105"/>
       <use x="206.982422" xlink:href="#DejaVuSans-110"/>
       <use x="270.361328" xlink:href="#DejaVuSans-103"/>
       <use x="333.837891" xlink:href="#DejaVuSans-115"/>
      </g>
     </g>
    </g>
    <g id="xtick_31">
     <g id="line2d_31">
      <g>
       <use style="stroke:#000000;stroke-width:0.8;" x="393.953005" xlink:href="#m0aef8f48e5" y="279"/>
      </g>
     </g>
     <g id="text_31">
      <!-- Genesis -->
      <defs>
       <path d="M 59.515625 10.40625 
L 59.515625 29.984375 
L 43.40625 29.984375 
L 43.40625 38.09375 
L 69.28125 38.09375 
L 69.28125 6.78125 
Q 63.578125 2.734375 56.6875 0.65625 
Q 49.8125 -1.421875 42 -1.421875 
Q 24.90625 -1.421875 15.25 8.5625 
Q 5.609375 18.5625 5.609375 36.375 
Q 5.609375 54.25 15.25 64.234375 
Q 24.90625 74.21875 42 74.21875 
Q 49.125 74.21875 55.546875 72.453125 
Q 61.96875 70.703125 67.390625 67.28125 
L 67.390625 56.78125 
Q 61.921875 61.421875 55.765625 63.765625 
Q 49.609375 66.109375 42.828125 66.109375 
Q 29.4375 66.109375 22.71875 58.640625 
Q 16.015625 51.171875 16.015625 36.375 
Q 16.015625 21.625 22.71875 14.15625 
Q 29.4375 6.6875 42.828125 6.6875 
Q 48.046875 6.6875 52.140625 7.59375 
Q 56.25 8.5 59.515625 10.40625 
z
" id="DejaVuSans-71"/>
      </defs>
      <g transform="translate(396.71238 325.589063)rotate(-90)scale(0.1 -0.1)">
       <use xlink:href="#DejaVuSans-71"/>
       <use x="77.490234" xlink:href="#DejaVuSans-101"/>
       <use x="139.013672" xlink:href="#DejaVuSans-110"/>
       <use x="202.392578" xlink:href="#DejaVuSans-101"/>
       <use x="263.916016" xlink:href="#DejaVuSans-115"/>
       <use x="316.015625" xlink:href="#DejaVuSans-105"/>
       <use x="343.798828" xlink:href="#DejaVuSans-115"/>
      </g>
     </g>
    </g>
    <g id="xtick_32">
     <g id="line2d_32">
      <g>
       <use style="stroke:#000000;stroke-width:0.8;" x="405.399159" xlink:href="#m0aef8f48e5" y="279"/>
      </g>
     </g>
     <g id="text_32">
      <!-- Numbers -->
      <g transform="translate(408.158534 331.38125)rotate(-90)scale(0.1 -0.1)">
       <use xlink:href="#DejaVuSans-78"/>
       <use x="74.804688" xlink:href="#DejaVuSans-117"/>
       <use x="138.183594" xlink:href="#DejaVuSans-109"/>
       <use x="235.595703" xlink:href="#DejaVuSans-98"/>
       <use x="299.072266" xlink:href="#DejaVuSans-101"/>
       <use x="360.595703" xlink:href="#DejaVuSans-114"/>
       <use x="401.708984" xlink:href="#DejaVuSans-115"/>
      </g>
     </g>
    </g>
    <g id="xtick_33">
     <g id="line2d_33">
      <g>
       <use style="stroke:#000000;stroke-width:0.8;" x="416.845312" xlink:href="#m0aef8f48e5" y="279"/>
      </g>
     </g>
     <g id="text_33">
      <!-- Jeremiah -->
      <g transform="translate(419.604687 330.348437)rotate(-90)scale(0.1 -0.1)">
       <use xlink:href="#DejaVuSans-74"/>
       <use x="29.492188" xlink:href="#DejaVuSans-101"/>
       <use x="91.015625" xlink:href="#DejaVuSans-114"/>
       <use x="132.097656" xlink:href="#DejaVuSans-101"/>
       <use x="193.621094" xlink:href="#DejaVuSans-109"/>
       <use x="291.033203" xlink:href="#DejaVuSans-105"/>
       <use x="318.816406" xlink:href="#DejaVuSans-97"/>
       <use x="380.095703" xlink:href="#DejaVuSans-104"/>
      </g>
     </g>
    </g>
    <g id="xtick_34">
     <g id="line2d_34">
      <g>
       <use style="stroke:#000000;stroke-width:0.8;" x="428.291466" xlink:href="#m0aef8f48e5" y="279"/>
      </g>
     </g>
     <g id="text_34">
      <!-- Nehemiah -->
      <g transform="translate(431.050841 337.109375)rotate(-90)scale(0.1 -0.1)">
       <use xlink:href="#DejaVuSans-78"/>
       <use x="74.804688" xlink:href="#DejaVuSans-101"/>
       <use x="136.328125" xlink:href="#DejaVuSans-104"/>
       <use x="199.707031" xlink:href="#DejaVuSans-101"/>
       <use x="261.230469" xlink:href="#DejaVuSans-109"/>
       <use x="358.642578" xlink:href="#DejaVuSans-105"/>
       <use x="386.425781" xlink:href="#DejaVuSans-97"/>
       <use x="447.705078" xlink:href="#DejaVuSans-104"/>
      </g>
     </g>
    </g>
    <g id="xtick_35">
     <g id="line2d_35">
      <g>
       <use style="stroke:#000000;stroke-width:0.8;" x="439.73762" xlink:href="#m0aef8f48e5" y="279"/>
      </g>
     </g>
     <g id="text_35">
      <!-- 1_Kings -->
      <g transform="translate(442.357933 324.59375)rotate(-90)scale(0.1 -0.1)">
       <use xlink:href="#DejaVuSans-49"/>
       <use x="63.623047" xlink:href="#DejaVuSans-95"/>
       <use x="113.623047" xlink:href="#DejaVuSans-75"/>
       <use x="179.199219" xlink:href="#DejaVuSans-105"/>
       <use x="206.982422" xlink:href="#DejaVuSans-110"/>
       <use x="270.361328" xlink:href="#DejaVuSans-103"/>
       <use x="333.837891" xlink:href="#DejaVuSans-115"/>
      </g>
     </g>
    </g>
    <g id="xtick_36">
     <g id="line2d_36">
      <g>
       <use style="stroke:#000000;stroke-width:0.8;" x="451.183774" xlink:href="#m0aef8f48e5" y="279"/>
      </g>
     </g>
     <g id="text_36">
      <!-- Joshua -->
      <g transform="translate(453.943149 319.08125)rotate(-90)scale(0.1 -0.1)">
       <use xlink:href="#DejaVuSans-74"/>
       <use x="29.492188" xlink:href="#DejaVuSans-111"/>
       <use x="90.673828" xlink:href="#DejaVuSans-115"/>
       <use x="142.773438" xlink:href="#DejaVuSans-104"/>
       <use x="206.152344" xlink:href="#DejaVuSans-117"/>
       <use x="269.53125" xlink:href="#DejaVuSans-97"/>
      </g>
     </g>
    </g>
    <g id="xtick_37">
     <g id="line2d_37">
      <g>
       <use style="stroke:#000000;stroke-width:0.8;" x="462.629928" xlink:href="#m0aef8f48e5" y="279"/>
      </g>
     </g>
     <g id="text_37">
      <!-- Exodus -->
      <defs>
       <path d="M 54.890625 54.6875 
L 35.109375 28.078125 
L 55.90625 0 
L 45.3125 0 
L 29.390625 21.484375 
L 13.484375 0 
L 2.875 0 
L 24.125 28.609375 
L 4.6875 54.6875 
L 15.28125 54.6875 
L 29.78125 35.203125 
L 44.28125 54.6875 
z
" id="DejaVuSans-120"/>
      </defs>
      <g transform="translate(465.389303 322.246875)rotate(-90)scale(0.1 -0.1)">
       <use xlink:href="#DejaVuSans-69"/>
       <use x="63.183594" xlink:href="#DejaVuSans-120"/>
       <use x="122.316406" xlink:href="#DejaVuSans-111"/>
       <use x="183.498047" xlink:href="#DejaVuSans-100"/>
       <use x="246.974609" xlink:href="#DejaVuSans-117"/>
       <use x="310.353516" xlink:href="#DejaVuSans-115"/>
      </g>
     </g>
    </g>
    <g id="xtick_38">
     <g id="line2d_38">
      <g>
       <use style="stroke:#000000;stroke-width:0.8;" x="474.076082" xlink:href="#m0aef8f48e5" y="279"/>
      </g>
     </g>
     <g id="text_38">
      <!-- Deuteronomy -->
      <defs>
       <path d="M 32.171875 -5.078125 
Q 28.375 -14.84375 24.75 -17.8125 
Q 21.140625 -20.796875 15.09375 -20.796875 
L 7.90625 -20.796875 
L 7.90625 -13.28125 
L 13.1875 -13.28125 
Q 16.890625 -13.28125 18.9375 -11.515625 
Q 21 -9.765625 23.484375 -3.21875 
L 25.09375 0.875 
L 2.984375 54.6875 
L 12.5 54.6875 
L 29.59375 11.921875 
L 46.6875 54.6875 
L 56.203125 54.6875 
z
" id="DejaVuSans-121"/>
      </defs>
      <g transform="translate(476.835457 354.60625)rotate(-90)scale(0.1 -0.1)">
       <use xlink:href="#DejaVuSans-68"/>
       <use x="77.001953" xlink:href="#DejaVuSans-101"/>
       <use x="138.525391" xlink:href="#DejaVuSans-117"/>
       <use x="201.904297" xlink:href="#DejaVuSans-116"/>
       <use x="241.113281" xlink:href="#DejaVuSans-101"/>
       <use x="302.636719" xlink:href="#DejaVuSans-114"/>
       <use x="343.71875" xlink:href="#DejaVuSans-111"/>
       <use x="404.900391" xlink:href="#DejaVuSans-110"/>
       <use x="468.279297" xlink:href="#DejaVuSans-111"/>
       <use x="529.460938" xlink:href="#DejaVuSans-109"/>
       <use x="626.873047" xlink:href="#DejaVuSans-121"/>
      </g>
     </g>
    </g>
    <g id="xtick_39">
     <g id="line2d_39">
      <g>
       <use style="stroke:#000000;stroke-width:0.8;" x="485.522236" xlink:href="#m0aef8f48e5" y="279"/>
      </g>
     </g>
     <g id="text_39">
      <!-- 2_Chronicles -->
      <g transform="translate(488.142548 349.664062)rotate(-90)scale(0.1 -0.1)">
       <use xlink:href="#DejaVuSans-50"/>
       <use x="63.623047" xlink:href="#DejaVuSans-95"/>
       <use x="113.623047" xlink:href="#DejaVuSans-67"/>
       <use x="183.447266" xlink:href="#DejaVuSans-104"/>
       <use x="246.826172" xlink:href="#DejaVuSans-114"/>
       <use x="287.908203" xlink:href="#DejaVuSans-111"/>
       <use x="349.089844" xlink:href="#DejaVuSans-110"/>
       <use x="412.46875" xlink:href="#DejaVuSans-105"/>
       <use x="440.251953" xlink:href="#DejaVuSans-99"/>
       <use x="495.232422" xlink:href="#DejaVuSans-108"/>
       <use x="523.015625" xlink:href="#DejaVuSans-101"/>
       <use x="584.539062" xlink:href="#DejaVuSans-115"/>
      </g>
     </g>
    </g>
   </g>
   <g id="matplotlib.axis_2">
    <g id="ytick_1">
     <g id="line2d_40">
      <path clip-path="url(#p3334367137)" d="M 44.845313 236.171447 
L 491.245312 236.171447 
" style="fill:none;stroke:#b0b0b0;stroke-linecap:square;stroke-width:0.8;"/>
     </g>
     <g id="line2d_41">
      <defs>
       <path d="M 0 0 
L -3.5 0 
" id="m28a5b23525" style="stroke:#000000;stroke-width:0.8;"/>
      </defs>
      <g>
       <use style="stroke:#000000;stroke-width:0.8;" x="44.845313" xlink:href="#m28a5b23525" y="236.171447"/>
      </g>
     </g>
     <g id="text_40">
      <!-- 0.02 -->
      <defs>
       <path d="M 10.59375 35.5 
L 73.1875 35.5 
L 73.1875 27.203125 
L 10.59375 27.203125 
z
" id="DejaVuSans-8722"/>
       <path d="M 31.78125 66.40625 
Q 24.171875 66.40625 20.328125 58.90625 
Q 16.5 51.421875 16.5 36.375 
Q 16.5 21.390625 20.328125 13.890625 
Q 24.171875 6.390625 31.78125 6.390625 
Q 39.453125 6.390625 43.28125 13.890625 
Q 47.125 21.390625 47.125 36.375 
Q 47.125 51.421875 43.28125 58.90625 
Q 39.453125 66.40625 31.78125 66.40625 
z
M 31.78125 74.21875 
Q 44.046875 74.21875 50.515625 64.515625 
Q 56.984375 54.828125 56.984375 36.375 
Q 56.984375 17.96875 50.515625 8.265625 
Q 44.046875 -1.421875 31.78125 -1.421875 
Q 19.53125 -1.421875 13.0625 8.265625 
Q 6.59375 17.96875 6.59375 36.375 
Q 6.59375 54.828125 13.0625 64.515625 
Q 19.53125 74.21875 31.78125 74.21875 
z
" id="DejaVuSans-48"/>
       <path d="M 10.6875 12.40625 
L 21 12.40625 
L 21 0 
L 10.6875 0 
z
" id="DejaVuSans-46"/>
      </defs>
      <g transform="translate(7.2 239.970666)scale(0.1 -0.1)">
       <use xlink:href="#DejaVuSans-8722"/>
       <use x="83.789062" xlink:href="#DejaVuSans-48"/>
       <use x="147.412109" xlink:href="#DejaVuSans-46"/>
       <use x="179.199219" xlink:href="#DejaVuSans-48"/>
       <use x="242.822266" xlink:href="#DejaVuSans-50"/>
      </g>
     </g>
    </g>
    <g id="ytick_2">
     <g id="line2d_42">
      <path clip-path="url(#p3334367137)" d="M 44.845313 180.931366 
L 491.245312 180.931366 
" style="fill:none;stroke:#b0b0b0;stroke-linecap:square;stroke-width:0.8;"/>
     </g>
     <g id="line2d_43">
      <g>
       <use style="stroke:#000000;stroke-width:0.8;" x="44.845313" xlink:href="#m28a5b23525" y="180.931366"/>
      </g>
     </g>
     <g id="text_41">
      <!-- 0.01 -->
      <g transform="translate(7.2 184.730585)scale(0.1 -0.1)">
       <use xlink:href="#DejaVuSans-8722"/>
       <use x="83.789062" xlink:href="#DejaVuSans-48"/>
       <use x="147.412109" xlink:href="#DejaVuSans-46"/>
       <use x="179.199219" xlink:href="#DejaVuSans-48"/>
       <use x="242.822266" xlink:href="#DejaVuSans-49"/>
      </g>
     </g>
    </g>
    <g id="ytick_3">
     <g id="line2d_44">
      <path clip-path="url(#p3334367137)" d="M 44.845313 125.691286 
L 491.245312 125.691286 
" style="fill:none;stroke:#b0b0b0;stroke-linecap:square;stroke-width:0.8;"/>
     </g>
     <g id="line2d_45">
      <g>
       <use style="stroke:#000000;stroke-width:0.8;" x="44.845313" xlink:href="#m28a5b23525" y="125.691286"/>
      </g>
     </g>
     <g id="text_42">
      <!-- 0.00 -->
      <g transform="translate(15.579688 129.490504)scale(0.1 -0.1)">
       <use xlink:href="#DejaVuSans-48"/>
       <use x="63.623047" xlink:href="#DejaVuSans-46"/>
       <use x="95.410156" xlink:href="#DejaVuSans-48"/>
       <use x="159.033203" xlink:href="#DejaVuSans-48"/>
      </g>
     </g>
    </g>
    <g id="ytick_4">
     <g id="line2d_46">
      <path clip-path="url(#p3334367137)" d="M 44.845313 70.451205 
L 491.245312 70.451205 
" style="fill:none;stroke:#b0b0b0;stroke-linecap:square;stroke-width:0.8;"/>
     </g>
     <g id="line2d_47">
      <g>
       <use style="stroke:#000000;stroke-width:0.8;" x="44.845313" xlink:href="#m28a5b23525" y="70.451205"/>
      </g>
     </g>
     <g id="text_43">
      <!-- 0.01 -->
      <g transform="translate(15.579688 74.250424)scale(0.1 -0.1)">
       <use xlink:href="#DejaVuSans-48"/>
       <use x="63.623047" xlink:href="#DejaVuSans-46"/>
       <use x="95.410156" xlink:href="#DejaVuSans-48"/>
       <use x="159.033203" xlink:href="#DejaVuSans-49"/>
      </g>
     </g>
    </g>
    <g id="ytick_5">
     <g id="line2d_48">
      <path clip-path="url(#p3334367137)" d="M 44.845313 15.211124 
L 491.245312 15.211124 
" style="fill:none;stroke:#b0b0b0;stroke-linecap:square;stroke-width:0.8;"/>
     </g>
     <g id="line2d_49">
      <g>
       <use style="stroke:#000000;stroke-width:0.8;" x="44.845313" xlink:href="#m28a5b23525" y="15.211124"/>
      </g>
     </g>
     <g id="text_44">
      <!-- 0.02 -->
      <g transform="translate(15.579688 19.010343)scale(0.1 -0.1)">
       <use xlink:href="#DejaVuSans-48"/>
       <use x="63.623047" xlink:href="#DejaVuSans-46"/>
       <use x="95.410156" xlink:href="#DejaVuSans-48"/>
       <use x="159.033203" xlink:href="#DejaVuSans-50"/>
      </g>
     </g>
    </g>
   </g>
   <g id="patch_3">
    <path clip-path="url(#p3334367137)" d="M 47.706851 125.691286 
L 53.429928 125.691286 
L 53.429928 266.645455 
L 47.706851 266.645455 
z
" style="fill:#d3d3d3;stroke:#000000;stroke-linejoin:miter;stroke-width:0.8;"/>
   </g>
   <g id="patch_4">
    <path clip-path="url(#p3334367137)" d="M 59.153005 125.691286 
L 64.876082 125.691286 
L 64.876082 259.002323 
L 59.153005 259.002323 
z
" style="fill:#d3d3d3;stroke:#000000;stroke-linejoin:miter;stroke-width:0.8;"/>
   </g>
   <g id="patch_5">
    <path clip-path="url(#p3334367137)" d="M 70.599159 125.691286 
L 76.322236 125.691286 
L 76.322236 216.335591 
L 70.599159 216.335591 
z
" style="fill:#d3d3d3;stroke:#000000;stroke-linejoin:miter;stroke-width:0.8;"/>
   </g>
   <g id="patch_6">
    <path clip-path="url(#p3334367137)" d="M 82.045312 125.691286 
L 87.768389 125.691286 
L 87.768389 189.34488 
L 82.045312 189.34488 
z
" style="fill:#d3d3d3;stroke:#000000;stroke-linejoin:miter;stroke-width:0.8;"/>
   </g>
   <g id="patch_7">
    <path clip-path="url(#p3334367137)" d="M 93.491466 125.691286 
L 99.214543 125.691286 
L 99.214543 174.71542 
L 93.491466 174.71542 
z
" style="fill:#d3d3d3;stroke:#000000;stroke-linejoin:miter;stroke-width:0.8;"/>
   </g>
   <g id="patch_8">
    <path clip-path="url(#p3334367137)" d="M 104.93762 125.691286 
L 110.660697 125.691286 
L 110.660697 149.269004 
L 104.93762 149.269004 
z
" style="fill:#d3d3d3;stroke:#000000;stroke-linejoin:miter;stroke-width:0.8;"/>
   </g>
   <g id="patch_9">
    <path clip-path="url(#p3334367137)" d="M 116.383774 125.691286 
L 122.106851 125.691286 
L 122.106851 147.138471 
L 116.383774 147.138471 
z
" style="fill:#d3d3d3;stroke:#000000;stroke-linejoin:miter;stroke-width:0.8;"/>
   </g>
   <g id="patch_10">
    <path clip-path="url(#p3334367137)" d="M 127.829928 125.691286 
L 133.553005 125.691286 
L 133.553005 146.347109 
L 127.829928 146.347109 
z
" style="fill:#d3d3d3;stroke:#000000;stroke-linejoin:miter;stroke-width:0.8;"/>
   </g>
   <g id="patch_11">
    <path clip-path="url(#p3334367137)" d="M 139.276082 125.691286 
L 144.999159 125.691286 
L 144.999159 142.594493 
L 139.276082 142.594493 
z
" style="fill:#d3d3d3;stroke:#000000;stroke-linejoin:miter;stroke-width:0.8;"/>
   </g>
   <g id="patch_12">
    <path clip-path="url(#p3334367137)" d="M 150.722236 125.691286 
L 156.445312 125.691286 
L 156.445312 141.540349 
L 150.722236 141.540349 
z
" style="fill:#d3d3d3;stroke:#000000;stroke-linejoin:miter;stroke-width:0.8;"/>
   </g>
   <g id="patch_13">
    <path clip-path="url(#p3334367137)" d="M 162.168389 125.691286 
L 167.891466 125.691286 
L 167.891466 140.183289 
L 162.168389 140.183289 
z
" style="fill:#d3d3d3;stroke:#000000;stroke-linejoin:miter;stroke-width:0.8;"/>
   </g>
   <g id="patch_14">
    <path clip-path="url(#p3334367137)" d="M 173.614543 125.691286 
L 179.33762 125.691286 
L 179.33762 139.780795 
L 173.614543 139.780795 
z
" style="fill:#d3d3d3;stroke:#000000;stroke-linejoin:miter;stroke-width:0.8;"/>
   </g>
   <g id="patch_15">
    <path clip-path="url(#p3334367137)" d="M 185.060697 125.691286 
L 190.783774 125.691286 
L 190.783774 139.700957 
L 185.060697 139.700957 
z
" style="fill:#d3d3d3;stroke:#000000;stroke-linejoin:miter;stroke-width:0.8;"/>
   </g>
   <g id="patch_16">
    <path clip-path="url(#p3334367137)" d="M 196.506851 125.691286 
L 202.229928 125.691286 
L 202.229928 135.093564 
L 196.506851 135.093564 
z
" style="fill:#d3d3d3;stroke:#000000;stroke-linejoin:miter;stroke-width:0.8;"/>
   </g>
   <g id="patch_17">
    <path clip-path="url(#p3334367137)" d="M 207.953005 125.691286 
L 213.676082 125.691286 
L 213.676082 134.04619 
L 207.953005 134.04619 
z
" style="fill:#d3d3d3;stroke:#000000;stroke-linejoin:miter;stroke-width:0.8;"/>
   </g>
   <g id="patch_18">
    <path clip-path="url(#p3334367137)" d="M 219.399159 125.691286 
L 225.122236 125.691286 
L 225.122236 134.03524 
L 219.399159 134.03524 
z
" style="fill:#d3d3d3;stroke:#000000;stroke-linejoin:miter;stroke-width:0.8;"/>
   </g>
   <g id="patch_19">
    <path clip-path="url(#p3334367137)" d="M 230.845312 125.691286 
L 236.568389 125.691286 
L 236.568389 133.433589 
L 230.845312 133.433589 
z
" style="fill:#d3d3d3;stroke:#000000;stroke-linejoin:miter;stroke-width:0.8;"/>
   </g>
   <g id="patch_20">
    <path clip-path="url(#p3334367137)" d="M 242.291466 125.691286 
L 248.014543 125.691286 
L 248.014543 131.117933 
L 242.291466 131.117933 
z
" style="fill:#d3d3d3;stroke:#000000;stroke-linejoin:miter;stroke-width:0.8;"/>
   </g>
   <g id="patch_21">
    <path clip-path="url(#p3334367137)" d="M 253.73762 125.691286 
L 259.460697 125.691286 
L 259.460697 129.592702 
L 253.73762 129.592702 
z
" style="fill:#d3d3d3;stroke:#000000;stroke-linejoin:miter;stroke-width:0.8;"/>
   </g>
   <g id="patch_22">
    <path clip-path="url(#p3334367137)" d="M 265.183774 125.691286 
L 270.906851 125.691286 
L 270.906851 129.532321 
L 265.183774 129.532321 
z
" style="fill:#d3d3d3;stroke:#000000;stroke-linejoin:miter;stroke-width:0.8;"/>
   </g>
   <g id="patch_23">
    <path clip-path="url(#p3334367137)" d="M 276.629928 125.691286 
L 282.353005 125.691286 
L 282.353005 126.589219 
L 276.629928 126.589219 
z
" style="fill:#d3d3d3;stroke:#000000;stroke-linejoin:miter;stroke-width:0.8;"/>
   </g>
   <g id="patch_24">
    <path clip-path="url(#p3334367137)" d="M 288.076082 125.691286 
L 293.799159 125.691286 
L 293.799159 126.473648 
L 288.076082 126.473648 
z
" style="fill:#d3d3d3;stroke:#000000;stroke-linejoin:miter;stroke-width:0.8;"/>
   </g>
   <g id="patch_25">
    <path clip-path="url(#p3334367137)" d="M 299.522236 125.691286 
L 305.245312 125.691286 
L 305.245312 126.35174 
L 299.522236 126.35174 
z
" style="fill:#d3d3d3;stroke:#000000;stroke-linejoin:miter;stroke-width:0.8;"/>
   </g>
   <g id="patch_26">
    <path clip-path="url(#p3334367137)" d="M 310.968389 125.691286 
L 316.691466 125.691286 
L 316.691466 124.049659 
L 310.968389 124.049659 
z
" style="fill:#d3d3d3;stroke:#000000;stroke-linejoin:miter;stroke-width:0.8;"/>
   </g>
   <g id="patch_27">
    <path clip-path="url(#p3334367137)" d="M 322.414543 125.691286 
L 328.13762 125.691286 
L 328.13762 121.015732 
L 322.414543 121.015732 
z
" style="fill:#d3d3d3;stroke:#000000;stroke-linejoin:miter;stroke-width:0.8;"/>
   </g>
   <g id="patch_28">
    <path clip-path="url(#p3334367137)" d="M 333.860697 125.691286 
L 339.583774 125.691286 
L 339.583774 113.842232 
L 333.860697 113.842232 
z
" style="fill:#d3d3d3;stroke:#000000;stroke-linejoin:miter;stroke-width:0.8;"/>
   </g>
   <g id="patch_29">
    <path clip-path="url(#p3334367137)" d="M 345.306851 125.691286 
L 351.029928 125.691286 
L 351.029928 112.564468 
L 345.306851 112.564468 
z
" style="fill:#d3d3d3;stroke:#000000;stroke-linejoin:miter;stroke-width:0.8;"/>
   </g>
   <g id="patch_30">
    <path clip-path="url(#p3334367137)" d="M 356.753005 125.691286 
L 362.476082 125.691286 
L 362.476082 111.483222 
L 356.753005 111.483222 
z
" style="fill:#d3d3d3;stroke:#000000;stroke-linejoin:miter;stroke-width:0.8;"/>
   </g>
   <g id="patch_31">
    <path clip-path="url(#p3334367137)" d="M 368.199159 125.691286 
L 373.922236 125.691286 
L 373.922236 97.54879 
L 368.199159 97.54879 
z
" style="fill:#d3d3d3;stroke:#000000;stroke-linejoin:miter;stroke-width:0.8;"/>
   </g>
   <g id="patch_32">
    <path clip-path="url(#p3334367137)" d="M 379.645312 125.691286 
L 385.368389 125.691286 
L 385.368389 93.675338 
L 379.645312 93.675338 
z
" style="fill:#d3d3d3;stroke:#000000;stroke-linejoin:miter;stroke-width:0.8;"/>
   </g>
   <g id="patch_33">
    <path clip-path="url(#p3334367137)" d="M 391.091466 125.691286 
L 396.814543 125.691286 
L 396.814543 86.750884 
L 391.091466 86.750884 
z
" style="fill:#d3d3d3;stroke:#000000;stroke-linejoin:miter;stroke-width:0.8;"/>
   </g>
   <g id="patch_34">
    <path clip-path="url(#p3334367137)" d="M 402.53762 125.691286 
L 408.260697 125.691286 
L 408.260697 86.219675 
L 402.53762 86.219675 
z
" style="fill:#d3d3d3;stroke:#000000;stroke-linejoin:miter;stroke-width:0.8;"/>
   </g>
   <g id="patch_35">
    <path clip-path="url(#p3334367137)" d="M 413.983774 125.691286 
L 419.706851 125.691286 
L 419.706851 83.82825 
L 413.983774 83.82825 
z
" style="fill:#d3d3d3;stroke:#000000;stroke-linejoin:miter;stroke-width:0.8;"/>
   </g>
   <g id="patch_36">
    <path clip-path="url(#p3334367137)" d="M 425.429928 125.691286 
L 431.153005 125.691286 
L 431.153005 72.415756 
L 425.429928 72.415756 
z
" style="fill:#d3d3d3;stroke:#000000;stroke-linejoin:miter;stroke-width:0.8;"/>
   </g>
   <g id="patch_37">
    <path clip-path="url(#p3334367137)" d="M 436.876082 125.691286 
L 442.599159 125.691286 
L 442.599159 68.426328 
L 436.876082 68.426328 
z
" style="fill:#d3d3d3;stroke:#000000;stroke-linejoin:miter;stroke-width:0.8;"/>
   </g>
   <g id="patch_38">
    <path clip-path="url(#p3334367137)" d="M 448.322236 125.691286 
L 454.045312 125.691286 
L 454.045312 66.581018 
L 448.322236 66.581018 
z
" style="fill:#d3d3d3;stroke:#000000;stroke-linejoin:miter;stroke-width:0.8;"/>
   </g>
   <g id="patch_39">
    <path clip-path="url(#p3334367137)" d="M 459.768389 125.691286 
L 465.491466 125.691286 
L 465.491466 47.854178 
L 459.768389 47.854178 
z
" style="fill:#d3d3d3;stroke:#000000;stroke-linejoin:miter;stroke-width:0.8;"/>
   </g>
   <g id="patch_40">
    <path clip-path="url(#p3334367137)" d="M 471.214543 125.691286 
L 476.93762 125.691286 
L 476.93762 37.285785 
L 471.214543 37.285785 
z
" style="fill:#d3d3d3;stroke:#000000;stroke-linejoin:miter;stroke-width:0.8;"/>
   </g>
   <g id="patch_41">
    <path clip-path="url(#p3334367137)" d="M 482.660697 125.691286 
L 488.383774 125.691286 
L 488.383774 19.554545 
L 482.660697 19.554545 
z
" style="fill:#d3d3d3;stroke:#000000;stroke-linejoin:miter;stroke-width:0.8;"/>
   </g>
   <g id="line2d_50">
    <path clip-path="url(#p3334367137)" d="M 44.845313 125.691286 
L 491.245312 125.691286 
" style="fill:none;stroke:#000000;stroke-linecap:square;stroke-width:0.5;"/>
   </g>
   <g id="patch_42">
    <path d="M 44.845313 279 
L 44.845313 7.2 
" style="fill:none;stroke:#000000;stroke-linecap:square;stroke-linejoin:miter;stroke-width:0.8;"/>
   </g>
   <g id="patch_43">
    <path d="M 491.245312 279 
L 491.245312 7.2 
" style="fill:none;stroke:#000000;stroke-linecap:square;stroke-linejoin:miter;stroke-width:0.8;"/>
   </g>
   <g id="patch_44">
    <path d="M 44.845313 279 
L 491.245312 279 
" style="fill:none;stroke:#000000;stroke-linecap:square;stroke-linejoin:miter;stroke-width:0.8;"/>
   </g>
   <g id="patch_45">
    <path d="M 44.845313 7.2 
L 491.245312 7.2 
" style="fill:none;stroke:#000000;stroke-linecap:square;stroke-linejoin:miter;stroke-width:0.8;"/>
   </g>
  </g>
 </g>
 <defs>
  <clipPath id="p3334367137">
   <rect height="271.8" width="446.4" x="44.845313" y="7.2"/>
  </clipPath>
 </defs>
</svg>
